<mxfile host="app.diagrams.net" modified="2022-12-20T19:59:27.064Z" agent="5.0 (Macintosh; Intel Mac OS X 10_15_7) AppleWebKit/605.1.15 (KHTML, like Gecko) Version/16.1 Safari/605.1.15" version="20.7.4" etag="bhc8vA3CFr4CAPZkD3OS" type="github">
  <diagram id="a5XAZE--GDtm8ny9hHhx" name="Page-1">
    <mxGraphModel dx="855" dy="577" grid="1" gridSize="10" guides="1" tooltips="1" connect="1" arrows="1" fold="1" page="1" pageScale="1" pageWidth="827" pageHeight="2500" math="0" shadow="0">
      <root>
        <mxCell id="0" />
        <mxCell id="1" parent="0" />
        <mxCell id="fX9lzDfU46Up3KjZkPzS-1" value="Datenbanksystem Aufgabenblatt 08 Aufgabe 22" style="text;html=1;align=center;verticalAlign=middle;resizable=0;points=[];autosize=1;strokeColor=none;fillColor=none;" vertex="1" parent="1">
          <mxGeometry x="10" width="280" height="30" as="geometry" />
        </mxCell>
        <mxCell id="fX9lzDfU46Up3KjZkPzS-2" value="&lt;div style=&quot;&quot; title=&quot;Page 2&quot; class=&quot;page&quot;&gt;&lt;div class=&quot;layoutArea&quot;&gt;&lt;div class=&quot;column&quot;&gt;&lt;div title=&quot;Page 2&quot; class=&quot;page&quot;&gt;&lt;div class=&quot;layoutArea&quot;&gt;&lt;div class=&quot;column&quot;&gt;&lt;div title=&quot;Page 2&quot; class=&quot;page&quot;&gt;&lt;div class=&quot;layoutArea&quot;&gt;&lt;div class=&quot;column&quot;&gt;&lt;span style=&quot;font-size: 11pt;&quot;&gt;&lt;font&gt;1)&amp;nbsp;&lt;/font&gt;&lt;/span&gt;&lt;span style=&quot;font-size: 11pt;&quot;&gt;Auflistung aller Bestellungen des Kunden mit der Kundennummer 6 zwischen dem 21. und 23.11.2007.&lt;/span&gt;&lt;/div&gt;&lt;/div&gt;&lt;/div&gt;&lt;/div&gt;&lt;/div&gt;&lt;/div&gt;&lt;/div&gt;&lt;/div&gt;&lt;/div&gt;" style="whiteSpace=wrap;html=1;fillColor=#eeeeee;strokeColor=#A6A6A6;gradientDirection=west;align=left;spacingLeft=16;strokeWidth=1;fontFamily=Courier New;" vertex="1" parent="1">
          <mxGeometry x="10" y="50" width="710" height="72" as="geometry" />
        </mxCell>
        <mxCell id="fX9lzDfU46Up3KjZkPzS-3" value="&lt;div style=&quot;&quot; title=&quot;Page 2&quot; class=&quot;page&quot;&gt;&lt;div class=&quot;layoutArea&quot;&gt;&lt;div class=&quot;column&quot;&gt;&lt;div title=&quot;Page 2&quot; class=&quot;page&quot;&gt;&lt;div class=&quot;layoutArea&quot;&gt;&lt;div class=&quot;column&quot;&gt;&lt;div title=&quot;Page 2&quot; class=&quot;page&quot;&gt;&lt;div class=&quot;layoutArea&quot;&gt;&lt;div class=&quot;column&quot;&gt;&lt;div title=&quot;Page 3&quot; class=&quot;page&quot;&gt;&lt;div class=&quot;layoutArea&quot;&gt;&lt;div class=&quot;column&quot;&gt;&lt;span style=&quot;font-size: 11pt;&quot;&gt;2) Durchschnittlicher Lagerbestand, durchschnittlicher Einstandspreis, durchschnittlicher Listenpreis und die durchschnittliche Preisdifferenz (zwischen Einstandspreis und Listenpreis) der Artikel.&lt;/span&gt;&lt;br style=&quot;font-size: 11pt;&quot;&gt;&lt;span style=&quot;font-size: 11pt;&quot;&gt;Geben Sie für die Ausgabe verständliche Spaltenüberschriften an, runden Sie die Preise auf 2 Nachkommastellen und den Bestand auf eine ganze Zahl.&lt;/span&gt;&lt;br&gt;&lt;/div&gt;&lt;/div&gt;&lt;/div&gt;&lt;/div&gt;&lt;/div&gt;&lt;/div&gt;&lt;/div&gt;&lt;/div&gt;&lt;/div&gt;&lt;/div&gt;&lt;/div&gt;&lt;/div&gt;" style="whiteSpace=wrap;html=1;fillColor=#eeeeee;strokeColor=#A6A6A6;gradientDirection=west;align=left;spacingLeft=16;strokeWidth=1;fontFamily=Courier New;" vertex="1" parent="1">
          <mxGeometry x="10" y="430" width="710" height="100" as="geometry" />
        </mxCell>
        <mxCell id="fX9lzDfU46Up3KjZkPzS-4" value="&lt;div style=&quot;&quot; title=&quot;Page 2&quot; class=&quot;page&quot;&gt;&lt;div class=&quot;layoutArea&quot;&gt;&lt;div class=&quot;column&quot;&gt;&lt;div title=&quot;Page 2&quot; class=&quot;page&quot;&gt;&lt;div class=&quot;layoutArea&quot;&gt;&lt;div class=&quot;column&quot;&gt;&lt;div title=&quot;Page 2&quot; class=&quot;page&quot;&gt;&lt;div class=&quot;layoutArea&quot;&gt;&lt;div class=&quot;column&quot;&gt;&lt;div class=&quot;column&quot;&gt;&lt;div class=&quot;column&quot;&gt;SELECT * FROM `bestellung`&lt;/div&gt;&lt;div class=&quot;column&quot;&gt;WHERE bestellung.kid = 6&lt;/div&gt;&lt;div class=&quot;column&quot;&gt;AND bestellung.bestelldatum &amp;gt;= &quot;2007-11-21&quot;&lt;/div&gt;&lt;div class=&quot;column&quot;&gt;AND bestellung.bestelldatum &amp;lt;= &quot;2007-11-23&quot;;&lt;/div&gt;&lt;/div&gt;&lt;/div&gt;&lt;/div&gt;&lt;/div&gt;&lt;/div&gt;&lt;/div&gt;&lt;/div&gt;&lt;/div&gt;&lt;/div&gt;&lt;/div&gt;" style="whiteSpace=wrap;html=1;fillColor=#d5e8d4;strokeColor=#82b366;gradientDirection=west;align=left;spacingLeft=16;strokeWidth=1;fontFamily=Courier New;" vertex="1" parent="1">
          <mxGeometry x="10" y="130" width="710" height="140" as="geometry" />
        </mxCell>
        <mxCell id="fX9lzDfU46Up3KjZkPzS-6" value="&lt;div style=&quot;&quot; title=&quot;Page 2&quot; class=&quot;page&quot;&gt;&lt;div class=&quot;layoutArea&quot;&gt;&lt;div class=&quot;column&quot;&gt;&lt;div title=&quot;Page 2&quot; class=&quot;page&quot;&gt;&lt;div class=&quot;layoutArea&quot;&gt;&lt;div class=&quot;column&quot;&gt;&lt;div title=&quot;Page 2&quot; class=&quot;page&quot;&gt;&lt;div class=&quot;layoutArea&quot;&gt;&lt;div class=&quot;column&quot;&gt;&lt;div class=&quot;column&quot;&gt;SELECT bestellung.*, bestellposition.*, artikel.bezeichnung&lt;/div&gt;&lt;div class=&quot;column&quot;&gt;FROM `bestellung`&lt;/div&gt;&lt;div class=&quot;column&quot;&gt;INNER JOIN bestellposition ON bestellung.bnr = bestellposition.bnr&lt;/div&gt;&lt;div class=&quot;column&quot;&gt;INNER JOIN artikel ON artikel.anr = bestellposition.anr&lt;/div&gt;&lt;div class=&quot;column&quot;&gt;WHERE bestellung.bestelldatum = &quot;2007-11-20&quot;&lt;/div&gt;&lt;div class=&quot;column&quot;&gt;ORDER BY bestellung.bnr, bestellposition.pos;&lt;/div&gt;&lt;/div&gt;&lt;/div&gt;&lt;/div&gt;&lt;/div&gt;&lt;/div&gt;&lt;/div&gt;&lt;/div&gt;&lt;/div&gt;&lt;/div&gt;" style="whiteSpace=wrap;html=1;fillColor=#d5e8d4;strokeColor=#82b366;gradientDirection=west;align=left;spacingLeft=16;strokeWidth=1;fontFamily=Courier New;" vertex="1" parent="1">
          <mxGeometry y="770" width="710" height="140" as="geometry" />
        </mxCell>
        <mxCell id="fX9lzDfU46Up3KjZkPzS-7" value="" style="shape=image;verticalLabelPosition=bottom;labelBackgroundColor=default;verticalAlign=top;aspect=fixed;imageAspect=0;image=data:image/png,iVBORw0KGgoAAAANSUhEUgAABEIAAAEaCAYAAAAVJ/JEAAAMP2lDQ1BJQ0MgUHJvZmlsZQAASImVVwdYU8kWnluSkEBoAQSkhN4EkRpASggt9I4gKiEJEEqMgaBiL4sKrl1UwIauiih2mh2xswj2viiioKyLBbvyJgV03Ve+N983d/77z5n/nDkztwwAaqc4IlEuqg5AnrBAHBvsTx+XnEInPQXKQAUAYAhGcrj5ImZ0dDi8A0Pt38u7mwCRttfspVr/7P+vRYPHz+cCgERDnM7L5+ZBfBgAvJIrEhcAQJTyZlMLRFIMK9ASwwAhXizFmXJcKcXpcrxfZhMfy4K4BQAlFQ5HnAmAajvk6YXcTKih2g+xo5AnEAKgRofYJy9vMg/iNIitoY0IYqk+I/0Hncy/aaYPa3I4mcNYPhdZUQoQ5ItyOdP/z3T875KXKxnyYQmrSpY4JFY6Z5i32zmTw6QYrhzSJ0yPjIJYE+IPAp7MHmKUkiUJSZDbowbcfBbMGdCB2JHHCQiD2ADiIGFuZLiCT88QBLEhhjsEnSYoYMdDrAvxYn5+YJzCZot4cqzCF1qXIWYxFfwFjljmV+rroSQnganQf53FZyv0MdWirPgkiCkQmxcKEiMhVoXYIT8nLkxhM7YoixU5ZCOWxErjN4c4li8M9pfrY4UZ4qBYhX1JXv7QfLEtWQJ2pAIfLMiKD5HnB2vhcmTxw7lg7XwhM2FIh58/LnxoLjx+QKB87lgPX5gQp9D5ICrwj5WPxSmi3GiFPW7Kzw2W8qYQu+QXxinG4okFcEPK9fEMUUF0vDxOvCibExotjwdfAcIBCwQAOpDAmg4mg2wgaOur74N38p4gwAFikAn4wF7BDI1IkvUI4TUOFIE/IeKD/OFx/rJePiiE/NdhVn61Bxmy3kLZiBzwFOI8EAZy4b1ENko47C0RPIGM4B/eObByYby5sEr7/z0/xH5nmJAJVzCSIY90tSFLYiAxgBhCDCLa4Pq4D+6Fh8OrH6xOOAP3GJrHd3vCU0IH4THhBqGTcGeSYL74pygjQCfUD1LkIv3HXOCWUNMV98e9oTpUxnVwfWCPu0A/TNwXenaFLEsRtzQr9J+0/zaDH1ZDYUd2JKPkEWQ/svXPI1VtVV2HVaS5/jE/8ljTh/PNGu752T/rh+zzYBv2syW2GDuEncdOYxexY1g9oGMnsQasFTsuxcO764lsdw15i5XFkwN1BP/wN7Sy0kzmO9Y49jp+kfcV8KdJ39GANVk0XSzIzCqgM+EXgU9nC7kOo+hOjk5OAEi/L/LX15sY2XcD0Wn9zi34AwDvk4ODg0e/c6EnATjgDh//xu+cNQN+OpQBuNDIlYgL5RwuvRDgW0INPml6wAiYAWs4HyfgBryAHwgEoSAKxINkMBFGnwX3uRhMBTPBPFAMSsEKsBaUg81gG9gF9oKDoB4cA6fBOXAZtIMb4B7cPd3gBegH78BnBEFICBWhIXqIMWKB2CFOCAPxQQKRcCQWSUbSkExEiEiQmcgCpBRZhZQjW5Fq5ADSiJxGLiIdyB3kEdKLvEY+oRiqgmqhhqglOhploEw0DI1HJ6CZ6BS0CF2ILkPXo1XoHrQOPY1eRm+gnegLdAADmDKmg5lg9hgDY2FRWAqWgYmx2VgJVoZVYbVYE1zna1gn1od9xIk4Dafj9nAHh+AJOBefgs/Gl+Ll+C68Dm/Br+GP8H78G4FKMCDYETwJbMI4QiZhKqGYUEbYQThCOAufpW7COyKRqEO0IrrDZzGZmE2cQVxK3EjcRzxF7CB2EQdIJJIeyY7kTYoicUgFpGLSBtIe0knSVVI36YOSspKxkpNSkFKKklBpvlKZ0m6lE0pXlZ4pfSarky3InuQoMo88nbycvJ3cRL5C7iZ/pmhQrCjelHhKNmUeZT2llnKWcp/yRllZ2VTZQzlGWaA8V3m98n7lC8qPlD+qaKrYqrBUUlUkKstUdqqcUrmj8oZKpVpS/agp1ALqMmo19Qz1IfWDKk3VQZWtylOdo1qhWqd6VfWlGlnNQo2pNlGtSK1M7ZDaFbU+dbK6pTpLnaM+W71CvVH9lvqABk1jjEaURp7GUo3dGhc1ejRJmpaagZo8zYWa2zTPaHbRMJoZjUXj0hbQttPO0rq1iFpWWmytbK1Srb1abVr92praLtqJ2tO0K7SPa3fqYDqWOmydXJ3lOgd1bup8GmE4gjmCP2LJiNoRV0e81x2p66fL1y3R3ad7Q/eTHl0vUC9Hb6Vevd4DfVzfVj9Gf6r+Jv2z+n0jtUZ6jeSOLBl5cORdA9TA1iDWYIbBNoNWgwFDI8NgQ5HhBsMzhn1GOkZ+RtlGa4xOGPUa04x9jAXGa4xPGj+na9OZ9Fz6enoLvd/EwCTERGKy1aTN5LOplWmC6XzTfaYPzChmDLMMszVmzWb95sbmEeYzzWvM71qQLRgWWRbrLM5bvLe0skyyXGRZb9ljpWvFtiqyqrG6b0219rWeYl1lfd2GaMOwybHZaNNui9q62mbZVthesUPt3OwEdhvtOkYRRnmMEo6qGnXLXsWeaV9oX2P/yEHHIdxhvkO9w8vR5qNTRq8cfX70N0dXx1zH7Y73xmiOCR0zf0zTmNdOtk5cpwqn685U5yDnOc4Nzq9c7Fz4LptcbrvSXCNcF7k2u351c3cTu9W69bqbu6e5V7rfYmgxohlLGRc8CB7+HnM8jnl89HTzLPA86PmXl71Xjtdur56xVmP5Y7eP7fI29eZ4b/Xu9KH7pPls8en0NfHl+Fb5PvYz8+P57fB7xrRhZjP3MF/6O/qL/Y/4v2d5smaxTgVgAcEBJQFtgZqBCYHlgQ+DTIMyg2qC+oNdg2cEnwohhISFrAy5xTZkc9nV7P5Q99BZoS1hKmFxYeVhj8Ntw8XhTRFoRGjE6oj7kRaRwsj6KBDFjlod9SDaKnpK9NEYYkx0TEXM09gxsTNjz8fR4ibF7Y57F+8fvzz+XoJ1giShOVEtMTWxOvF9UkDSqqTOcaPHzRp3OVk/WZDckEJKSUzZkTIwPnD82vHdqa6pxak3J1hNmDbh4kT9ibkTj09Sm8SZdCiNkJaUtjvtCyeKU8UZSGenV6b3c1ncddwXPD/eGl4v35u/iv8swztjVUZPpnfm6szeLN+ssqw+AUtQLniVHZK9Oft9TlTOzpzB3KTcfXlKeWl5jUJNYY6wZbLR5GmTO0R2omJR5xTPKWun9IvDxDvykfwJ+Q0FWvBHvlViLflF8qjQp7Ci8MPUxKmHpmlME05rnW47fcn0Z0VBRb/NwGdwZzTPNJk5b+ajWcxZW2cjs9NnN88xm7NwTvfc4Lm75lHm5cz7fb7j/FXz3y5IWtC00HDh3IVdvwT/UlOsWiwuvrXIa9HmxfhiweK2Jc5LNiz5VsIruVTqWFpW+mUpd+mlX8f8uv7XwWUZy9qWuy3ftIK4Qrji5krflbtWaawqWtW1OmJ13Rr6mpI1b9dOWnuxzKVs8zrKOsm6zvXh6xs2mG9YseFLeVb5jQr/in2VBpVLKt9v5G28uslvU+1mw82lmz9tEWy5vTV4a12VZVXZNuK2wm1PtyduP/8b47fqHfo7Snd83Snc2bkrdldLtXt19W6D3ctr0BpJTe+e1D3tewP2NtTa127dp7OvdD/YL9n//EDagZsHww42H2Icqj1scbjyCO1ISR1SN72uvz6rvrMhuaGjMbSxucmr6chRh6M7j5kcqziufXz5CcqJhScGTxadHDglOtV3OvN0V/Ok5ntnxp253hLT0nY27OyFc0Hnzpxnnj95wfvCsYueFxsvMS7VX3a7XNfq2nrkd9ffj7S5tdVdcb/S0O7R3tQxtuPEVd+rp68FXDt3nX398o3IGx03E27evpV6q/M273bPndw7r+4W3v18b+59wv2SB+oPyh4aPKz6w+aPfZ1unccfBTxqfRz3+F4Xt+vFk/wnX7oXPqU+LXtm/Ky6x6nnWG9Qb/vz8c+7X4hefO4r/lPjz8qX1i8P/+X3V2v/uP7uV+JXg6+XvtF7s/Oty9vmgeiBh+/y3n1+X/JB78Ouj4yP5z8lfXr2eeoX0pf1X22+Nn0L+3Z/MG9wUMQRc2S/AhisaEYGAK93AkBNBoAGz2eU8fLzn6wg8jOrDIH/hOVnRFlxA6AW/r/H9MG/m1sA7N8Oj19QXy0VgGgqAPEeAHV2Hq5DZzXZuVJaiPAcsCXya3peOvg3RX7m/CHun1sgVXUBP7f/AiyufFX0rHbMAAAAimVYSWZNTQAqAAAACAAEARoABQAAAAEAAAA+ARsABQAAAAEAAABGASgAAwAAAAEAAgAAh2kABAAAAAEAAABOAAAAAAAAAJAAAAABAAAAkAAAAAEAA5KGAAcAAAASAAAAeKACAAQAAAABAAAEQqADAAQAAAABAAABGgAAAABBU0NJSQAAAFNjcmVlbnNob3Qok809AAAACXBIWXMAABYlAAAWJQFJUiTwAAAB12lUWHRYTUw6Y29tLmFkb2JlLnhtcAAAAAAAPHg6eG1wbWV0YSB4bWxuczp4PSJhZG9iZTpuczptZXRhLyIgeDp4bXB0az0iWE1QIENvcmUgNi4wLjAiPgogICA8cmRmOlJERiB4bWxuczpyZGY9Imh0dHA6Ly93d3cudzMub3JnLzE5OTkvMDIvMjItcmRmLXN5bnRheC1ucyMiPgogICAgICA8cmRmOkRlc2NyaXB0aW9uIHJkZjphYm91dD0iIgogICAgICAgICAgICB4bWxuczpleGlmPSJodHRwOi8vbnMuYWRvYmUuY29tL2V4aWYvMS4wLyI+CiAgICAgICAgIDxleGlmOlBpeGVsWURpbWVuc2lvbj4yODI8L2V4aWY6UGl4ZWxZRGltZW5zaW9uPgogICAgICAgICA8ZXhpZjpQaXhlbFhEaW1lbnNpb24+MTA5MDwvZXhpZjpQaXhlbFhEaW1lbnNpb24+CiAgICAgICAgIDxleGlmOlVzZXJDb21tZW50PlNjcmVlbnNob3Q8L2V4aWY6VXNlckNvbW1lbnQ+CiAgICAgIDwvcmRmOkRlc2NyaXB0aW9uPgogICA8L3JkZjpSREY+CjwveDp4bXBtZXRhPgpszSoIAAAAHGlET1QAAAACAAAAAAAAAI0AAAAoAAAAjQAAAI0AALLHnqDX/QAAQABJREFUeAHsXQdgVMXWPukJ6fQWCF2ko6jYsaHYBaRZUBF7FxV/FQv2p2L3iQVFFFSsWLHhExslSBMIIfQOIb0n/3fm7ty9u0m2JptNckbJ3d3bZr450745JWTDxk2VRCFEVEkh+FQZGoJjJaUtX4rfqqbRo0dX/VF+EQQEAUFAEBAEBAFBQBAQBAQBQUAQEAQEAUGgASAQkq6IEDAgNjIEdAj+YyJkWbXZFyKkWljkR0FAEBAEBAFBQBAQBAQBQUAQEAQEAUFAEGgACNiIENYHsVEgrB8C1RAhQhpA7UkWBQFBQBAQBAQBQUAQEAQEAUFAEBAEBAFBwCsEQjZkZFSGVLJpDPRAYBKjFEPwdcUyMY3xCkm5WBAQBAQBQUAQEAQEAUFAEBAEBAFBQBAQBIIeAVMjhHVCrOYxK8RHSNBXnmRQEBAEBAFBQBAQBAQBQUAQEAQEAUFAEBAEvEMgJD1jk6EIAh4EqiFKIYQJEXGW6h2QcrUgIAgIAoKAICAICAKCgCAgCAgCgoAgIAgEPwKGRogRNAamMchwqJFpMY0J/sqTHAoCgoAgIAgIAoKAICAICAKCgCAgCAgCgoB3CIQY4XN1rBjjZg6jm5YmPkK8g1KuFgQEAUFAEBAEBAFBQBAQBAQBQUAQEAQEgWBHAERIJlylcswYgwwx4seE0orlS6rNu4TPrRYW+VEQEAQEAUFAEBAEBAFBQBAQBAQBQUAQEAQaAAIhG9I3VYaEggqpUHFjlJ8Q/iTOUhtA7UkWBQFBQBAQBAQBQUAQEAQEAUFAEBAEBAFBwCsE4Cw1A85SQyiE7WGUbgg+QztEnKV6haNcLAgIAoKAICAICAKCgCAgCAgCgoAgIAgIAg0AATN8LvtJ1Yl9pwoRotGQoyAgCAgCgoAgIAgIAoKAICAICAKCgCAgCDQWBBQRAkUQCoFpDEErRLtNTVu+rNoyio+QamGRHwUBQUAQEAQEAUFAEBAEBAFBQBAQBAQBQaABIBCyIQM+QtgqBpk1ougyK1JJEj63AdSeZFEQEAQEAUFAEBAEBAFBQBAQBAQBQUAQEAS8QiAkPT0TSiBKHQQ3GhohzIqskPC5XgEpFwsCgoAgIAgIAoKAICAICAKCgCAgCAgCgkDwI4DwuTaNEFYEQX4NzRB2liqmMcFffZJDQUAQEAQEAUFAEBAEBAFBQBAQBAQBQUAQ8AYBRI3ZhKgxIEGYBYFiCNvJhFAoiJAl1T5HfIRUC4v8KAgIAoKAICAICAKCgCAgCAgCgoAgIAgIAg0AAThLzWDmg1QIXZujEHaeKj5CGkDtSRYFAUFAEBAEBAFBQBAQBAQBQUAQEAQEAUHAKwRCNsI0RjEhUAfhYwgbx+D/tDQxjfEKSblYEBAEBAFBQBAQBAQBQUAQEAQEAUFAEBAEgh4BI3yuLZvKRwj+cBSZtOVLq828mMZUC4v8KAgIAoKAICAICAKCgCAgCAgCgoAgIAgIAg0AAcNZqoqfyzQIJyNyzAohQgw45K8gIAgIAoKAICAICAKCgCAgCAgCgoAgIAg0GgSgEYLwuYr8sEWNwTf2GSJESKOpYymIICAICAKCgCAgCAgCgoAgIAgIAoKAICAI2BBwMI1hm5gQeEplLsQXIqQCUWdCQnGzjUyRI7BQ9kZyFBykXUh/IP1AsPcDKnoaqknGMt9k1dQrlTmA27G/orKCwkJ5woQpk+DlFq9g7zskfyzI+FcLc17pR2oHx9qqD3mO1EdttGtv5Uj3A8UlpagA31NUZITLmxURwpmr5PGYiQz15kr4CPHeWWpFBbtbxcP4ITomrxwFD5EHaQ/SD0g/0AD6gRBjAAQRImOZL2N4iLmw50mFzAVczYXKwbaFh4WpCVolYyV4SR/ZAPrIQMip9COyhgqEnLnqn+X99T9+636gzomQDYgaY+iA8F8UXNE+vmmElJdViEYIE0kaRjka4iQ4CA7SLqRfaAD9QGiYsUMvY5ltKuBlnYXaiJCKct5VkbHQ1VyA4/RpIkTw8k3eXOEr8tdw25/0I9IepP023PZbW/2y7gfqnAhJz0D4XFAhigbBjgTviPHcxxfTmLKycjX5kfmPrHm8nD/XVruR58j4KeOnjJ8+9wNhth16Gct8G8P0wr68vNznOmgqY0cF5lsR4eForUSCl2/yJnPNxomb9CONs16lvUq9ejO+636g7omQjRlMfygNITVzYUoEtqsr0rw3jSktK0Mt42mheAarFstRcBA5kHYg/YD0Aw2kHwgPMxamMpb5NoZHRBi2uGXlZSLzbmSeza8iBS+REzdy0hTn0tKP+Nb/yppLcGtM/YXuBwJAhGxigsbgQPgDPrF+SJoP4XNLSspAqHjD9wg/KPygyIvokEs/IP1AcPQDEREGESJjmW9tUk9cSkuxKSI6IcCgZhzZFFkTIYJXzTiJHAVH3xjIepB+RNpDIOXNVT8t+ai//kf3A3VOhGzIyKjkSDFGwtAM05gQaHX44iy1uLiEsPkr0x+X0x/Bp/6alXR3MrxK+5P2V3M/EBkZqYZCGctqxshVHxJhw6+kpMQFBSBtkNsgJy1vgpdv8iZ9WePETfqRxlmv0l6lXl3NH5zlQ/cDdU6EpMNZqhqR8Zd1QSgEDk/xny8aITx55BC8kgQBQUAQEAQEgYaGQFRklMqyjGW+1ZyJX0mxbw9oUneFUJQm3gSvJlXzUljXCEg/4hofOSsINAUE7P1AnYfPhY8QpQVi7NIocMFlrEhbWi3Oo0ePrvZ3/rGoqBgUChMh3nA+cr3gJfIie6TSD0g/UP/9QFS0QYTIWOZbXURFR6v5QTHmAtKnuenTAHFUlI14E7xEXmTubK4dpB/xrf+VOYTg1pjGXbMfKKlzIsSmEaKmL2y1ajON8cFZamFhkS0sM57C0WfYcaocBQeRA2kH0g9IP9AA+oGYmBg1EspY5tvYHW0jQgoLC6XPc9fnIdRwtI0IEbx8kzeZYzZO3KQfaZz1Ku1V6tUbTkD3A3VuGrNBmcYYLBpbtVTCyYfhI8R7jRAezA1Smx+EZ6oHylFwEHmQ9iD9gPQDwd8PxMQ0sxEhMpb50mfFNNNEUoHMAdzMgUJCwijapoFUWCh4+SJv0qcGf5/qS71KP9I461Xaq9SrN/2B7gfqnAgxfISgcmzmLOCr8J9vzlLz83kXCFoleBw2Q4LyGMreXFFCPtZHPpkp4rB5fKyP9wdrvUi+grO9SL1IvTSlfio21iBCGsJYFoxts1kzjV9B0M4BggW30LBQirFp0OTnC17BUi+Sj/of86QfCd41lLSP+m8fTWVOpvuBABEhqFj8pygQRWL4SoRgV0NpgZi8CnMO/PCgOfLkIzwsnPhYH/mqqKygMoQW5GN9vD/Y6kPyE1ztQ+pD6qMp90uxsbEQACJemAb7WBaMbTW2mcYvP2jG/GDEidtYCOYgzaINDZr8fMErWOtJ8hX4MVH6EWAeZGsnyU/g20FTnouxvOl+oM6JEHv4XMOnhxJ2ZGDFMu9NY/Jy8ykktIIqK0CphIJaCaJjaBiEmEKppLSCcnJLqLi4nH8IeIqKCqOEuEg4SQulinKeDQUnXsFWf5Kf4GpPUh9SH8HUv9eWPMbFx6kxIZjHstoqa108JzY23oZfXtDNAeqivP60gdBwECE2U6y8XMEr2OpH8lNfYxwWQLG6H5Z2IXJYX3Io7/VnfKsNudXziTonQszwuRbqiXVDViz3ngjJxWBuqDkEnF9w+8KwsDAKDw+nXXvz6O9lW2n7rmy399TFBR3bJdJRR3Sidq3jqKysjMrL64eQqYuyyTMFAUFAEGjICMTHGwv5YB7LghlfO365wZzNoMhbKHZntClWbq7gFRSVIpkICgSkHwmKapBMCAL1ioDuB+qeCMnYxI58bT5smALhFEJpPhAhOTkgQqDh4I0zlEA5zwkPD1Oh6jZtPkgLFq6l9Ix99VLBPbq1onNOP5y6pjaHVkoxlZWXBSVegaoXeQ8anxunenIevZI4XhY5CUA7SUgwiJBgHsuCuS0kxCeocTUnBwt7abMu2yxvzmgiRPCSPl7aizEXYj+D8dKPSP8p44fL8aMp9Bd6PlH3RAhHjWH2g/sg/IP1iEq+mMZkZ+cYN1u0S9Ca8Rs/uH6P4eERIEIiKXNLVlAQIV06MxFSBK0Q1gipf3zqu37k/fXbPgR/wV/6oUpKTExUY1gwj2XB3FYTEw0iJDubNS6lTblqU2FhERQXZziXFbxkDiTtxd5fSD8i7UHag709uBpHGjNOuh+ocyLECJ9rc5SqpoCAFW0wLc170xgezGFVFZTTn1DsvkRFRtKuPTCNWb7Na9OYwsJSOpCVT3zkFBMTQS2SY9XRBptHB2UaMziF2raJo9KSEmiElAclXtINN+bupal2q1LuhtSuczCebNm6lfhYm/lOAtmR0qkT8dH5uYmJSaofD+axzDnPwfQ9ycTvUBVsgymfwTDFNIgQw7lsdrbgJfIhcw7dLqUfkbmK9AfSH+h+IABESCYUjpm+MMgQbn6VUAtZsXxJtQv70aNHV/s7/5iVlY1FPd8ffBUYiphPIaGh0MCopNz8UiopgQmPF2nbzkP059IttB1HTh3bJ9ExR3amFBy9SZGRoRQXG0GR4SFUXsFmRMGJlx6Q5CgDUjC2Z5HLxi+XK1etorkffEB8rM367tuvH40fN4746Pzc5GSjPw/mscw5z8H0PcnE71AVbGsrnyUlZXQwF+FmMfBy35TQLApOR6PM7/r3YD+yz7J4m3PerKy6wyvYcfA1f2zTrcy6bXIQFsqzT2PuWY4TSrPe9j0E53x9j9wX+LHGm37ElRxoeZBj8K3JpF0Fvl01tHag+4G6J0LSN1XyIMHRXBWJwaMHPvniLJUHc2NkwjN8tOcOAQkTGoYmgvsrKstVvmrTFiosNJyioiMpDCF0PUkhIFBCQaBs3LTfwaRG+/ro3rUlVYDQUI5WPHhgOUxhikuKqLyMAfcdJ2d86xo35/fJd8hoLdaf4Cl4ijw59oerVq+kDz6YS4sX/0Zbt24DeV1CycnJ0MIzQo560N2qSwoLC0HSZ1EkNAI7pXSi444/jsaNHUf9+vetMk4lJzdX93gylr304SL64td/zGw8NPlcGtq/S5VnNqW2ndw82YbfQbc4zP1+Gc359i8Tv7suPYNOGNTd7X1f/LqKXpj3k3nfyGGD6LpRJ7q9T9dDSUk5nXvHy2qqwg9JiIumj5+Y7PH9+jn+HsPDIik+wYiOkZXlGq9shHMePXUm8mgUu3tKK3rlrvFNegyacP9btOeg4WQWowd9PeMmioiAbTfmjhMeeNPx3PM3UgTP+TwYs4NFPvyVr4Z8vzf9iCs58KS+GzJOUj7HOYMVD2nHDX9OrfuBOidC0jMysIYHW24bILSRjC/OUnnyWMmMih+JHYhFRUWpJ7Az0dqOqqKJDT56knjXhvPj7GRVEyGm01NEgPEkMWHiDXHiyTP5mrrGzdN8yHWCgCAgCNQGAmyeshWmMYsXLwYh8gEdPHiQhgwZQh06dPDq8Tt27KAlS5ZQ8+bNaRw0QY477jjqBNMY7Q/E+jC+hpMnY9mLH/7iQIQ8OPkcOq5/N+vjmtxnjR/Xlbs0+5u/6N2v/jQvmzrxTDrlyF7m95o+fLV4Nc344Efz9KhTj6BrLjze/O7uQ3FpGZ1z28vmZfHQKPnkqWvN74H6wH7LtHNed3gdggaMIkJsmevaoSX9d+qEQGXV5/dMfuw9KiwyzInjY6PplbvH+fws5xt5Abw3yx5t56vnbqDICGODy9U55+c4f69L+ahLPJzL0ZC/e9OP+FPXrjD69o81NOebv81LLj93KJ025DDzu68fRAZ8Rc67++qyHXuXE7naVwR0P1D3RAg7S0WybTSo/DJF4AsRcvBgFhb5oFJAqmhyxdMje2kNDw+lEoyZ+QUGqRAXi5C30A6pqCjHP5D5PjzX0/fXdB1PVpo1i6HNWw9VqxGS2ikZfkMKsFtZVi/5C1bcasJTfjdIR8FBcKiP/qwhyt2aNauUZsjmzZnUpk0batWqlUeaIVoTZN++fbR79x7q0iWVxrImSL++NY5PLVq0UGOgJ2PZa58upk9+Wqau5z+PXn8hDemdUuOzGyL23spoy5YGkXTgwAG3OMz7IY3e/Px/Jn73TzqXThjQxe193/21np557zvzvjFnHEVXnXuM2/s0/qyMOeKWF8z7E7BAn//kNQGfY4SHR4KMM6IUucMrv7iELpryqpnnHp3a0Et3jq2XOYfG0ZPj+Xe+TEWYG3GKb8Y4T/a4nlw9H0q6dMm0t2nPgRwTk2+ev5nClLP/ULr0QWiLOJy7iUJDQj3Cqy7lo67w8LadBvv1nvYjruTAlfx4Uv6PfkyjmZ/Z+6frR51MF5zU32/5Pe+OV9EmbOQg2sTHT1zjkVz6W56mdn9dtmNP5Kep4V0X5dX9QECIEGXFwoocTDTALIZNZNKW2yd45kiDD658hBw4cBCdhG8aIVrzYs++Avo7bZt65VGDUqhNq2ZGmFkPNS6sea2NzxERTIQ0c0GEJFFBQQGVlhodW22805tnBCtu3pRBrhUEBAFBoCYEWDNk27ZttHz5cvruu++oqKhIaYa0b9++plvU7zt37lSaINHR0TR8+HAaPHgwpaSkVKsJoh/UsmVL9dGTsey/n/1ehQg58rCO+lFN8qjx279/v9vyf/jjCici5Bw6nk2L3KTt+3Ppz1WZ5lV9urWn3p2MejN/dPGhHLs+I2550bzCToT4NncxH+Tlh4gIJkKMKDvu8MqHVsVFd71mvsEgQi42vwfjBzYpPu+OV6iw2JgbJcbF0EePX405onXbzbecs0bvpQ/Oqobs4A2zms958ra6ko+6xMOTcjWkazztR/yta1eYfPHbGnr5w5/MS24dfxqddUxv87svH0QGfEHNt3vqqh37lhu5yxcEdD9Q50TIhgz4CMG4xEMTa4IwEcKEiC/hc/fvZztX+PWwkSmeHOGeBD5BwpUT0/zCCtq05aBySspRWc45/XBK7ZRE+bCPLSst8eq5yt+JF/mo6XpWtWwWG+uSCAmm/HFUG3bi2rVzMsXGhBFripaVY4IHgsqT+qgJB/ndThIKjgZZKjgIDoHsF1atXkPz5n5AmZs3U9u2bWvUDHHUBNlNqald4BNkDPXpy85RXbfjVq2MBbUnY9nrn1clQo7o1REajUX0T8ZOyoE5Q9eOralbh+bKJ5Xzu0uwK5idX2zmKTk+GlqR4bR19wFav2Uv5eI5rZvHU/eOrahti0TzOv2cvQez4XCbx+1KFRGteUIMdhrLafn6LbRrfw4d3aczdWjdvMp9+v66OLaEtg6nffv2u33vRz9VJUKO69fFvK8EmwtcHms+2SlqVFQ05RcbWgb8rpjIcKooK3G4TvdNuw7kUvrW3XCuWki9U9sAyzZqojPi1pf4VpWYCOFd2Uponur7AnGMjIwwSTl3eOUVldHIu52IkDtGw49aCG3euY/Wbt5NLRJjqUdKG2qZ2MxlOQqLimnTzgOUuXO/0tboAfliYiU2OsLlfcXw0bMmczft2neI9mfnUyJwa5EUT/26taOk+FgH/HkREgZC4vwpr5m734zzvEevVnMRdlxvrVfG25t8wfM9XfaQExEy40ZFgvCc8tKH3nEgSdh/SJhlo0/Xrz/yUV5eRjv25dD2vVm0G9onzaIQSRB4HA45i8VOv7V8nuKxE88JAVHE+WNt6FbJCQ7PKcWD9mflmPUUFRVJzeNjzO9cL5XQyub7o+CYPyG2GeUXFtHKjTtxXy51bteS+nRt49Afsfn5xu37aeO2PSr/h3VqTUkJjvWp8QrIEfXUsqVn/YgrObDiz/n2Rr64X13w+xp65aOfdTdBt4w7jYYfdRg0izCnhoo64+kpHi2T46GthPlCSBhdAM0urRHCbeLDRyehHaO9sHsb5FPnG4wh7difjfa9n7buyaI2GAt6op12bAWH3mhb+rraPJai4Ny+t+09pGQ6BvLVKimWDkttB42uSIf8Ob/XG3y5nIdy8onlmZ8THh5GyZDjotJyWrF+K+1CO4jC4qU9ytq3a1sHeXV+L3/3px17i3NBYTHG7SIT/9aIHso+J7kfXr91r5KX4cf0UfOAnALH8T0abhas+edxqRjafrreW6K9R6Dd83d/5wfW9+zEfGD9lt10KK+QOrVJpt5d2qn+as/BPGVxwe+LjAjDGBLnkD+dr/o66vlEnRMh6emZKCNaPYrPzZALjD+0wofwubyrUY4WHYqOjAdoT46hYdC4wORGaYIgrO3GzAMqTC1HZWEipDOIkIL8PDgYLfPoeZ6+19PrWH01Lq5mIiTY8sdRbTisb/cuLegohOlt3TIWDa0QJkfl9YKfpzjLdZ61F8FJcPKkX22McpKbcwg+Q7YjtPty+v7772vUDLFqgpx+xhl0xOBB1LEjwuUmJbgdl1q1aq0mMp6MZa9//qeDRsj/XXk2/fDXGvp77RaHXW+e0N06bhidNLiXQx/86S8r6b+f2lWvb8eOYxomgT8v26DyoP/wrudpQ3rRtSNPwmIVi37b2HrmLXY/F/2gFXHZ2cfQE+98RwewGOI09fLheGd383p9X10e27TWC5i9bt/74U8r6S0H0xj4WOnXWd2XBy3LW5+dTzuxENCJfXm8eOfFIHp2ODpLPWUwXX3+UIf3ZeXk0cNvfoPJ3x59uzryZHva1efi2R+avxtEyNXYMPBu7uIvjuERUZSclKjysW+fa7wKMVkeeffrZp6ZuBh7+hH0/NyfKAeTcmsa1DOFpk48g+Jg0mvtK8orQujL/62gt774g0rgtN2aePY3+LBOdO/E4RQTHeVwH5fzxyX/0ttf/kEHcwqst6nP4VjBHT+gG90wehgWSxGqHiaCiLD673C+6fWp46hjmxbqPb7kixeNlz30rgPZseC5Gyk8lOewoTTxYWci5AZkwT52+Csff6/ZRM998DNlY2HhnBiPY/p2oRsvPpmS4IiX8fMEj2Q4zrX6gWkGp/6fPHm1g1yv3bSD7nzhU/OVg3ul0PTrzlc4lsAWgM0udOoJQmP0qYPhT+cnyi8q0T9TNIjDMZCdMacPoZ+XrqPn5/2s5of6gggsSq8feSINH9qnihxY5clf+a/pfl6DtDYJVdftwpUc6Od7K1/f/bWOnnvf7oNI46KPJwzsTued0JemvPiZ/snt8bHrzqMZc3922SZeu2c8pbZLVvW958Ahevq9H2lt5q4qz46LiaSbxwyj4wf2qNX6+X3VZtWf1CTTR0OmbxlzEvqVZg7v9RZfXS+j7plJeYWGXLZvmajK9OS731MWNhCsqW3zBPQtJ9IRvVMd3svP8bcd+4Lz7G+WwMm33XfMY2h/Py9bTwv/XqeynQKiYea94+nVT36jzxfZnalffcHxNHLYAIf2fO/Ln9KK9B1mcZ+9daQinbid+Ts/YHz2H8qhaa9/BdL7gPkO/tASpPmdcE5+36ufGxvl+K1j6yR64/8mOOQvEO1dy0N1Rz2fqHMiZAN8hABzw3EywMBHdEO+mcbs3cvqsBxBRRGWLo+hYEdDQ8PUjlaB0gTJcghPq52RdoFmQyEY7bIy/0xPWB2zTA3+GCg9yB/mnuo63rWJjY2jLdtq8hGSRHl5eco0xpvn6vLz0Z/Epjus+p25JcvBh4kO78uaIc2i2f8KWGwfyq9xkKMhD4KD4OBNOxd5qX15Wb16Nc2bN482O2mGcD/K0WEMnyC7qXNn9gkCTZA+fXkDzaN+v00bgwjxZCx7AwvDT35a7nH3fTmIijGnHWHmZcFvq+mV+YvM+3nhU2BZsJgnbB9GHNuHbhx9srqfR+mzLFoNPInhCWwudqB0mnb1OXT04Z3N93mKgT/XtW5t4Ldnz1637/34l39AhPyms0v3TzqHhkKLpRTj1D0vf0b/QstBJ168PXPbxdStfQv6+vfVIEJ+1qdo5CmD4CPkWPN92/YcVPdnYbetusTEFDvS00ntyj7GJhuezV38wcfad7AT9iQbEeIOrzxoeo6eaidCOO+8w8wbT9Ul3j1+5paR1Jx39iH77GPtwTcW0BKQdK5SarsWNP3ac837OL/f/rnWAe+a7mcybvq156mdRSYp9lkcmTrf8yqcpqa2a+5zvlj+Jz7iSISws1QUFfPKELr8YcdzC569wdhxR3n8lY8vf1tFr87/1blIVb4zlv+5+SJo5kYq0sYdHq2T42gkFoc6xaI/YFMiq7ytzdxDdzz/sb4Ei8PONP2ac1TfVgH5Ped2OxESihuZlHEmvfhmJlfPOa4vLYDj4ZpMlaZcchoNO6KXw/ut8mvNV23+zvXHfqA4uWsXruSA8+eL3P+wZD09+/4P6v3V/VFEyIkDaMoL86s7Xe1vj11/gXLw7IocfO2ecditbw7tne304MyvlLZWtQ/Djyznk+Eg+nzkozbqgSNxvfqJZzL9zC0XEWuK+Iqvzu/F974BIsQ+XjHBo4kR53Jz///yXWOpHWtGovAsb/62Y19xnrtwGb379Z9mFnuntnUYq1Lbt6RXpoyhN76AxujPaeZ114FcPPd4aKXa8s/He1/9Um1+6Iueu200Hda5tSqfP/MDxmcrxsGpGEdrGgfjoIBgxZ8JnP+CjLPmrzbbtS/P1fOJOidC0mEaowsLDgOECPOxofARskTXjcPRlY+QvZj8VOBhVpUc/lbd9zCbE1LWBFkCnyBaE4RNOzhpIoTD07LqHkda8SeVwcdIIfvywCSruvzUlM+IyCilEbJlW7YD0aDz1zklkfJBhHBFefNcXX5WhfYnsc0hR4xxDu/LpkWmZgh8rbSGrxVfyl8TLvJ79XItuAgu3vQDIi/ey0tuDqLJbDM0QxYuXGhqhnA/ytFhmBg+/fTTafAgaIIgXG5iQjyofc/e0wYmN5w8GcveWPCXV0QIL0rexI5LS6jPs4x8+3c6vTC36oTb1QLm/Ycup0SYIbAq8fCb7X4uVKad/jw4+Tw66rAOHpfdU4xcXde2bRuViz27d7t978eLVjkQIfddBSLk8BR6YvZC+t+KjWZpGLdn7xhPxw7oQVkHD9A3f66jZ+d8b54fc8YQuvzMI833PQRNkL/WbDbPu/tgqKdfpUiFQLbdSJj4JCdDzR3JHV4F8LNh1RZwVyY+r4gzhBXm+voJO//PvP+Tw2284GRSSPvw0CfZFOuF20ep+4qgiTLu/rcdFtO9u7Snnp3b0E6o0C9Zk6lvU8f7rzgTIaS70X3/XYDwtTm0A2Yj1tShtRFe+YkbLlAmHb7mC1mnidPfc9AI+fKZ65X5C5tLXDF9tsO5BTjHE3GuX3/l47qn5tGW3Y5RkTq1bY7d17wqROYDV50F7ZCuHuERi4WJ1Q8Mf5//+CQHudy44wDd8sw8E9Kj8ewHrjxTlasS5T77NruWmHmRjx+6ITLRizC/ctXe66K9cEWxU2xO7tqFKznwVe6Xp+8C0bWIsqGZYF0osrPfBPi5OW5Adzq2X1doldnrwR3E/7llFL3/3RK3bSIR5ifXPTUXJld2TTh+NstCvoU00O97cNIIGnJ4qlH/+OtrfVyPd3ol031S/epXmMQdfe+byvxTl0UfIzG2sTk/ryWt6WxsBNxg68/8bce8pvQVZ+dxy5pH/twFRMjLd46mWd8spQ8X2tfRN405lc46uqdDe3rwja9BTm82H/HSlLHUBQQxl8+f+QHfP009e4v5bHcfOoO4fXXKxQ7581Weaus+PZ+oeyJkYwb3F2Cg0IhY7vgz/vniI2TPnj14jmvCIgSdNS/cWZ2qoLCSMrc6aoLoytIaDSkwkamNFB4eAhOcEOwKVCpixV0+9TsjI9k0Jh4aITUTIXl5ubDnsqse6nurOzqXv6zMsbFXd48nv22DScyfS7cQm8ZYk8axC6Lb+FJ+67PksyAgCAgCwYLAmjXwGTLvQ9qyZYvyGcL52o0FeOfOnWnMmIuhCdLH66y2bdtO3ePJWPbmgr+rECGnHnU4TRgxlOJioun7P1fTG58ucsjDWUMPh1bHieq37xQR4qiCPfLUI+mmcafb7l9F9708H5sA9jHiyRvPh810O+VLZPjNdj8X+iVtWiTQgJ6dYE+eSKcd1ZNaxkfpUwE5avx2766q0u2cgfmLVjsRIWfTuswd9DF8h+iEqQg9csNIOuu4/nToUJYivX5clgEiZKG+hJgIuezMI9T39G376NbnHHdqzzy2H1190clUBDLh80XL6cPv7WrNfBMTIfMevdLvzRYzQx5+YF8nyckGMeAOrwL4RBk99Q2HJ7MG0d0Tz6aBvTrRph376KW5Cylj+z7zGiaQ3vi/8cqXx5XT33dQOR912pF05QUnwS6/Gf3491qa9uqnmJPZ524vY0LMGhusQfLgG9+Yz2TZeuvBq8zvL36wkGZ9adfqOfeEfnTdRcdjIWsQisdfMd0kWthZ6k+v36Pu5brMyc0jX/PFGg1XTJ/jQHZ8+cx1SnXe1Tl/5YMXi9c/ZTerYhOlp24dQ53atlC7uLc/8z79uny9ic+EM4fQhOFHeoRHdl4BiBC71g8vfj9+/CoHudy4I6saIuQM433A5Ozb7Boh/OMJg3rSXZARlpUZc76jL3+1ty0+3z2lNT1921j4Ikqg1+APY/ZXi/lnM33yxCT4GvFvs858mIcfuP60/LhrF67qugRaX77IV7+enZUW+OwFi2nG+3bCdcrlI2js8KOhWV1GuZjzl1aEVSnR36s30bTX7KZLfEE7mH28cs8E6tTeIHdctYm53/1NM+F7SqfW8C0y9apzYQbTk7bs2q/q8LcV6fo0wrV3hTmbrf7NX7374ItMjz/jCJhT+YYv9yu8gXvxvW85ECHcDz9/1yXUr3sKfi+kW5+eQ/9sMAJncIkGwuTv0WvPVoXztx1/tmilzzg7j1ucISaVB/XqTN3QnrgvGDawM73zzTInIuQUOhNEiDVNe+NbWmohQl6EJklXmEdx8md+sBHjwC0wLbWmM4b2pcvOOU5p+332y3J645NFDmQTEyGvTBltvaXeP+v5RJ0TIRthGqOYEDZpAQvCTA7/n5a2rFoQXGmEcIhCdtSkGBVmU0ybG36m8T0CmiAxsF3du7+wWk0Q/VKt0cDH2kgd2ibQENaMaAnNCIS7LeWQbtXkT+dTHyNhxxsP201XREhuLogQ9ozuwfOcy79jtz38mz/lZE2aA1n5KJuhUaOfpXFknyG+lF/jIMfq5VlwEVw8afciJ7UvJzm5iCazFZohK5bTDwuhWYFXnHba6TRo0EBKgU+QBA5NWsM4VNPv7doZRIgnY9lbTIT8bDeNYYdybz98NfGOlk4Pv/4Zff6LXT2W1U9fxa4Py8z3TITMsxMhPBH5+GmE+eRtTlsaN/VV2gAnZzpNufR0Ogk7kuFwbHbmLY5EyODDOquJJC96OOViockkfU1lrYvf27U3FsC7doEIcYP9J0yEfGFfRPfv3lGpheuy8vGOS8+k8WcNJY4cVJBfqHD7abkTEQJfB5cyEYL3zQHJ8cH39rlLClTNP3n2ZiyQ7ZhOffEj+v6P1eZreAI+dzqIEPgICWRbjoqKoebNk1Q+3OFVAI1TViW3piduHk2nH9PX/IkXSuOn2p2T8om7YN7AjnZvf94+KebyfvvyFIcF7pTn5tJP8AOi00UnD6QrzxlKi/7ZSE9DQ0cn9h9x5fkn0LFYgPXs3J5ysUv9u2VhlgyfGN0wkW/VuqVa7Jx41WMORMjCV6eoRx06dIhWb9zhc76wn0ZXPupIhHzxn+tRzxXoBkLpyscctUW++A9IErzZX/lYnbmTFq3I1HDAj0Y/OmFwT0VW8Ab2dY+9Q8v+3WyeP/+kgXT1uUM9wiMXjpNH3vNf814mQj56DESIRS4zdh2sQoTcD78uSm5RwnMQpceaPoXs88KM02742zn75metp+n1+69Qvhf4RzbLOwn1Zd2Jn/3g5ZQc1yyg7QIvo3btPOtHXMnBhq37fJKvG7Fzz34B3//mzypEyGgQiKVoi0XFRTBrM9quBjR96x666qE3HTQ3mPx768FJ1DwuUkWfZAKgapu4C4+opENZ2XTfa58pH1P6mTeNPZ0mnne8/qoc2o65217HESA73502keJj0ee76W9rOr86Yzfa+SbzHR7J9HnHkK/4cr8SCoegY/7PkQh55PqLaMTxA8x8/AIttjue/cD8zoTSTPgWqo1+/uG3vvYZZ+dxiwnnx24aTbwJohP35+9+W5UIGY7NCWs9PPjWNw5EyAt3ggiBdpm/84MPFi6lOdBA0qln57b0ziOTHeYmj735Jc3/cam+BI6UWyhNFmv+AjkeVvdePZ+ocyIkXREhBhY8VdBtKW25HSATKXxwRYRw5RumMXgOrlXPczqGw6dFLJzt7N3PJjHbq5jE6HfpBXztEiEdqRUTITCRYY/01eXPOd+sEZKQkFAjEdIJpjG5OTkwjWGv9TWXWz/XufyBJUK8L7/Otxyrl2fBRXDxpN2LnNSdnKyFZsiHHxq7tKMvvpj6QhPEV7x1SF5PxrK3v1riQITccPGpdMmIY7DTzeRDpZr4rsNk/OqH39LDmpqIfIRdXl6Yf78knV6c95N5bsTx/YnNQw7Cz0kldufj4uLocTg/tS7a77psOELMpiIaWDh8hDiqwX/w+HVqh5e1E1n1Nx/jXBnGOV+x8OW+DraQxuyw1t39n/66xoEIMYGwfeDJG5eJNxr4n37eT2lwVGnVCAERcsnwwer8ix/9jxb+tdZ81EWnHEF3XnYm5YBI4UglPPfYvDuLLvk/+4KTiYEPHrlCaUQEsi1HRcdQi+bG7p87vAqhETLm/940y8XR7BbPuo/ygEtRcbGSh8TERCzE38XEOtO87gr4TmkD3xNPwAmhTskJzegE7DCXIBIfy2kYZCkDUUPWbbZr8fTp2p4ev/5c2nEgj657fI6+1eHIvi8G9Eihk47sDUKmDyViwVwKedu7b5+aC4VC85cdImrTG14Uvv/wRBPnxSszfc4Xt5+rHnvfQSPkc0V2QKsF5yY5nWMihP3X+SsfcYggyDhzyoQWzuIVG2g9tJh2wEyId6mdffxcOGwwXXH2EI/wYGenDj5CQIR8CE0l1tTRcrlpZ5aDo182jfm/iaer81zuc+94TeWN/zBpteiNe6BJdUjVM+d72OSnHMycfoaGTnFhnuov+Pz5t79oOlvmZ8x64DLsIMeY79f5qMsjl6O9jZB21y5cyYE/8sXl++avDU5RY06l047obvZDLN8ahwMwi7ptxnwH7FiT5tV7J1L/Hh2V36pSaJKE4x6uY2ubmPPwRNXfc/9249MfKd8OjD2nk+CjhaM5cX/OJAqvR6zEOl8zbdJZdCQcHev+0dsjR8VMqkGmN0KmrY52+X0s01dCpv3BNwxlGXvf2w4aIZ8/dwvB1zKi+xQpnPJKKuniu+0aTkzozpw6tlb6eX9wdh63Tj7yMHrm9nFqTVmOOua1JbtLmP0dtA8tpjE3jjmFhg/p4VBPD7/1XRUiJLVtkpIrf+YHL2Ec/N4yDl4zchhdjrGA16rcn8RjbrF1TzZN+D97f8FEyEt3sElk3c3VdHvx9KjnE3VOhChnqVqTgaUcMLBmyAofiBDutFiNNwTPU6Y21Rw5fFR4eCgadhicAbFpjGuTjtozjSGCM3SlOllRUYb3u86nzn9kJOwCYWO+dXtOtT5COnVMwCQtByq7IEKqKa9+jj46lx/tplaSe9OYJJ/Kr/MtR2hLeVC/gpPgJHJSc/9fF+0jF5ohHE2GcefoMInQBPH1PR06dFT9sSdj2ayvlzkQIU/eMpr6dGruMLaEY9f/7Fued+jj377vEoSpi6GFSzMciBCerJwzlHeX7WPTzC//pgWI9KHT3ZefScf26UQR0AgZYVGD54nF71gYHzy4H6rbWDjVU1/VsWMHldUdO7a7rYNP/4dIJBaNEF1G6/HZ2+EglSeGlvL8nLYZUR3sWgoc/WLCGQPV++5//WsHrZKHr7uIBnZthUeyI1Sjb4qNT6ZTr33KfA0TIe8/fLlDvVnfp++r7WNUVDOECcXuH5I7vAoRRnjsfXYihE0aZv7fpWruofPFc5U3vvyTPv7BvhN4NpzztURIxHe++sMsrycfusFPyLM3X6ja0r2vfE6/QzPEVeJFNzsDHnnKQKUdy/iFhobDD8Abjou+hy4zcZ7/y2qf84V1FE16fK4DEfLZU9difleObIbS1U984HDu86evUWSAv/IRA3JiT1YBTfvvF8ocyRUmfO4iLBovP+tIJb/u8GAl5VFTZ5qPZI2QedNB0MFfgpbHTbuy6LbnPjKvYSLk3stOU+cJc+vz7rQvbPj+T5+aDC1hhPBEfbB8jLrndQe/Fz+8fAvlQ9OKz3OExEsffAeL+Tzz+e8+eBklcihgS/vT8lZXR66/Dh3aqzy4axeu5MAf+eLyfvtXOr3y8S8mFjePZSKkq9mP6PLnQwv7nle+cPCxwQQNmxwxkbF//wGYzhep+3jtM2rqmw5t4j1o3VRWlqOesdEMspP9Y3iTpk6EX54+KVXypfPn7siaaXsP5Xsl0xNHHEH+4BsGjZBx979jEiFMjCx8+TZoMCI0tK2fziuupPH3vWFCYRAhYzA+EvnTjktLK/zC2XncuvrCk2gcTIVYA9PaTt77foUjEXLxMDpjCIg0W/n4+Mis7x2IkOfvgEliG2O882d+4IzP4zeNor6dWyo50++Piomn4TfaNcSYCHnx9osc8mctj74vkEc9n6hzIiR9YyYIICY/bCyQ7YOvRIjhe8M93xOBHY1mzWJp3wE2kamqGaKdkXaDSUdtOEvlnYoCdpbKuyAmj+s+nxynPT4+wQ0RkosQtUVePVeXn6O++JO0s9QMhB1esHAtpWfsU4/TGjWGSQw0QVrE+FR+lg1v8JLrBS+RF/f9irST4GwnHToYC3m1E6n8XdVcl7O+XupAhEybfC4d0aMd+kt72YqwuLnYsrjhzplDYobD/GXh0o0ORMh1CD961lE9HO7/7+d/0Ve/reTbVGIi5Li+KVi0RIAIsatIsznM5/+5VkVYs74/0G1RE0k7duxAfu04VJePz/7HGiGLbSWr/pCCaDjP3z5S7RDq5/2cllkNETJIve+25z9z8JMxDQ5jj+jBtvn2egSnoBaE+o3sBPGDRyZigs2LaPt1+n11dWSnvi1aGGYL7vAqKK5wIEJ40sr23LxItubPWV7GnnEUHKKGeU04sFPTV6eMUnO0WMx/ZiHM8bzv/6JDTqEtNYb6OPHso+mik/srHMOgMu686JsDZ78a5/m/rPI5X+xrbdLjVckONu3GGrQKSfL509eiZsvJX/nYn11Ad730GRyj5usiqyObs3Vp3wqhRaPh12CreY6JEF40sly5w6MUdTnyHvvCTxMhGi+u53+3HqC7X/zEfL7SCLn8VPX8EOTh3Dvsmk7atMaIuMjvD1PmCFYHoN/MuBFz4mLjfgA38ZE5TkTIREqK5Tlq4NoF11/79ppQdd2PuJIDf+SLy/sta4RYiJBbxp1Kpw7uBizs/RqH3GaHlys37sTv9jT1ynNo1GlDQEwfVKb4Gr+wsHC0iarkIJPfvFM/EiSJ1SeU/Yk1f7rvqrOVU2xrvvT7PDnuB/F110ufeynTR4II8b39csTQcffPMokQNidd8Nz12FBmWTTwzS4ooUunzTILbmqEYFz2px2zZo4/ODuPWzePO41OG9zVzLfO/3vfp1VDhPRwuO6+17+llenbzDIyEdKlLWuc+Tc/eGDmt7TC4l+FI7IN6cVzE3s7LgQhNMZibmkQISMd8me9XpcrkEc9nwgAEcI+QmwJLGgIWCr+7gsRwoO5p41YL+ArKkOh2km0GeFprc4+NRGS2ikJjHU+GNVSnUufjhx1xhdChUPcJSa6JkKys2EaA/VUb5IuPx/9SUZ431jaDM0aKxGinaSmpmhNEN/K70/e5F5BQBAQBBoSAikpHVV2PRnL2AbY6iNkBMJRTj5vqENxf1+9mZ6y+Fhg84B5j04ynH7C14XVNOaai05SXuWtD3j9y7/oawsRchfMPI7F7h9HGzvnDrvaMC96WI2+1BIW1vqcQH3W+G3btt3tKz9fvBYaIY5ECDtF/XbxSjUH0Q+4Aovr80/kxbWRFv1TVSNk3GkD1cln5/3q4KySfTRcMWKIvlUd/1izhZ60mIqwRgjvyvobmc7hJR58iYmJgUaIQYS4w4snreMsGiH8+DfvHQ/NoliHN93wzMcOkVruuGS4Ct/68MwvzevYXOh6mHG5SrxDm511AKSCEcGDN254bsdmN6wdsmTNJuW7xupPgp/HIRnfgxYBJ154X4wdbqsZwOxpl5k4L9+4m/zJ1+QnHTVCPn3yGkzzWXsihGo65698vPjRIvpx6QZVPv7DzlLZEe/Q/t2VQ9IFcEZqdZbJZgSX2xz5usMDilwOGiHse+Djxydh3WHO0OmHpen00ke/mO9nImTqpUZdsunX+VP+a57jPmHuI6xRwgQfO3QMpfEPzHLQCPkSJkPl5WBrkRi3Kx9935EImTaREtheIYCJ86F3gt21C1d17Y98cXHZNMFKhLBGyCmDeMFrTzPm/UK/LE+3/4BPk6AhcN3oU2CSlK1M+qwnXckAb4peC5nmsLA6fTHjViVX+nt1x8pywxSjunOe/OarTPuDL8vihGl2jRAmQj55crJyRKvzzETI5Q+9o78qX0f/vXsMmkMl+dOOuQ78wdl53LoJJi8GQWZmVX344Md/QB7/bf54JXy9nHdcb/M7f7j8kfdU2Hv94wxoQKa2MUzvfvRjfvAGzHa5L9Lp4tOPpPGn8WaBPa3buhdh5j83f2Ai5PlbLzK/B8MHPZ8ICBHCsw7wEaw9qth0ZnzSltsdjlkBceUjZPt2qMOCcOBu2847ueaP2OYtFjZq+w4U0dIVds0QXsifc/rhxKYnbONYAqLBm+d6+n5310UzEQKnSK5MY4Ipfxw1RofNPXIga4JEKyKpFHbj9YGfO3zlvOv2IfgIPtJuPR9P/G0vnTp1UsOdJ2PZ7O/SHIiQNs3j6bW7LnYY+1759HfY6tqdUPbp2oGevvE85VPqJ2g2OBIhJ9KZ0AixluF1mMZ8vXiVOQSzj5BjD++o/Dqce6fTogfmHWVY9FjvD7TspNjw27p1q9t8fPH7OgciZAKcot4O56j3wpnpdxZnpjFREXDiNgrhVpupMezXlVugEfKDiQmbxow9tb9633yY28z+6nfzHIc1feHWCx3Gvled6oSJkNnTLvV67uIvzs1iYBrTqqXKqzu8CkCEjL//bbNc/OHm0SfRMPgs0PnYn5VHVz/pGNLzaZhrJQG3q6e/Y97L4W/fnT5Z+anRP7K/i7Wb7LvaKcAtOaqSZn39N23dnaWItzAsVq4bfSr16Wbs1mfl5NO87/6imU6Rkd5GpJqk+BilxXPxfW87ECHvPnCJifP+vDKf88UT1WsQvWXPgRxdBPoUmlZ4uCrXZKdzrIUVinP+ysedL31BHJFBp7lPXK/IEP7O0URenPsjvfe1Xf4UETJ8kJI/9g/hCo/IiEg6d8prDpuJr941hto1jzPl97kPf6VFloW3IkIuGabO8+Ly/Ltm6qypkKsfoE+oQJ/A/QAvAMc/8I4TEXItlZcZfoT4/isf/cCBCHkHxFUiAhYEsh9hs5KOKSmqHO7ahSs58Ee+uLxsmuBAhGDBO2xQF7O9vQ+nzB9ZIlxxhs87aRBNu+YCRYAcYl9P+E23Tz6yX5ExTm1iNtoEa4NEggh5/L2f6Lc0O9HGYcPZvMaaFiIaWUmpQW7x70f0bIf1UZHDe5zf6+r7FB9k+jLItD/4Mg4Tpr3roBEy//GrHMavnIJSuvzhd82is0bIa3eNRhuv9Ksdczv0B2fncetGmLycCo0Qaz0z3l/9sYHegCadTqce1ZtuvOhY87rtew/RTU6RXWbcNhpESIKSG3/mB98t3USvfvyzfrWKjPYMIs61hL8ozmc5SO1H3v6OVqTvMK9hImTGLReY+XMuT3181/OJOidClI8QW3O1G8j4phHC7K0yjXHV6pzQDAXrHQ51MaUZUhJiaoawaYeVCFEaF148t7ZqMwqORZISQYTsqNlHCBMhwZI/jhpzzJGdSWmCRLKdbgUc5pUBX7Bc9YBfbdWDPAf9ldSf46xC8BA8nMYTf/uJTp0NIsSTsexdqL5+aokawzOKYYO706VnDaE4jBu/rNhIr3/2u4PNN0dBObFfChYnFfQTok9UIULgTM1aBvYR4kyEDAUREg6NEGcihBc95WWYINcyJt48TxNJW7dsdZuPL/5wJEKmI0zuGXC6uedgLo284wUHp44nDepOt445SfWBv65yJEIuBhEy7hRojKDcW2Fqe8vT75uTO/5w9nGH05hTBsOvSij9jB31Nxf8pRYe+iJFhDxwacDHyBg4bm2liRA3eBWWgAh54G2dZXXkfN968UkIN9meDsBU4/kPF9G/W/aY17C2yAePXk2lkImLp77uEM3inGP70NgzBkNOo2kdol08N/dnhbu+ecxpg2ksdhBfwDN/Xr5R/0wnoh6mTT4fTmdjgGeE2r2+4Da7Dxw2EWEthAgcmTixLvpYLOdA8yYmGuFY0XdHggjyNV/w9kLXPO1IhDDZEYIFJZuIOJMknzyBc9jp81c+bnr2E9q+N8vEg/0CDereDg74Cyl9+17lu0BrwPBFF5w8CBohg1V53eIBM+zLHprtQEQc3SeVrkaEDtbG+WHpevrwR/suLz+fiZB7QIQwniGYS1/gTITAFKmcTb5wnt9fhQiByVAZNAr4PM/FnYmQd6ddTvExRn1x++Lr6vrI9ZeiiRA37cKVHPgjX1zO7xGm+1WLacyoU4+gCax5BhwW/r2eXvnkN64CM7GJ3aM3jgIhVko50Aax4tQWYc2ZKA+DScgYEJpaRlSbQB3FwLEql/vbJRn0mmUBmwQNwqmXnU69oHmUByein/6yEiYp/5jvjITZG5O4kVjcW9/nTT3d9Fw1Mt0NMl0EmYbWwP0zvzbzyy9WMg3n1P7gyzhMeNCRCOFQ0dbxKxtrmYnORAjMAXmd6k875vv9wdl53FJECGsKObWP3//dTk+/+51DXd0xdhj1BbaZOw/Sy5/8j3bttxO5fCETIZ1BhHD9+TM/KK4MhyPUmQ7jXDvI4LDBPYidZf+0bAP9u9k+VvC7FRFy8wVVyuFcrkB+1/OJOidC0jNgGsPOW1i8wLSxqhn3db6YxmzbtlUxTepZeKI3x4jIKGKP3PsPsmaIwVIdObADtWzOGg152EHjKC8swt4919/r2bM7e1TetiPXwfREm+6kdIhHaL9D6DTgkKoe8hesuPmLu9wfWDkXvAXv+ui/gk3uOndO5TkBeTKWzf7+nypEiLoZf/ScSH/nI+/Mf/n8rbR3z241VvwEp58vffizecnkC1kjpJvDGPfmgiVViJCje3fA7iETIa+b97Ia/Bw4oqyAmnt9YpraubPK05Ytm93m48vfN9DbXy42y3D/1efSoK4tETqzPf13/iKa9aXjQmP6NWfT4amt6deVW2nGBz+a9zERMvaUvup9bVq3ojvgTPKv1ZvM8/pDdXXC55hQYE0FIzpH4OYYMc3iqLWNCHGHVxE0QiY8MEsXxeFYU7luHnc6nXf84YqIW7x6Kz3yul0Nmh+AqR4WuVGUU1Ds8LxY+JthR6xR4ZW0Er7HHnK6r2VSLCbryVSMXenMnQccokoc0TuVHp48goqxiArFBtfVcGi6LyvXfH4zaPcw3g9OOpNSO7YlX/OFNSNd+/THDhoh85+YBNNuJgJD6TpE37Bqi/A51hbxRz7YDOj5j36jRcvWm+WJbxZFA3t2UFozW6A545zOOaE/TLPgLBXS6Q6Pdq2S6bXP/qRvYBrmaToKRMjdE8Kvd0QAAEAASURBVE5Wzyc4p73obkeNkPcfulTVv37/JdiFt/oI+eLpySDKytT9IVicTnpsrgMRwxohcSCuAjk2cP11tmmWuWsXruSgWWycz/LF5f197U76z2z7QpbbGcv+MX1TVX3/4+QXxFWdjRo2QDnUZHOnSY/Pq7ZNcPSXPj270qX3z6Qtuw44PC4OEZo4chT3UdbEJg8TQGgaWj3ez2EYvxkfLXaS6Wga1LM9nL9mqX/W9/Fnlukr4ffGH3wZh0sefM9BI4SjqVnLkV1QRlc8Mtt8PWuEvDplJAhr8qsdM4atWrX2GWfnceuG0SdDI6RLlfGuqCKcxoOM8CbNuG0UpbROUO3Nn/lBK5hcPg9y2xoe110+mAh57ubzqpQjGOYTdU+EbMxg+kMNikAACV0ABowVad6bxmzdukU57+IBFg9Vz/T0yE6PlB1qZRjUvthOh+Dkixs9e1PmKC9s++n9cz19f03XRUVFU3Jysksi5NChLOWkrj7yF6y41YSn/O5duxC8BK/66FeaqtylpnZRY48nY9l7C5kISVPX8x/eDa/JRxbbQE/HbuFRvVMQRWC/Gst+XrHFiQg5AeH1QIRYxs63EJnGWSPkKDg9Y99Q502xT7KYCHlv2iV4P9TgLfcHWna6dDHw27w5020+voTq8Kwv7WYE9yL6wRE92xKPuQlJzen822ZQVk6BiW+Xds3pqRvOpcVrtjsRIUfSmGEgQlBu9ud1qKCcrpk+iw7CdKO6xBPq3QewY2tLBhEyATu5MCsK4BwjJiaW2rRprXLhDq9iOGWcALMGa3Ilb0xIzJgygQ7s24Mysc+FjjTlubn00xK7mZb1WfozO93lXe0jenWkvXv3wmlle7rnxfkOflf0tc5HNmF668FJFBterpzSs0PE2Yic8MlPVeeSz91yPnXt0NrnfHHZr/vPfAeyg3eUFRGCOez1zziem//EVVQJExF/5IPnoDsOldLNT73nXHTzO++2WmX2sM5t6ZGrh6u+wR0endu2oIrwZjQJ4bZrckrLZKr1HBMhd407UcltCBMh97xh5kWRow9eYso1v//Sh95zIEI+fwoaQwgkwHLPc8mrn/jQkQiBplRsFMLEBrBdICeUmpqqyuGuXbiSA3Yo7avcq/KGRdPou18zlkUmqkRDQYSAl3SI9mE5Xe1Hjioy8qR+0OQLo3e/q75NPHvz+XRkv560adchunb6LETVLK32WfrHYwd0V2FbmVhnLRRf+n3Gb3uW9zI9ffJwrNcifcaXcbj0oTkORMiHj7I/GxD5tvGLiZArp9vbGvfbr9x5kRpj/WnH3M+3BmHuK87O4xYTIacMSjXzrfOfnNycXoXWx0eWELq67vSRQywXc7goW3qOiZCWMF9Be/NnftAMGnsxsYk0FWamf67K0I93OLKZ7ppNjqYxz950bpVy6PLUx1HPJwJAhGyC2IFgMCEy+J80H8LnboEaG9sj+tNrsp1cPMLVcoZyEYuZfYP48zx/a5V9hCQ3d02EZGUdoqLCwnrNZ7Dh5i/ucr9tNKiP3kfNAuT99dnviPzXj/x16ZKqRkJPxrL34Qztk5+Wq+v5D9tzf/bzMvob2gjWSWwbqKQ+esMoGnRYZ2iabIepIia4aGOL4OvCahpz7ciTDO/zljY/C35IFvzPrgp99+XDaQgi00TAt9aF2P3VzipZLfvd+ycYO4aW+wMtw126dlF4ZGZudrtr8TXCU75lCZ973xUjaGD3Nuq+Nm3b0FeLV9MTb3+lnqf/3DTqBIoEUfLMnIX6J5h4HEWjTuqj7mOHkRx682BuId01Yx6t3rjdvI4/pLRpTi9PvYyufXQW7dx3SJ1jB7az7gN22BkPJF7NYBqjiRB3eJVUhDiYxhx5eBflj2DmJ784OFfknVZ2OPt/k87DnKRAhe7kvqR5i+aUkJAIx7v/0AsffI8IEfYQqQoE/BnQM4UeuX4kccSYnTt3QaujCHOf5hQFE5Y58Hsxe8Fih0W0vo+PvCi74eLT4C+jNRlmUSHKV0dIdBzNmPM9/bpsnWWOSYh4M5ZaJ0b7nC+u5xthX79rv0FoYd1AHz8GsgObePz5Rqj7O5x7fBKIEGg++CkfHeFMmcnPF+cupIKiEi66StEgJs8Y2pdYC+esG59R5kj63B1j4Uy1XxeP8GiPqFWsZXP/K/OJ/bagF1SJy3QBnNxefu7xZDVFOqZfN7pzzAlKbpnoGHUvoo5w+0dSfQJrOtnkmh3gToQz1Ow8zFWR2BcHmwyVcSRFfObv10KTZq9Fg+ddaIQ0g0lZINsFlzW1Syr+ErlrF67kwB+55/I2x7z/6z/+pXegmWbVahp25GHKVKSmBabKuNOfieccS+cc0xNaQSCVomJraBPwB9MiHuRCB9qH9jljznf0vcVXkn4kL55vGns6jR1+DDZgC2nP7t1+1Q+/z2uZHjcMIXs7+9x+w2DaOXH6HFMWuf3Mtfm40nOfPIRcm2jRCOnQKoleuA3hXZX5m3/9PL/fV5ydxy02jTl5QGqV8a4ZnGG3btOGnnrnK/oaY7hVE6tdS5AUV4LUX7HBwaHqjNtHU8fmcIAN+fNnfsD3t2vbliJhojvn6z/ol6X/KufW3GexyeTwY/vThehPRk95SYuV8nX0+DUjqpRD10d9HPV8os6JkA0ZGZUcKcZIUAsFgCHoSH1xlpq5ebPpCIufyN2xt0furNn+mROr7HnrfNXb97m7PgY2tDwZ2O7CNIZDZBVh0uBLed2939PzwYabp/mW63xrJ4Kb4Faf/U1jlb9uXWHri+TJWNa+XTviyB/OqQw7x2sydlAOFhwcVaItJj2cDhw4QIeys80xsVXLllicwh7YlnJzc2nvvn3mecaYd+Q5zKpO7I+Kx5twbBh0stnR63NbtmyBGnz9OkvtasMvY9Mmh3JUJ6ttWremuLg4nX3KgnPBg/jH5ebypUCLgbUZrGkbHLInxMdjZ9/AlM8VFBTQLiwGtEzyBLQtJoF8L5MdqzZuU7uI/XukqEW+NgG2PnczsNNOJfVz6voYB9V9TYS4wysKMtABslBd2nswh/7N3KVMr3p3gbYQzKZ4l3/Xrl02swfcBSz4fo6Cxz5DtuzaTxu37VXaBV06tFJy2jwhFnPdSiWn2Tk5Ck++ryMW5+zUvgDmvxlwFLoLmO7NyqFYTLJZtplc6oh/nLgeClEfur7b2doIO1Y9gDCdrDEVhUVPWGUxlWDO5E++unbpot6p/7CD42I4hecFfRencyw32mG8P/KRALlriZDH2XkFINl2gGw5RN1T2lDf7vDbAxLKOTGeHIGK88Xy5A6PaMguL2BYdvMKimjd5l2qPlPboa8AYeec2EErOxRlvKNQR6wBYU1WuWYnkZ1tpmv6mq3btililu/nOWRqaqo+pY47IUO8yafrMxBHa/25axcsPzXJAePtq3xxOXnuz/0v9+e7Uc/5hcUUAU2GmKhwapWcYK5TFFBu/uQh8uXePXsUjnrccG4T4WgTvI6IR5/YGn0jJ24zGWinmTv3UWJsDHXHeJKKMM0sa+yXkNubv/0Wm/5zGG9vZHo7ZJrbk6/4MiGkzSg1dCzHhpmWMbfjdsrtxZo2ZWbiJJsvEvnTjvl+X3F2Hrdy0FfuYy1PPJOfq48sx21AhDDhjSzTZtQhayK2hwlcR5DNHE7bOfH4n4d5AD/Hn/kB3x+BdTSPg9x3c2KCtBTmjEykcUpbt0Vpn6kv+HM0SNU7xhxv5l+Xoz6Pej5R50RI+kZDI4SRZ10QeJvC3xAQIUs1Pg5HV1FjePJoaITgFq6J+kSwlt4fAx8hrBGyfUdetT5COraPUxM4ZmYbQ3kbS71JORpH+5N6lHoMZL/arWs3AG4QIe7GsrZt2qqIZ+oG/GGCgic9vNi0LuA5LOu+/TzBwS68ZUxs0bwFJSEimU7ZIEn2H9jvMHbyRNxKthzMOkhZBxHFA4vdzp0661vVApaJEO0Y0fqeQLahbt0M/DI2QR3XzRjcqmUrByLIIIqgpWG7r2WLlg6EBxf2EPxxVWIxzeaqOuVBc3TPXjh+s7wvEo4nuX7Yoac1cSjRPViQ8ARb1xEvVjfDpwk7sA0kbrHwEdIWmi+c3OHFTts7drAvcpnoYOKMiTS9caTLycQQ4+FcHp7XMYHE2HGEEOfEz+T7ikF4WHFgx4Z8D79LY+Z8Ly/KWP4LoIVirQcm8XiRZSXz+N7dUOfPz4PpEk85fcgXO5bsktrFIT/GQop9yeFcF6dz8F9XyqYGtvbnj3xwu2UcrViwDPEckOWzPXzcWJNVrj3BI7ZZLMIqt6xSr/lYTOfm5Sq51s8vwWJ0G8gMLlcETEG0c0E+z3lSfYLS0mYNEIPosOZ7C8zZ2Zk+318dbjt37VSOYDVugThyPvQCyF27cCUHWg75eb7IPd/Psstyb20vjDnjwFF+PE2K5IapGd8XDY22atsESI38ArQJvJflk/s/a99vfZcmxJkSYNOK5Rtg4mDp//g9nnxv2zKeuiBCFOenRpkG+c7jkDUdOAhSH5rw/B5f8GXHvKmdUx3a0GasH63jF+PUASSsTizPmWxyif5fl8+fduwtzhpP53GL64Lx0OetR5bPNq0NMsTa7nhOwCaysXGxcDxtD4HOYxOPZ1w+f+YHf/27lT5btErhy9Gi4kGivXA3/D5h3sDvZmuL+1/5lBav3KThpfPh2HnCaf2qLYfGO9BHPZ8IABECHyFgrkIgW9yOVMKHFWk+ECGbMJmoQKcaaLTq8H0xMTaNkJ0uiBBMTAt5AlCH+Qgq6ZRyoq65tXg42sh1gpfIS4NoL92624gQP8YynvzwJI77CLZHLmXV8ybSB3Tr3h1lxcJ+I9sl138fySZEbN6KGaEy9ShRdvf1ny+Wh1js/JpEiB94sW819ofAeBcXl2AOBvNkF/LG8smLOF5E8AKPCZAS3Md+BlzdxzuY7BeASTgj0h8i0kEjgU293OHKqug8IefECxqODuGcT1/z5Y+c+SofjHcU8ONjCdq30gjGAsMVftZ8eoIH483+ctjcpwQYKxMXF/Vqfb6n+QjG69BUqasmVP1oF854+CpfnB+uZ/anAdFVcsv9uvPzvf3OUXwc2wSiO/Ii39Jv8nvZHxTLKS9guZ2WlBSrfOjrdkHL4JbnP8d93qdTEOXs2guG4sYQlDFMyRsfWd4MmXbMjyt58RVfXQ5/jr62Y10eT3D2J3/sf4frkds995elIB9VhNU6as9b92TTnS9/4SAQHVslUn9EGItCpKG1m/fSekQEsqYX7ppAbeO4jw6O8ZHzoecTASBCbBohChHmF5kUgWlM2jIrRuZnVxohGRmboH6DwYB7C+49GsGRQ9y1YNMYF0QIM/6FrObZCMrbWOpNytE42p/Uo9RjIPvVHj16qLGuMY5lgWhLPWxESHp6eqOZA9QVbnHxCTCDMDRCBK/GM2esK3lpKs9lvx/dbUSItAv37SIkLJx2HfRNIz2hWSR8wGDIk7VLoxqv2HzvgdcX0O//bDTX7q4+nHZ0H5qGqG07dsCnVhCt3fV8os6JkA3KNAaTbaZA0OYqwXoaPkK81whRk0elhscPwjPVAxv2MSYaRAhCEbkmQvZDfZDtXRtPuRtL/Uk5Gnb7k/qT+gtkv9qjR081X2iMY1kg2lKPngaRlJ6+odHMAeoKt7hYECHt2yp5E7xk7lRXctbQngu3rdS9h6FZJu3CfbtgE7v2cBDtS2Jzru3bePHr/j0NTY6acn7j4uOwbm1F02d+Qd/+vqpK2GUtK+wX6JbxZ9CEEUNp3959MO1DCPAgWrvr+USdEyGGjxA0ApuKjhEzxjdnqRuhxlbf4ftqm8yKhm0u2wgePFRCS1fsoJ17cpUMtW8TT0cO7EDNkyIpOzvHVFer7ffL89AuIZ6Cg+AgciDtoK77gV69DCKkMY5ldY0dP79nTwO/9es3SJ8NPFz1WfFw+tq+fTs1nxC8pG8LRPt0JY/B8n42QdGaedIu3LcLxsvZB49e6Lo7atPNhiAXwSKfDSEfbIrTqVOK8le2/1AuosasU06uOfpRs5hIYgfZ7HS3e8fW1CIpTvk3YqfOHCI8mMqn5xMBIkIwYBtGMbaB23cihONAN6bENnzsjCwkJILKKtjRjOFkLDS0gsJD2c6rVNnJshM2SYKAICAICAINF4FevXqpzDMR0tjGskDUisZv/fr1gXhdg35HPExj7ESI4NWgK1MyX2sIsFNJvQCSfqTWYJUHNTEEeO3KTsFjY+3OWKuDgKO17UO0GvbdFGxJzyfqnAixh89lR0C89Q4o8G/FMu9NYzZs2KiIgUrEvA8JBbXSiI7RMVGUmJBE7L2dU3FxEWUfyoHHZoQWa0TlbGz1JuVpXO1Q6lPqsy7728N6H6b698Y8ltVlG+rVq7fCb92/6xrdHKC2cUtIZCLEUGkXvBrfnLG25aWpPA9BikCEGP2wtAtpF01F7uuqnFHREYhME284ucamPjtpLS6C093SYnUsKy8J2jWsnk/UORFihs+FRojBghi6ISt8CJ+7YUM6Ym6X2Yxs9NMax5HjXkciFB87cmKuqBwenNn7bxk0Qfi7Hb3GUV4pj9SjyLW066bWD/TubSzkG/NYVpd1ergNv3///VfGRHNGVf1YEp+QiJC4BhEieElfW5ftsiGN5ayb3/swgwiRdiHtQtpF9eNHU8BFzyfqngjJ2GQoggDVSjjM4Q6TYU/zgQhZvz4dBAFCsAWRsxVxAqQqFlUqR5FLtG6RA+mfpH+usR0cfrhBhMhY5ltfcXjvw9UMYu3af2vEWPogYyxmjZCOHToIXjImyZhkGZPg3gBEiNEPSz/iWz8sc13BrTGMs3o+UfdECEeNgczw9o0yETJcYPhkGrNu3Xqxq1bTGvkjCAgCgoAg0NAQ6NOnj8qyjGW+1ZzGb82aNb49oAndlZiYRB07GkSI4NWEKl6K6hIB9hFy+OEGoSrtwiVUclIQaNQI6PlEnRMhRvhcHSvGwJQJ+rQ0732ErFu3rtGaxgASzRfJEVgIHiIPNv5U2oO0h0bTH/Tp01cNgjKW+dbH97Xht2bN6kYjE3U11iWACEnp2FHJm+Dlm7zJGNT4cDOIEIOQlnbR+Oq3rvpTeW7jW5Po+UQAiJBMKKWxXxCDDOFmV4k43iuWL1EDtPOf0aNHO/9kfl+7dh1VwEeICGTjE0iZcMiAJO1a2nVj7wf69TOIEBnLfJP1vjb8Vq1aLQQpZkau+swkJkI6GUSI4OWbvLnCt7H3VY21fKHQCOnT1yBCpF1Iu2isci7lcj0+Mj56PlH3REj6psoQxKGGI1lMXECCsDoIPvniLHXt2rUqlKzMgNzMgKQFuG8BMsOREVDaibSTAPcD/fv1R+dNJGOZb2NY//4GfitXrRTZdSO7SYnJ1KlTipI3wcs3eZO5ZuPDDXFSqF+/ftIu3PQfLllWmTvJ+NMI5EfPJ+qcCEnPyICzVHQ9NodV2kjGF2epa9asFR8hqvuWP4KAICAICAINDQE98MpY5lvNafxWrgQRIsklAklJFiJE8HKJlZxsOgiwaYxJhEi7aDoVLyUVBJwQ0POJuidC2FkqkvpjywSTib4QIatXr4ZGCMLJglTR5IocDZJJcBAcpF1IvyD9QHD3AwMGDFSjoIxlvrXVgQMHKPz++WeFzAFsG0w1tfmkpObUuXMnwcsNTjXhJ78Hd1/qa/0QTPMHDDA0y6Qf8a0flrmm4OZr+wum+/R8IiBECMYhCoFpDIfbsWuELFMDtPMfVz5CVq1aBY2QctzSCHRyROdS6lHkGDIgOpbSnzWd/nzgwEFqyJOxzLc6HzjQIJJWrEiTvsNN35mc3MIkQgQv3+RN+ubGh1sI4ucOGGAQqtIuGl/9ypxS5tSe9tt6PlHnRMiGDPgIQVuzNzdmRSp9Cp+7cuVqOEstNckUTarIEcw9UBEcBAeRA2kH0g8Ebz8waJCxkJexzLc6GjjIIJLS0lbImOdmzE9OTqbU1M6KeBO8fJM36UsbH25wWUgDbISqtIvGV78yB5Y5sKf9tp5P1DkRkp6eiTwpdRAMyEYF4UArfAifu3LlKiotK6NQECkVUDORo+AgciDtQPoB6QcaSj8waNBgtTCVscw3mT1isCZClsscwM0cKAkaIV1MIkTwaih9hOSzbuc0BI2QQSYRIu1C5K1u5U3wDV589XyizomQDfARojRCWBFEUSF8rISPEO9NYzIyNlF5BUxjKsGkwOGRHAUHkQNpB9IPSD/QUPqBnj17KiJExjLfZLZnjx4Kvw0bNsgcwM0cKDEpidq0bi14ucGpofQdks/ameuEhIZSj+7dpV1Iu5A1ZBNfS+v5RJ0TIekwjdFYExRDmBUBPwQiZInqiJz/uPIR4m9mnd8l3wUBQUAQEAQEAUGgYSAQHRWpMlpUXNIwMlzPuRS86rkC5PVBiYC0i6CsFsmUIBBwBKIiI+r8nSHpGzOY+TA8vGMTSH3G9xXLllb7ciFCqoVFfhQEBAFBQBAQBJo0ArKA8a76BS/v8JKrmwYC0i6aRj1LKQUBdwgEhAjZCNMYxYRAHYSPbBbD/6eleW8aIxoh7qpUzgsCgoAgIAgIAo0TAVnAeFevgpd3eMnVTQMBaRdNo56llIKAOwQCQoSkKyLEyAoUQWAaA6UQJkKWi0aIuwqS84KAICAICAKCgCBgICALGO8kQfDyDi+5umkgIO2iadSzlFIQcIdAQIgQ5SxVe0tVOTIix6wQIsRd/ch5QUAQEAQEAUFAELAhIAsY70RB8PIOL7m6aSAg7aJp1LOUUhBwh0BAiJD0jZnKFgZ/2D2ICvDAH4QIcVc9cl4QEAQEAUFAEBAENAKygNFIeHYUvDzDSa5qWghIu2ha9S2lFQRqQiBARAj7CLEljhgD2xj+LkSIBkWOgoAgIAgIAoKAIOAOAVnAuEPI8bzg5YiHfBMEGAFpFyIHgoAgwAgEjAhR/lFD8UaEz+XQ1ewtNW25OEtlJCQJAoKAICAICAKCgHsEZAHjHiPrFYKXFQ35LAgYCEi7EEkQBAQBRiAgRIjyEaJ0QFgTRBvIiEaIiKAgIAgIAoKAICAIeI6ALGA8x4qvFLy8w0uubhoISLtoGvUspRQE3CEQECIkPQOmMTCHUTQIB9KFSoiYxrirGjkvCAgCgoAgIAgIAlYEZAFjRcP9Z8HLPUZyRdNDQNpF06tzKbEgUB0CgSFCNmYw/WGYxChnISBCKitoRZqYxlRXKfKbICAICAKCgCAgCFRFQBYwVTFx9Yvg5QodOddUEZB20VRrXsotCDgiECAiZJOiP9Qf9X5Fi8BHyFLH3Ni+jR49utrf+cfiktIaz8kJQUAQEAQEAUFAEGi8CMgCxru6Fby8w0uubhoISLtoGvUspRQE3CEQECJkQ0ZGJUeKMRK8hMA0JgQ6IuIs1V31yHlBQBAQBAQBQUAQ0AjIAkYj4dlR8PIMJ7mqaSEg7aJp1beUVhCoCYGAECHpGw2NEHYMwrogFFLBhjKiEVJTrcjvgoAgIAgIAoKAIFAFAVnAVIHE5Q+Cl0t45GQTRUDaRROteCm2IOCEQICIEPgIUVogTITYEj6sSBPTGA2HHAUBQUAQEAQEAUHANQKygHGNj/NZwcsZEfkuCEg0JZEBQUAQMBAIEBFi0whR7+QAujbTGHGWKnIoCAgCgoAgIAgIAh4iIAt7D4GyXSZ4eYeXXN00EJB20TTqWUopCLhDICBEyAZlGsM+QkCBsHlMqPYRIhoh7ipIzgsCgoAgIAgIAoKAgYAsYLyTBMHLO7zk6qaBgLSLplHPUkpBwB0CASFCDB8hbBRjkCFGzBhxluqucuS8ICAICAKCgCAgCNgRkAWMHQtPPglenqAk1zQ1BKRdNLUal/IKAtUjEEAihPVBbBQIOJEQqIZI1JjqK0V+FQQEAUFAEBAEBIGqCMgCpiomrn4RvFyhI+eaKgLSLppqzUu5BQFHBAJChNjD54ZQJcLmKsUQKIesWCamMY7VId8EAUFAEBAEBAFBoCYEZAFTEzLV/y54VY+L/Nq0EZB20bTrX0ovCGgEAkKEmOFzoRFiNY9ZsTw4iJD9+/fTtq1bKS8vVxE1IYhw401icofviYuLp5ROnahly5be3N7Ar62kitJCKivKorKSAqooq6CKCtQz812hRKFhRGGRMRQR3ZxCI2LwW3gDL2/gs5+Xl0e7du2ivNxcj14eFx9P7dq1gzzGeXR9YWE5HTxYrK5t3jyKYmJQaZKCDwH0M5UV5VRZWkYVJSW2f8X4XorfK9DmWOcOCd1XCPthCo+g0MgoCo2KNI74HhKGuvWyfws+ICRHTRkBWcB4V/uCl3d4ydVNAwFpF02jnqWUgoA7BAJDhGRsMhRBeH0MkxiDZgiBaUz9EyGZmzbRgQP7KTExkWJjYyk83Fioe0qGqIIB5bKyMsrPz6fs7Gxq0aIldena1R32jeA8V2gFFefuoLydS6ng4HYqyi8BIYLFGsiQMEAZ2SyEmiV3oIT2QygqoT0WZPFBU25F2CA3XNfBvDZMT0+nr7/+itI3pHuEXY+ePWjEiLOpR48eHl2/Y0cB/fXnfnXt0ce0pA4dmnl0n6uLiopLKX3bHtq8c79q7yltW1Cnts0pOSHW1W1yzgUCleUgQIqLqRyEWOnBg1Ry4AAVo+8qy80BKQJCBOcVEcIkSEQ4hYOYjWzZiiLRH0W1aEXh8QkUFhUNgkTISBcwy6kgR0AWMN5VkODlHV5yddNAQNpF06hnKaUg4A6BwBAhHDWG2Q9eN/NMHZoCnOrbNOYAFhKbMzdR+/btKSoqisKwWxoaamTOWyKkAjuy5eXlVIyFys6dOym1S1cQIi2MgjbSv+Wl+VSav48KD24EEZJGRdn7gEEEVZSHGSZQlUUoeQ4IkFaUmHIsRSekUHz7fm7RGHnni3Qot8DtddYLoqMi6KsXbrf+5PIzP3/ETc+qa+6eOILOP3mw+sy/FZeU0unH9KF7rjjH5TMCdXLdunX0+WefEh9dpcLCQpB6B6hXr8PoqquuokGDjTLVdI/WBElPz3UgQnr0iCdfNUO+/m0lzf5qMW3bfZAqVGN3fHu/7h3pjkvPpJ6d2zqekG81IlCJfoW1Psrz86g06yCVHTpEZdn4l5NNpTk5VI56ryyDhghfB2JSJdbG4j4NZEh4YjJFNG8JQqQFReIYgd9YU0Rph9T41upPvD7/F5r3/V/Vn8SvsTFR1KNTGzostT317d6BhvbvXuO1vp746n//0LPvfatuf/vBSdSpXePuZz3F6Z9//qGPPvxQEbv33X+/GtOqu5fHqSV//03r16+nLVu2UKtWrah7j+50zDFDKR7aZNUl1krbvHlzdaccfuuAsTS5eXOH3/iLL++s8hDbD/4sYFZv3E7rt+ymvQdzMN6HUm/Iaf+eKZQYF1PT6xr8777itX/fPlq6bBktX76MIiIi1LjSp08f6tatm0tMioqK6NdfF9GmjE0UGRlJQ489lg477DAlly5vxEmWyeXLl9PevXvUPUOHHksJCQlVbtuxYwdlZWVV+d3VD927d6fo6GhXl7g9N3/+fMoCCX3a6adTamqq2+u5zfywcKFqEyNHjnR7vScX+Fov1md7Ww7rvY3lc0NqF77WOW/QrlmzhpYtXar6epbZXr160YCBA9XGb23Vpbfy5Gt5PMmvP2X2tP/xJB/6mmDLTw7mjNyncz/La94uWKv269cPxy46y1WOm6AwUFDgek3GSgTcz3ub/BkvnN/13HPP0oH9B+j4E06gM8880/l0jd8DQoQY4XNtjlJtWeEwumlp9asRshITx8TEBEpOxkIBAz1XJBMhmgypETWnE0yC8D8W+FIsWHiAzs7Oof4DBjhd2bi+Fmdvo+yti6lgfwaVYTEWFh5LsS06U0RMEgoaQkV5uylr5z9UVlpC0UldYR6TTF1OuMotCGfe8Azl5Be6vc56QWR4GP3yxlTrTy4/Z+Xk09k3P6euuevyEXTBMIM0OGnS41RaVk5ngAh58NoLzWcs/HMN/fDXGvX9gcnnqwWfebKOP+zDhPTff9cSDx6u0rZt2+iPP/6AaVYrj4gQrQnCRIjVNIaJEG81Q0pgrvHse9/RF4vSXGVRnQuF+s2VF5xIV55/gttr5QKiCiwsmAAp3r2LCjdnKgKEF3FhIDrCocXGpi8hkH9OTJpUMClSjHtg6ldyMItK2YwG/VtEy9YU160HxbRPoWgQImEx3mv+vPDBQpr7Xc1EiHN9nXlsPxCKZ1MkNFRqK3368zJ6+p1v1OPemz6ZunZs7dejWatv6osfK/L22AHdTVLUr4cG+GYmKo4+aghlZGSoN+/evYeSMK45p2VY2N54w/UYe6u20zZt2tLjjz9O4ydMcL6N3p8zh6688ooqvzv/8NDDD9Pdd9/j8LOv73R4iOWLLwuYnfsO0eNvfUnL/t1ieZLxMQqyeRfI8LOO61/lXGP4wVu8eKF/0ciL6I/ff6+2+FdNmkRPPvlUtaaXvCCacucdajPIejNvCt19zz108823WH82P2eD3L3uumvp008/NTZRbGd4LjbkqKNo7ty5MPdsb14/8qIL6auvvjK/e/Jh4Q8/0AknnOjJpdVew+NvampnNc+b9c67NHbs2Gqvs/54x+2308svv0RMwqxes9Z6yuvP/tSL9WW+lMN6f2P53BDahT91Pvvdd9HebiLeIHNOKSkp9PrMmTRs2CnOp7z+7o08+VMeTzLma5m97X88yQtfE0z54bXpFRMvJ+6jtSWDLgdv/I8ePZoee/wJ6tixo/7ZPPY+rBdlZmaa36v7wGvo3Lz86k7V+Juv40V1D5w583W66cYb1akbbriRnnnW2Oiu7lrn3wJEhGRWwk2q+g9K28gDfw6lFcuXOOdHfecKqSnxbn1tpSV//6XY0ZgY+LBAJVo1Qrx9h9YIYWHjjoeZxSFHHe3tYxrE9RVl+VRevI+KsjZR3o5/qCQ3C7xHLEXFtqb41t0oKg4TcDSswuzddGBrGuUf2gOiKByNL4T6j37cZRlZOs688RnKziukZtGRNOzI3i6v1ycjIzGZBaHh3MD1eedjNjRCzrJphPBC7byTBqkdq3NAjrCMnTG0L9152VnmbbwTPuvL39T3L5+/lVokxpnn6voDm1zt3bMHpld5Ll+liRA28Tr/ggvdsrO1RYSUlVfQNdNn0b+ZO1X+uA4vOOUIOqZfN6X5wZ3s1l0HaB4W0Iv/sZv3PHbTKDr5CO8ZZJcgNKKTWhOkFMRq8Y5tVLxrJxVjpxTMIkWBwI1IiKcI7OCHRbN2B/es6FeZCAHxyCY0JdAYKdq3n4qhPVLMbD6Ij6iUVGrWKZViO3WhKCZDlGaI5yTFS/N+pPe/+UOhfNrRh8Pcye4PqRREcOaOfbSBd9yz7P5sekH75z+3jaUWSbXTZj7/ZTk9OetrlYc5j11LXdrb8+BL9ZeDxD7hysfUrUyIcj/S0NKkSVfRe7Nnm9nevWcvJSUxIW1PGzduVGQJ9yecuF3yJgAT99Z+8+23Z9G48ePtN+LT9EcepunTpzv8Vt2Xhx95hO66627zlD/vNB/i9MHbBcxBkN7Xon/avhfjlC2ltGlO/Ht+oeEbiX+eMWU8HdWnq76k0Ry9wYsXNSNGnEUrV640y9+sWTO10cM7dzoNGTKEFv36P4dNo88++4wmjB+ntH/0dby5xBtEOr3wwos0+Zpr9Fd15PnSWWedSX+CxNfJ+b7evXvTwh9+NP2vjQJRs2DBAn25R8cfcD/vFPqa7rn7bpox4zl1+7vvzqaLx4xx+ait8Ds39JijlZYmm6muWr3G5fWuTvpTL87P9bYczvc3lu/B3i78qXNeFN58000O/bru63X9cf//8fxP6Oyzz9Y/+XT0VJ78KY8nGfO1zL70Pw0tPyXYDBs/bqxDn8l9rN7E1+UZCE0h7tfZQkInXtMmYb7JWp2ukrdEiK/jRXV5+Pfff+nYoceYpN9NkP2n//NMdZdW+1tgiJD0TZXsvI+1ttVkndVB8Km+naVy+N6+ffsq9U1NgnDn4EviiaQmQ1joVq9eDdOEI3x5VNDfU5q/mQr2/ExlebsotDIZjhkT4AgVC7JILM6icYzgRhQCXyH58B+yj3IPQI11VyYV5h2iIRNfdVk+Rl8TIV07tKKPnjYYPpc32U6yVoJ1Qu/qnpqIEL1zzc/h5+n0xqeL6K3P/6e+LnjhNmoeQF8XnhIhrLrGpjGxcJLau/fhSuVd57+6Y22Zxnzy41L6z2zDVCEpvhk9fN1FdNzA6v2T8CL6Gdu1sTGR9NmztwRUu6Y6HIL1N1MTZMd2yt+wHr5BcmDWEkuRSYkUBYfM4ZERVFkCsxj+V1wIgqREESHgQ5SX4kp4Kq7EjmoJtAUKtu+gQvgWKUE/HNG6LSX27k9xTIaw75CYWI8hsBIh/8/edQBWUWztkxDSIKElQOihSpEmvw0sWEBQBMXyFBs+eSogIMWKCio2UJQudhELYO9UwfJUnnRQCEHpJYQACenl/77ZzGVzs7enQfYo2b27s7MzZ3ZnZ7455zvTH7xVaEFhJctX/ylPzP5E0jOz1Wmutj825GqrpD4fK2kghC5cPQZPUuW49pJuAEC9N6n0ufClcMFHH30kt992a5GcDwIIqeEEhPSBqeiKFctVunvuuUdeeOEF5QpDa5JJkybJc889p86RZHnX7j3CCbAWriR98MEHctZZZ8Hi4yTQoc/rrTKxbd5C/5RA7unIxGnHlwkML31y7ufy3S8bVS7ndGguTw+/TvXfaHZ547OVMnuhoRMCdm9NvMvpbqf+T1/0RSCDq3SUc845R+bMmaPMpvn7yy+/lLsBYhw6dIg/xQxq8BvVBtxUJJ6nPPLIIzJs2DAFtK1YsUJuvfVWWB0eUeDbN99+W2Ql+sUXp8ijSE+Jj4+Xd955R8477zyhWwmfyTfeeEOd696jhyxbZrTV8mVLHdZP6qTFH97viSeeUGdosv3jjz9JlIWbjcWljkP7AT6vX79BPvzgfWWVok/Mm/eeXH/DDfqnY8tJFcG/ZSjfrJkzhWAIJVAgxN920QXztR76utN5W9HfC3/bfMuWLdK1S2fVdLSomj59utyAZ5VBHA5iQW00rJTef/99db5p06ayDs83F4N9EX+eJ3/r4025AqmzP/2PpzJVtPJMnz4NlnpjVbHZx74La6Fu3boJ3WRohffMM884+ipaUtCiQksi+rP27dupn88//7xLFxoCIX2vvMqrOVgg3wtdLr0lHUWP7ufLxo3GN57H77tvBICQKTqJx22ZACEJiYmYV2LFkgAIttpJprzJUjduWI8Gbq9cYgiEEAQJBAjh5JmomfYJO7NjJ48NcCol0JYgOanbJevoGvAWZEpYeDMJDqmtLD6CgkMlREWGqWpUC/ooKMiTtOR9sn/7Gkk7sl/OGWIMalzV2xkI+ej5oa6SFjnOuV8uXFpcCSdknPBUB4cBxRoIAbkrXmYKiVS5wq3FDIR8Pf1+qRXl/eRR5+Hv1lsgBPibpKYWKN/PFi3qwy+5ule31JYhTOyrS0xGVrZcN26m0NWI8sq4QdKjS+tCpBngIGcbEL5XIXDn4Hb0i+/Lyj+2quPPYFJycTdrq5DkY2myE5YkJFgl0WoVfNR9kT0Hj6jkjbD6e0oJ3xu62h1NkUwMpDP37JKsPXuguwKJhNliWB248kWE4yHNBVHqUXCHHBfJOIH3MVuCgDYHIVxTUAjcZUiMislsHh6MjENJcgKTlFRMDgpgGVKteSup3ry1ROFfWO1YRHeCa40XILAZCJn2wC3K6sesW9WHkqwVBxN3H5JBj85RrmbBOPYBrDdImutK+M4dSD4KS7AwIaDmSrwFQrzNrwgQcimAEHDYuBNv83WXR0md42SRLjEk6TaLMxBCcD6mTm3hlpYijELlzJdw7bXXqkER81m+fIWc3727I8sLenSX1atXw9R6hLzyyiuO4847tK7R/XCg93TOW//2ZQKzF1YgNz40S/XnbeMbyBtP/FvCYD3IXkkveQx+4nXZkLBbZb941lipHol36zQSb/VF8/AmTRornjMOlunSxFVks3wLEKNv377q0Lnnnis/rFyl9l955WV58IEH1P7gwYPlzTffNF8mX3zxhfTv318do8XvvPfmq30OYlu2aC50/6Ql4+/grmnXzhh0MwFXIy+AFcdvv/2m0q/fsFFZ8XLBwt1YjWMxrnSzvCTCpz98kyZNhc+nt3LH7bcVAT/M11kBIdu2bZNOHc+0nAgEAoQE0i4ss6/1MNfzdN6vyO9FIG1OUJGTe8rUqVNl1KhRRZqRC7Y9ACrSjZryFVzMLrvs8iJp3P3w53kKpD7uyqLP+Vtnf/sffV9X24pWnnPPOVvWrVunPB84ZiAvplnY7xL4ptxyy63yeiH4zN/ff/+d9L/aWMQiuOz8TWAaLd4uRvv7vdD3MW+1+6H5WMUEQkiWCjGmREZxOQgpbyBky+ZN6qNrtgZx93E1Sm79lx9e/tNWIUQE27XvYJ34FD2qLUHys5MQDaY+QI9oDCarSE5GJiLGYIKVHyQR1WOlamjhJAahcoOqhMkJkKgeTISLTMoB6XbnXLe1dwZC3pt0t9v07k6S62MOVvt+3bRDdiJ6CdunZeN60q1dM7nusv+TgeNmqMu1awx/cFDMl7k7JvNDr79EflyzTSa/+42kpmfCZcYARmphkkaOhkmYxJP8s7TFWyAkOblAtm3Lw4CyOkyA4zDwsyY+dC6vtgzhcV9JUkmc+cr7S1SWHVs1ViuqnAi5GnCGgMti9aa/ZdzLH6prroULzdAbLlX7/MM2ouXNZ+CBSD5mgCs8Tg4YtsnoW3oXc0uahTb+ee02qVenhpC/haDVrxsThbwAlKhq4cr/fxjuUxX5UP748x+Z+Opnav/Crm2KuEGpg4V/ps7/XlbAuoFC0KZDGbS3cm/BBCFr315J3bhBcpOT8K6FKEuQ8AZx4OIJloKUQ7DIOoaw1ZkAOmDen5ejQBDyrwQTCCGoUfivAGFzCxDCOutEuqTu3i0Z6RmSByAlAhYhMWedL9Ubx8O9JgKApmcXGTMQ4s6VgO9HCMCVCXM+lS9XrVP6u/qizpYExGwLup4l7DogmYXvWDO4u3Q9o6n8Z+DFEl2t6GqVJyDEl/zufeYdIWCmnzU+Z9EgzuzQopHQdcssvuRrvq609gm4X3rpJSA6/lURWPbs2VNef/11dTtnIISumpykUchtMH/++5IL0J7vGx8TttVLWAkaN26cSkNOhgHXXKv2+Seufj3lQjNjxsxirg2ORNhhfvxHCfSeKhOLP95OYHjpu1/9LHMWrVC5sD17ndtBAXO6jLo/WrnmL5Xmjqu6S80ytPZTNy3lP97qi5wgPXterEpz7733gttipgK1NJhNIJr6qg0yXLpT0XIoCcR07Guu6N1LfvjhB3UtSb058afLJEd97I94HUlWSbpHS6M9e/ep7U8//SiXXWr0/3wuaXXE7zbHUcyXz+X8+e/JbbfdpvJ+7LHH5dHx45VLDp9bV/IsVjgff/xxdZoWU1wR93aQrvO8BVw5ixYt1D+LbK2AkK2od6dOHYuk0z8CAUICaRfe39d66DKf7tuK/F4E0uZXwrVt2bJlqvloAcIolhyPGX093im8izNgJTJy5EiV5lnwQtwPKxFvxZ/nKZD6eFMuf+vsb//jqUzlVR5aRTzysMGV2B2LFw89ZOzXghUxrdUIdvyK8YK5j+UiFft2usMQeCZItrTQ8o71nDVrpoy+/35lYb5//wHH4qaVDthvm8VVefz9Xpjz5j6B7msGGAA7+c0eLqx7hQVCYAgiQdQRVjVPWoT84Vwv9busOEJsIMRS/cUOOluCBKEhI+t0gGl+FLgIwF+QmiwnsKKTm5WHY7UwUYvE4AcTTprmB1VVZI3pmLTlgMCxdR/3HS7HNmbXGH+BkDQAFw++skDWbjVMU50r1SC2pmOibAZCnMlSF/93k0wonDA75zHtgUEAVeKdD5f4b1dkqTRnJAldCPRNS5B9+/IVEEJLkL59GiIShHdASCAFfgYEhF+tWq+ymAweiAu7toZVVNHO0Dl/82oe03JCRiFB7qMzFlkSGuo8CGo8e9/1apKsjz0x+1NZAiJbghwN69ZSIXv1OfOWkWpmPHiLWvElDwwjBGUgzC+thL6ePtoBkuhrOHi48r6pqlyMKvHlK/crqxZ9vrS2dInJxQp/xq5/JG3jeimAtUckAJBwrOiHVAfICFeY3AO7QZoKIlSAdowWE5SPf3h5+EHjVnkfwjqkgG0BHpDg6JrQs0jm4SPg7EmBSeRRCYmpK7HnXCjRrdpKWC242nhBnuotEELd0CyXnCE3PTxbqcrK9eCNz1bJWwC+9GTLWafkcpgy+l/CrRZ3QIiv+d3w4EwAISk6a8e2EyKJzH7kdsdvX/N1XFiKO09OnAiT1kmK2+qnn36SBYgYwxVAijMQQjCVFiEcDHft2lV+/uW/aqJpLp6ZgPJ3WH90LLRoJMFdXFx9lXQpCCd7FBJOcmDlzqQ6kHuay+W87+0EhteNfelD+WXDdhUV5ruZBHk4ISiaYyhczPjdodAKkBY/p5N4q6+PMekfVEiUS3eUW269zQFqaX0Q4GwMq7QDBw6otk8GGTMBubqxMUIOEZKCboVlBPsls/C6e+BWo91ctMURAYuJEyeopO+9957i3TDrn33ZQdyrSZMmKs0ll1wi33xruGGa8zfvE4g5+/+6KesnWjnR1Uf1k84Nb77IYj8NroipcCfUQpCGLj8UKyCEx/cDvDYLJx50JQoECPG3XTTpvz/1MNfhdN2vyO9FIG3eGWAc3wESov6N1X9toWdux7fefAPkxPeqQ3SLHDPWAMDNaVzt+/M8BVIfV+UwH/e3zqXR/7Bc5VWe5cuXYezfR6nm6qv7y4KFC5WFX+9elytwmXPrkSNHFRtv7UhMhFFAW3XdTTfdJG+9/Y7a558xY0D4PGOGssyjayLHarT21MFFHAktdqzKw2v9/V6Yb3HwIBbW4arL+RGt/+aD0F3zolVIIGRbIjhCMLbg8IIDDgIhHKmXd/jcP7dsBpdCWwdJKlcg1EqqWdte7nOAyX/aIoTkLW3btffy6oqdzNkSpGpkbZjmR6IJEZnixB7JPXFUctKzESUmF9YfsAbIrQITrHA14MzCYDmkWh2p0aQzCB7rS1T91m4ry+dDAyEkQSQZoj/C1f7vAWJQCHoMRoSSpnExylz/1Y9XFAnPq4EQtv2F/35GoaW9QZb6xN0DlCVI4p4kZaFAUIRCSxC6a3BiF4GwvaUt/KhZhc/lh46+1JGRjRQAQiCEgEiTplFlBoQMfeZdWbfNAJsWvjAcQERNj+rQ1gJMyPeF6DSF3CEfg2+EQkubu6/rqUKx0j3m2583yKfLDeCU7UmALBwTGAqBKt02/N2+eUO5BpYmbZrFKZP3BbBaYR6Um/ucK8NvvExZ9DwF7oCvEIqVQjJPZ76L32BVcv+LH6jztCAaB/JcV5YuKlEJ/cmF32YmXGGy9uyUrF07ACgEwY2lhYQCBMo/jrDEABXpDpOXmaEmbgWYiFSBm4zhdIiu1ehkjdKwX+IZgJIg8BGJxMoAOCGSE7dJfmioRHfsJlFt2kt0s1YSVvMk2OCqKr4AIcyDH8vudzyl2pihdZfMPjngIo/I+Jkfq1vRFWbYjZcqS4wDycdUe7LNKbWiI+XTF0c4Is+4AkL8yW/broNyHMTMI154T92Lz8AtV3ZXE2dNwupPviqzUvzDlaxeCOHJ92fChAmKC4G+366AEE6K+l11Jcxcv1el4gSRpJWMokFuoadBckpzVUrHjh1lNcIt4tFR8j/s0weXwongTz//LJuw8kQz2YYNG4JDoqOMHTcWK0kXqDT6TyD31HlYbb2dwPDaK4ZNAZCZKV3aNJWXx94s8775RTYn7lGEvnSBIQ9V3x6d5KJC9zwCs/yOn07irb6OgF9q0ybDz7or+M2qW4RSpvXRRRddqNRzNqK5/PjTz0Lr1y6dO6ljN4NklxFVnFcGeXLuq3OUaxX3aaVBQu9bBt0Mq4tFPKQsiJo2i1f75j+0CqlbN1Y9b+R0+98fa8yni+yz7Wgl9QueUYbuZdmaNmvmEZwvkknhDzNgz0N092FYeooVEMLnXVscqkT4QwBn9+7dAQEh/raLfo59rYcu++m+rcjvRSBtvnbtGknFGIIuDJ06dS426WW78luwBGGdKYy+dKkPrjH+PE+B1EcV0sMff+tc0v2PLmZ5lecH8DFdcUVvVYwBAwbIhx8tUHNatpkW54Aj5HXiIoh2PyR/zLUDT1rDDuh/tXz33Xfo9y9S4BrHAwkJCap/5fyZblWMCEbXRmexKg/nxv5+L3T+7Nv6XXWVLF26BN+GuoofJBQWLbUKedEqJBCSkPA3xuJcJTZG6AoIwVhj3Vpj0qMrp7dlZRFiAyFa49ZbV5YgoZhMScFxRKc4LLnpeyUfK9QgHgAZYx7C5SJCRVqOVIElCOJ6Sn6VCImIbSGxrXvAisRY1bG+m3GUT4gGQtylcz736Yv3KdcIHjf7hdPE/s0J/8bEptBdB+f3Hz4qNz00W4EcTO8OCOEgjBP3WQuWgVjP8IdePGucioDhzgWE+ZaUsNP55puvJWHbyYgrzDsmJg7+0mdhr74CQugaQ6EliDuLEJIjkiMgzbTapS4s/MMBcFxcnGV4RHM67vcbOdXhVsDwxXQt8Ed2wz1h0CNzlDn1GQAwXnv8ThU1yJzXs29+JYuWrlaHGHr3rmsuUvtmIITRfBa8MKwIxwRBkFsenaOIOzlQ5fn6cKNZ+9dOGfrsuyqPK3t0lEfvMvwg9T2fe+trRzjgNyfcJW3j48pkkpR9OEnS/vpTsvftESCLAB3DFDcIHkXJOQjg8SjAEACM5P5Q1jR5BEJgSg4LEGsxQNrgyCgJqdtAsjJz5Mj2bZKN60IaN5HqrdpJTKf/k8h6Da0vNx31FQjh5GDgmGmyt9BN6Zvpo1XbEPyipQjdl2iR89HzaJMY9Csmee6tr2ThEqO9n7z3GrnsHANYtgJC/M2PJFmc/J5960R154HgCHnk3/0UaJ8NqyF/8zVVo8R3j8ItoVu3s2QPwDICoT/++KMCLejWoqNaOFuEEOQ9iPDL/LbqAQ8LRnNYrtDoSVObNm3ks88+kxYtWzkmsws++tDhmuCqMsz/riFDFIGmXkwI5J6u7sPj3k5g2Ha08KOQJDUlNV0BIOqA05/zOraA69v1ij/E6dQp/9NbfdFFmDxOFLOlnlYAiT9p0kz3FsoUkNHdN2Kk/AzQ4ZKeF6tj7tj6Fy74SJGmMuEMrDDeNeQ/avWSq4aUQ+Axigafh7MQCG6HATdJSDnoJZGvKzGHeR4zZoxMnjy5COm5q+usjitAWY1ZjbPvvvuODEHoYIoVEMLj+tnnPoX8J4ECIf62i36n/amHUfrT+29Ffi8CaXMz8aPzpJct+uyzsMKaMEE1LrkiNm3ejMW04pNYlcDijz/PUyD1sShCsUP+1pnWEyXZ/+iClVd5jhxJFoIPFIKw3f7vbLUwVhULUhRa23HMOA9kqYy6lZCwTQHQOiIMybBnzZrlWJzkNWd2aK+AD+67Ei7Kvv/Bh8JoYmaxKs8vcMH093uh8+Y4h9GKKKwHeauOwDoxJsbgoKuQQMg2cIQoixDMcg0ohNsCcIQYK7y6cnprAyFaE+W7dWkJIpiEZe1RIXTzc46iLQEWhNeTbEToPL73sKQfBncB3BxCqjWQ6JYXSGR9mN5HMVTnSTDCVc38BUIWIboMLQUoMz5aihCfv6p9ulEwFC5ffi70sRMnuEFOAlqGUNwBIUzPwc3cjxk1xgBCvpkxBlEHItXkgXmWtrgCLvDey/YEEEweKFCWIJjPKPEEhLj7HgKMAAAye0lEQVQCVnQ9WoH9v2/fK9Uqlj7masuwo7SSiIa1wuLZDzgmT67SuzpuDk/83Ijr1aSXPuYczLENqsCi4fDRVOkz/EWVBfkjZjx0q9o3AyGMWNMXoIbZJ5Yf4TfAG6KjQ0waNlB6/l9b9Rz0ve9F5Jumyv/VtNEnJwKoE0MpM4wz3W0Y3cZMnuuqHiVxPBPm1cdW/ya5hw8iJDVCe1cLgzFHGMhQsyQH3CAMp5uXcgxgSJYxgQUAwv5Uzd4tChAETpFgWC5VAWIfHF0bugmW9JSjcAvKlEyAKxHNWkiDC3tJVJMWFlcXPeQrEMJ3555Jb8v6bbtVRvo9Je/Ko4XWIKNu7iW3gptBvaN0S8A1dPFJQnv3LWxvWmrQaodiBYT4mx85VfCUyfm3P63yvhZAyAO391F9BZ89f/NVmZXSn5v+daMiNY0CYEkCtGbNmqmBizmMoTMQwqIQBCTRKS1HXMnlsDKhi0KNmidJMs3mw7TwoTUJARju08LEHMb0BUw8R2ByrMXfe+rrrbbeTmBSjqfLlSNeKpIFQ7Jffm578AxFwYUuSX4EtxABEwr5iswh04tceAr/8FZfeBXUt45V5XdNT6T5+wOsEo4dO0ZFJeNvEqXSHYt99DdYUb4WK4oURml5+JFH1b7zn8WLv5er+/VThydMmCgPwZ+b4WXXrl2r3OjSwTVmJSiWdIdFElciCay6SsfycqWRFpSMkEHgJBJ9ntnVxip/b49x8jBkiHsgxDmvVi1bBAyE+NsuzmXRv/2ph772dNpW5PcikDbnN01NtNBY5md/PyIgjYJbxOeff+ZoRlqD9Ord2y+LKZ2JN89TIPXR93G39bfOJdn/mMtXXuUxW1uzPyQvkpWMBUg8Y8b0IqfI+UTOjfPOO1+NxXiSbo/kFyF3CIXRt+iGQkJrAuJz585Vrik8RzCE1nokp9ZiVZ5AvhfMl9+Liy68QC3gDB06VHFZsZ6MgBNbkYGQBLjG8MPKlwGjTvBG0CYkGECIsdqnlaa3NhCiNVE+W0+WIAW54ANJ342gFceNAsLyQ4JqSk4aIsTsT5LsVK4wRiK6RWup2aYnuA3iva4IHxFtEUJehsFXFzW3dpVR/4u7YDXPcJUYOxV+4eu3q8nUr+8+XgiC4AEsFHZS2/ccgpXAq+qIOyBEX1OeUWN0GfRWk5smJKSCKPGwMOqLWRo2jFTRXxpha5aISBLdhclff65XvtoJW9dJXJ0QcGYYq4A6bas2naXvgNul1Rmd9SHLLSe5/0JEBlpccMKzEhYh/srjCLW69LctyqJk1Zvj8fwUN1Enqn3FsMnKAiWmZnX54uVR6nZmIIQTbQIX5kE8VxR/B0Grdn8gaeqgvucpS5/pHyyV92AuT3lpzE2OKCi/b94hoyYbIeaGwPKE1idl4RbDcpAb5MiPKwF2HJbqDeopl5gghMfNz0hDKFy4xYDXJKgARMToQ72RguxMyYdlCeOXB0dWlwK4yIDNBxYy6XLk6CEJa9RYmva+Vmq0MHxE3eXpKxDCvG5//DUQoR5U2a6Y+6B6T9/+4ieZ+8kP6hgJbls1rlfMhJfPFC12jmIlv17taPn0pREqvRUQEkh+9Hl1hM91ihoTSL6qsCX85y2Y5997r+Eu+NZbb8ntt9+u+A/Yu7kDQuiqMACkYosLXWPI7UECyfj4eGUd9sknnzgGNFwlXLt2nSP87v2jRioSVlqP0I2hNwbOZpk3b57DYoRpEhN3SExsrAJF/b2nOX/nfW8nMLsOJKN/MvhpmEerJvWEIZ9ja0U5sqRV2PDn5oGk1xjozYfLXTzcZU4n8VZfVnUm2R19xFetXOk43atXL+WPXQukqbSK/Aphda+7bqA6zzCMo8eMdaQ175jTPY/QzfRVZ8Sj9evXK8uk1NS0Yn2Avp6cHxs2bFDm10cABHM86SyMTHPD9YZJ97Rp01QISGfwmrw1N4GU1Ur6YHX4XgysXYk3Ez7naz0BIf6Wx5t2cS6L/u1PPfS1p9O2Ir8XVnr2t81p8cdJLwFtzXlDN4bXXntNyAehSYTfANH2559/bnVrWEDNc3wPnBP4+zx5Ux9/3w9v61yS/Y+zXsy/y6o8HJMrEAY3p1O0GQgzl+err76Ur2FJQbcYAgu0LqUQaB7/2GNwgTXAbB4n3wkXYxn1izxJZl4wusdyPECQmsJFEC6GaLEqj/k74Ov3gs8DI+BwMZegDKOBVYULJC0Y+WxXbCBke6LhDQPGVFqGEK0kearNEaIfl4q19WQJkp91CG4xR9GOwbAEqYOAFSGSeSRdMpKPS0ZSClafYyW6+YUSAUuQqlF1YQnig9kdVKGBEPpvL8TE1hsxk9zR5J6T8ziY2n82dRReEmPFz5wPyVR7DZ2iDp1qQIgOd0sg5MiRLLBBF61fRIQBeBD4MAuBEYbHPXTwLwWEpB3eJH3Oj8IkFECWSaJi20tc2xulekx709Hiu+zkSEi7as1WdfKzqSOlrmmSUfyKk0d2Y5LCxf9wWCpwknvnhDfkr3/2K1LMRVOGW65QENC4f8oH8l+QH1KWY1JNnhANhPAD8OObjxqA68lbqT1afVw96mW1r1d+Cbr9jWhCN8Mlh9Lvws7y8J1Xqf3n3/4algdr1f4ncLuiK01ZSfo/O+TwiqWSfzRZasQ3kbBIWIMcO6J4QXIy0iW4Rm2JBFhVtU59r4pErpHjv62UnAP7jOgw1WsAt6wtJwCQHNq9XULrN5T4q26Umq07eMzPVyCE4FHf4S8pNzSuxi+f+5CaID/12heK98XjDQsT8Nqlc4zwnFZASCD5uQNCAsnX27p5m45RWLiCRU6P6667ThaCCM3c77kDQugOw1UUSrNmzeQHRPho2rSp49ZcTRk4cCB8bpeqY8OH3ydTXjSsrwhIcYDEfpTWVRxc5QNUo/A43ztG/CDvA+VzTEh7975CueD4e0+VkYs/3k5gaFHUf9Qrjlzef/ZeIa8TQSFjYQaDRvQp4wCckweGQlDuivPPdFxzOux4qy9zXUmE+zD8vl97ba7j+8loMWTmvwvuIez7SUDK4dzq1b/LBYg0QHkI10yY+KTad/7zzttvCU2vKQTxbrp5ECxErpLFixerY6lpJ1R4R/XD6U+L5vEA/PeqZ3crXETNQLdOeuEFPVT4XU7y6PoZFh5RLJ2Z+Fdfp7d3gv9j1qyTwJk+rrf+TPg8ASG+lseXdtHldt76Uw/nPE6H3xX5vTDrN5A2X7nyBxkKUtTExERHlleBW4FAIUFwWmFyEklhZJBZiBBiJSRdjYtrYHVKuVn4YinlS318fT9YQF/qXJL9j6VyKmB5WE4uKvLbR+F3nUAX+Y/4beQ3ftPmLer5YD9PfhEe5z4n7/z2s//FbF4tJpLzQ4c8p2sMeaPcSSDfi7vv/o+88/bbip+E0W/IgaPB7goPhGyHa4xCQpQRMtWHzyf+X7v2D0t92RYhlmop9YO52WmSmXoQlh3bJS9tHUyfC1R0GM0JUpqWILpyfNXMQMgHz92rT7nd6sEtE/W97yW1isxIE+SDsBo0pWdky2X3vqDyfPCOvtL/4q7qRXcmS9U3rQgWIZ4sQXRZXW21y0xqaoLB3p++Re7sVxtEgiDRNEu1thIUixU+bD3J7IUrZN7XRsf38rhBcnb7eE+XKOsAWglQGMp42gO3yLVjpgtJMskP8tbEuyzbjP3wuJcXyE8wZ6cv+8rXH1GghwZCaoPAlm5LfBac5WhaupqQ8zh5IMbceoVKwg/CjYgcsgPRTWiB9NW0+1UHfxW4T2iJ0K55A3nnySEO83nnfEvjd/qO7ZK07HvJAxBSs0W8hEUg/O2RQ3gn4XKG1Z2qDZtKdPdeEtbYsysLy5e+dbMkf7FQMrZvBRASLlVq1JIQgB/pOZmyP3EzeEPipEX/QVKrjecJoK9ACC2zaKFFIQHu3McGq7bVVls8TpBDcxPwt5VEIM1nsAjhBNYKCAkkP3dASCD5WtUjkGOMEMNIMZTOnTurMKbUh5atW/9C5Kh96mf37t0xWAiTLl26yDOYvD711JMy6WnD/Ycr5/3gouDoM/Fe0RWJkUAaNWqkBkZmUsqqGAjpVSZaADhbRtHV8K233oTbwBB170lYeRwDq4BA7qnrZLX1fgITJBfcOUmVl2S8S1990Ji8m5TGepOUl30I5Ta4aN0DkubTSbzXl1HrzeAMIIkgB7iUqlWrqggTDEfLKGX8ntKdSH9Xd+/a6XCj5DMwfYb1ZGoqwjM//PBDKs8vYEXSq1dv+Q9cTd6Fywll585dUq++Nbirwz9269ZNRTzS91YX4s+qVSsVeTB/Dx48WF7D6jafVWch4HdGm9aOspvPDx58p3pXzMfM+/4ACJ6AEF/K42u7mMtu3venHubrT5f9ivxeaB372+bs2x/Hyv5LL73oGA9xskrOHPIpUMwgCH9PnPCEzJljLArxt1k2bdosdeBuZiW+PE++1seX98OfOpdU/2Oll4pWHnMZuYBRRQEhxmIAzzGKkG7/119n1LBbFVii+UWMfh/gt2nMQXCE5xs3bqSAalqLpByF9bEbCeR7ERmBgAF4tumWS/JWjt0UGo/75eRkK3dN3poch2ecYcxfXsR3RwM1roqlvQlcnS+J40EJCggxssKYS1mD0DJk7Zr/WeZvAyGWain1g2nJiXJg6/cgPz0sMQ1BolgrxogOU8gJUpqWILpyfD7MQIg/4XOHPPmWbN6xV5EwLjZFqdD34HYHXWPGz1WHThWLEE+WIOb6We2XBhDCSQRXzSndO7WSyfffaHXrIsemvve9LCwkPb0Xkw7yQwx7dh5CHe+E7341Faa2yAWmH7c9Nle27z6kLEcWAuRiR6iBED47yzDZoZWJs9DahFYnFLq5kGyVwonQvK9/Ubwy/P3yuJvVpG/EC/P5U3EGMGIMO9+ykhMEQpZ8J3lHkqRmfFOsbAKRTzkoBYgUkw+C06qN4iWqe28JbdLSqyKZgZAgTI5DCITEFQIhOxB2uF59aXH1LQBCOnrMz1cgZPysj2X578aEilwgN/Y+R01CzM8ALYnM4XFdFUKb8FoBIYHk5w4ICSRfV/Xw9/hzILmbMGGCT5dfiMHC4sVL5NJLeipSS15Mc9io6BpFJoPGgKaKtG7d2uBWiIyUI+CR8VbM4RGnT58hQ/7zn1K7p7cTGK54Dbh/mgJYG9WrJYsm32f5HrM/Yb9CuQ0Rg+65vvICIbS6oBtKMiLIUBgZ5u2331bR9fibnCDOFpZZmZnwC4/maTkL4QwZmtlKhg291wDgcZLRXJq3aInJ2nh5AW4ylE9B0tunjzFJUwcK/zAkLVevKbQ8YlQaZxkI3pqvv/5KHSZ3yf+dbfQzzukI6BHYsxL2A85hf83pfJnw6es8ASHelsefdtFlcN76Uw/nPE6H3972I6yrP/oP5L3w9566XWjNNXWqwY9Ed8WJANDHjh2rVvudgUx9jdlKQB/TW7PloT6mt94+T/7o0Nv3g2Xxp84l1f9oXZi3FaU8c2bPBgBm9LELFi5SfbS5nNznYsa8ee8qEJm/afl3/+gx3PUoBFU6tG+HgA3bJBYusbv37HV7TSDvhQZC3N7A6eQSWLkyOp47KRMgRJGlEvmgP4wSI6TjOhsIcdc2ZXYuNytNMo4fkNTDW+Xo3tVA2/IlruVZEgVTWEaHKQtLEF1ZPiGBACG0Gpj46ufy3S8bVZZczadvuLN8uuIPmfzOt+qwDYT4bxFClxNaVGSAt4LCCD206nAlmUg3YPQrKqQl0+j2MbuifPT8UMuJ8UFYjNByhID0uWe2kKkIh8mPugZCmN/riDZDKw5n+fD7X2Ua+EAoMx++DVYwTRxJjhw/If1AjMp8B8AyCCYhCJe8RoEk384cowA1R+Iy2DmxIxEWId8pstToBvXhP4+Be9oRKQBHSAFQ7yq160pYu24SElu8nlbFy9r9jxz7+QfJhmtMcHgkCFNrSDBAzvScDDm0J0Gq1m8gLfrdLLVal6xFCMFGgk/ZWJnlgOZzcLoQ6KJ8glDIU9413r/nR97giAhjLj/B/jmLlgvd2Jo1iJX+F3VWbWQFhASSnzsgJJB8zXUpif0fser9zTffuMxq1apV8scfhpUlXRAiAWYQ2Bh857/lOri90C+YQjLJZvHNi+XDNmrWrKmyKuF1GzZuUu4t/a/up9KOGDnS4TvsfPHDDz3oCN27fPlyOb97D7/v6Zy3829vJzAEdxjemwArQRGGbo4IC3XOTnETkaOIMvGeaxSZarFEp/ABb/XFKvYG/wdNyykk1SVIYbhD5SsQxNkSg+mo2wsvuEBoqsyVur///kdiEd3FLCTba9qksQqB27JlS/kTzyBN8lcsXwbwo49KOmzYcOHqnbNMA8HvAw+MU4dpwn39DTcWSZKVlSX169WFi2gGoqi1kS2wZHEFaPCZMIeSNGdEsFsT55qP631vJ3w6PbeegBBvy+NPu5jLYd73px7m60+X/Yr8XlDH/rb5kiWLVWhR5kG+J4bJ5Yo4v6cEMZ0t+piOEgIXSC4MWYlehLA65+3z5E99vH0//K1zSfQ/VjqpSOUh0fXgwXeoYtL1jy6AVjJ92ivCyHOUhQBM+l19NTiXrlfWdrQuZb9KQlVnofsSLUJIrEorjcVLlhZZZHFO7+/3gi654x99RN3HOU/+5rNNly/KmWeeibC+l6n9YcOGSSNER3QnZQKEJGz/G68gwQ81x1AvJCcbFQEIIeEKP/T8x5eO//wRDhD4T3U0aBAONtu2c8+x4M99SuOa1KTtsu/P7xH15aDUiG0o0XViYQ0SjY4xS0WHKQtLEF0vaj8QIIT5fLlqnTDUKoX+3vT7NgtXtW4Gj8ieQynqsK9ACN0n6IZR1lIRXWOIJNO6Y/I7xgSNJKbPDL9OOsANwlkYgWXcyx/Jpu171KkLu7aRKaP/pUyYvwVw9dRcg6hrQM+uiNxRfGVw1sLl8h6sNyhmX34zEHLp2W3lqaFw6zFJVnau3PDATBWFhOF9yVPBzlgLBwD3PP22rAFxYjSitFCOI+pRjy6tFYGqlYm1vrY0tuQISfphKTg99kpkzSiQi6J/ys8WAWFq3olUrGqjNw3FB6lK8UmdVXny0k9ITvJhUshLFUQDCYqoJrlVQJaalS4pKfslvFETie9zg9Rs5bm/8tYiZHPiXnl4+kIVkYdlurHX2TLmtj4Oc3WSp2r3KLrMvDr+jmJFX/b7FnlsljFBvR1WQ3cXuixYASGB5GcGQq5B5JBxKKeWQPLVeZTUVnN1uMpv/PjxMmnSJHWaJGa1apE0WECGlwO3mKfgqvKUOjcSgMbzL0wuls1PP/0ol116qTpODpL573+gSNI4yeREtnnz5rJ2nUFsab74AMLytsdAm0RmjGTzzz87pRoGTP7e02qybb6fLxMY87fAyu2F+rnryTflz78BEuLbv3DyMHBL1TTf7pTf91Zfh5OS4BrVUNVXc9CwLdj/8R1xJRwzvTb3VRk+fLhKQhLed+e9VyT5ewAw7rrLGIDfDy4CPn8EHtgNM8wj3bLogvPrb79L+/Yn+yHy4fRAxBhakHCMdvDgQakeFV0kbwI3nGRRyFHy1FNPu5zsFbnQxx/eTvjM2XoCQsxpXe372y6u8vOnHq7yOpWPV+T3IpA2H4X+fc6c2ep9IYkl3SgJOtIVpjTEm+cpkPp4U2Z/61wS/Y9V+cqrPOxTjx8zXFNCYQnExZBNGzcIXQopjPa2ZOkyBViby00y1PPPO1dZdfD4Vlh3NG3aDFHAHpfnn3tOJZ0z51W5Y/Bg82Vq/8EHHkA0OoN/j+6Tj2Icoj8XVuXx93vBb5ErEJsFIRDDbwhlxIgRKkIe963ceXncLGUEhOzQegESArYQWIbws1reQMiWzZuUySc/sIr0DWhoIEAIG53/CIYoApn2Hcy6rjD7KiJHfp7kwBIkK+2wHD+0VZL+hjlrfpbENGkHMCQGYecwaQo+WmrRYVwpg9NTDYQwJOs1Pc9ylbTY8Zv6nKsmsmzLGx6YIbsOHFFp/gVz/DsHXKhW9rn6P3HOZ7J6y9+O670BQhYs+V1enr9YXfOfay+Wflidrh1dXXFUODIqox1PLjJlRZbK6nLywFXAu558Q9Zt3aU0wAnbDZefLe1bNpSWjeoqro1NmBjTyoKRHChRkeGKCLcWfPe5QsE2o2UJSW4pd/TrIbfjX1hoiBDI+GLlWpk6/3t1riHCJH/y4gjHYNcMhDDBzXgOroc7Sz0QnO45eERZjGzZsU9dy+hCj9zZz3EtDxIU+WrVenn6dcPFRyXEH1oqXASwxt0kQKctyW3Gnl2S/NvPkrX7bwnJy0EknWAJqw5LjrxsyQWgkQs/99zMbJAU018TPanrOYrpFHxCq0dJaN36koePxYnjxyQjO0OygvOkWnxLaXzxlRLdrLXHapiBkCsv6CTN4k76DbMdDx05jrCkhxWopDOj28v8Z+7BR8wg2uRxgk+PA+TQllu9EeKaQEn1iDD0oQWy5NdNMmXet3ICXD4kxP3wuaFSt3aUytIKCAkkP8LzvcAXlIZwxIwowrDMdWpUN7hLAiinrn9JbdU3yg1Qz0GLBkIOHwa/TM2aaH+C8/myccN6Of/88xWgwXxGw+x1DELoMfIHQY7P4JbA6CCHMNHkN3DZsmXKqoMrhFde2ddBaHkuBlIzwAHBFUZ+634HCeuddw4G+PGPqiZNaseOHafeL3/v6Ulf3k5gmA+/7dePm66+BeyrCIawf6iO/ofhuF+a97388Mdf6pYEYNk3lNaEwVO9Suu8t/r68ssv5HoAYBRGI2Ibu1o9ZpoIkJHqKCvH0Z+0bNFChTDkufHjH5Pb77hDoqOjZdHChTIKkYf4nIWDo2jTpk2OFTqGVySXAZ8bSseOHeVpgHkXX9xTuWgNHz5Mfvn5Z3WOJK0cjDu3zwQ8988VDtYZzvkiXFsa4s2Ez/m+JQGEBNIuzuXhb3/qYZXPqX6sIr8XgbS5joRCNwWu8PMddgcuX3LJpQos8bc9vXmeAqmPN+Xyt84l0f9Yla+8yrMcFnZ9Cy3s+vcfIB8tWKDcXi65pCcsO1apol5+eS8A0S8oa1E+F/yGP/jgA47IL1fDEuRjRJHjuOF/q0GEDWs/piPIMGXKi3LjjSDWxyILXWyngHPm5Zenqnz5vCUkbJdw8IRosSoPz/n7veDCqyvJg9s43cAoBEJeeskol6fnn+nLDAjhiLyAVldYzTTGcgXgCPmDZSgmZcUR8tefW4RmmmxgNcjEoK8kgBB+8Okv1a6CAiH5mFzlYHWZliCHdqwCGJKEyBSxUqUqJiEFmQiPlCu1YznQQdjNUooOU6zRCw+YgRBXaVwd/wBRAZrG1VEvPsOfjp7yvjLLZ3rmWxtm+cnHTqjLmzWIURM2/vAGCPkbZJqDCsPtqgzwZ9oDg0D2Ga9/ltnWk2VIWYXP1RXmJHRf0lEZ+cJ7DiBDn7PaUvdPDxuoXGhocklhB/c/gFOj2GaFxwhQxGBCSvCKVjwUEms+P/JGOadDc8eA2AyE8BodMiwMvuBZhXnx2haNYuXdp+9W4I3zwCATYMsVQyc7nhcSp347cyw6LTcoAzMtBclKOijHNm+UjMStkr0HYAge3qgmTdU2BxFgco+loI5YpeVKbS4GOQy/YyE8atQTGSDCUwiizUQ0aSaAUCRp5zbJyseHo0FjiUa0mHpdzpNqcY0tcil6yAyEFD1j/YuWQS/DhakGgBzN7s2UnGCngIz21vGvSlJKqrqY72hdRBDicf0M8MQTdw+QqwC6aLN1KyAkkPzY5z80baGsLJwQ856dWjeW2Y/cHlA5mU9ZypMTJwjD0VEOHjxUJNwhwckZM2YgZOnIIkVihA26FnA1RQtJ02bOnKnagLo5nHRIcUXQx1sLV5oI+PNaLSRoZdSZYFgbqYGTn/fU+bnaejuB4fXsV37btENFhtEhcnmcK0vmZ4wcIm9PHKIAEgI8p5N4qy9z1CFv6k+Q41ASLM0g1PMvv/ysQinSRcWVvIhIRKNG3e/oCzgWJEDFMR/BOFfSrFkzNVB35rZhelqMcOWbYzhym0RElo61pjcTPufylwQQEki7OJeHv/2ph1U+p/qxivxe+Nvmx44eBVGkERnL2/ZhuFOGPfVXvHme/K2PN2UKpM4l0f84l7E8y7MCbql9+hiBABju9qMFC1W/uGH9OgVomPvmUISd5bfO/O2vC5dGhimvXSdGneO44WmQrD/xxBNFqklr0xSEMddCgJtui9eCq0mP03jOqjw87u/3gte6Eo5HqkUaIMx9942QyVOmuEpa7HiZACGKI0StTdIShMNzDnnL3yJkB3zx62BFjB90MxDiKxjCQR//8aHiPzIdJ8M0uXnzFqqeFe1PRlqKHDmQqCxBMg4jagQGELXiOqJlgiR532bMnpKkTt1gqRbF8EgFGNiGS1AIVg7T8+XEgcOIKpOLwUs1CY9pLTXb9JTwOvElVkU+GX1HvCQpx9N9zlNzS7BzCwW4RfN8hkY8iFVqs5DDYjpWfa8dPU2F9WTIVIZOZbtfPORZZYHQt3tHGT/kasdlXFl85o0vlOWAXiWb/uAgOattydXdcTOnHZqtMRxgGuJkm+UI+qHtCQUwKy5ADO0CQUARJZoUlVsrYQzub775WhK2JVidllatW4FZ/EpHJADLRE4HObEgWDH/m1+EEXY0Z4g5GdMwdO2ImxDxBJYenIgYE3WjRwjFyj9dER6atsABUpmvJ8g1ZfRNwrDKNPfXGIUGQmhl8hjcoJ6DWxTBE7PQzYWAF61ErPzH2THzvjqM5k1XnCujBvVSqLg5n7LYzzl2VNLB65GW8JekblwjQZnpEtW4mYSC36Ag5bDkpx6XvMwTMODKNsCQPAV5qKJxz7yjdBRSVapgckBukJBadWAJckIO7dwq+QCVap95ttQ8o6PUbH6GhIM3xJPMWgD3JLSxK2Eb168TrTg9BsCa64KurdVEx9zW+lqmTT2RCbLdzx161+e4jQdgdhesr+jeZiZrM7s7aPCT6f3Nj+/9WrhFMUJMOixtKBoI4b6/+fLashSzK0oSJqhR+K5p4feNgxqG3H0MK/AMxess/A5yZf2ee+5Rz73u51j/xMRE8IM8IosWLXK8s/p6WoTRLYf/uMpBU1RKIPfUeVttvZ3A8Fp+T9ivEMh+dMYi2brzQLEs+Xw9elc/kCyHWvYNxS44xQ54qy+6RdE9ylvhYHj/gYMqOd8hPie0yLgDliB0dTELrZNorTR06NAi7zLT8Lnk4tGgQYPk888/LzIw5/mLL75Y5s+fL/URCcC5784EUWud2rUUKEeXmnXr15dan/0+ynDnnYNZJJTnfRlYaD2jDrj4wwg1tJaiC/a69RtcpHJ/OJB2scrZn3pY5XOqH6vI74W/bf7DDyvkit69fWqaqVOnwrJrmE/XmBN78zz5Wx/zfVztB1rnQPofqzKVZ3nM0bMGDhyo3FtZRvbNpGtgH7t27dpixWb//W9wh3AhJQbRgfQiAReYuNDJaDIERMyLIToT8nG8Dx4SRppzHue5Kk8g3wt9X+ctgZCo6tXUHJxg+3PPP++cxOXvMgFCEhLhGgN3GAWDYGROJXDAXt6uMQQsjsDUnIRC2iqEZaPorfrh5o+eyGkghB90hjAkosaBZUWUpL1/yZbfP5PsE4elSdPWUie2kYRXqy0nUg7Jzs0rJf34TnCEBIOfIEKqIcJEcDAGiGk5kn0cpvRHj0totQYS0+ZiiWrQXqpG1QVVQcmtwOiBqz96IxKpV/No8sbJLY8xYshW/KM1QcdWjaURTPXNov0n9cvJc2xP3Rnwtx7U0/SfK9i0GKhXuwYsaEp/9dAVcBETEwdyOLoO1YcFUh5Ww4xpsCcgxBWwwnpSqsPPn+GnrIiRjBTF/2oXGb4+JMfctf8wIvMkKfNzrvK3bFxPmtSvAz3i3Ucxad6s20rnpjtdtgfdK7bu3A9Xi1RMqmMU4W2DWPBbIH9OtPQkjdeagZAfXn9Y5Z+456By1aGrReum9aU5XHSoHQ6k9Tur78st237Gh0tl/rf/VYcZkYbPiVVa83WlsZ+XmSHZR49IWmKCHPnfL5JzaD+stCLxjlaXMEZnyM6SnH17YBlyDNYghkUIy6n+Qz+Lp1f9z7Kx3w1BPxTWoLHkY0KYDmuSE8ePyPG0ZJCkxkmD8y9TJKkRdepKCLhDPIk7Znmra1kuvoNWejS/b/sPH5W//t6vLIuqRYZJUzwrnds0Ve2t30+dP99rvt8U8zvvb37MhwOF7Jw85UqVC502gPsV+WQogeSrMiijPxzQsZ+i8Dl3dunigIbvGFeAVq9erawW+a3iJLVt27bSqVMnxStCiyqz9Y65/pzUbdy4UXbs2CFcPaL7BAkquSJk1db+3tOdyrydwOg8dL/Cfmf3wWShm1wKgFL2CSTS1nxPzoM4ff2pvvVWX+Ywyd7W2QxIaz3zWgJtK1euBECfqiK+9AKHB78n7Lc1UKbvwR6L9+Zzxm/Tz3CF4WCdptZdu3ZVIaCZ1lX7mAexrtLoewWyNfc7zn2Sq3zNZcvKNgjFXaV1dTzQdnHO1596OOdxOvyuyO+Fv23Od0iHO/W2jazeSW+vZTpvnid/68M+25NwTBlInQPtf5zLV57l0fMelonfYz2H0fMXggX0ViAowsUN9smtW7dW33+O+SnOfageV9D6k2TsvJ58YPzu8/vP+TOFY3r2i2ZxVR6m8fd7Yc7fvG8epziPYczprPbN/bTV+ZI4FpSwPRFNQiJSZKcebE6G8mXd2vJ1jWHl6BOdDjJBrm7QTJgr/xQq1RvRA3w+YHw4aC4UidXXuvXqeXN5uaTZu+MPWb14Ltxe0qTr+f0lrkELPMVwlTnwt+z+8xc5nrxTgqrmSQhW2MOj68CqPgRASLoE5VXBqnRNiY5rL3XbXybV6jYv8fJT61zB80fMq8a8Xr/8znmxzTgYY+dM0YOaIi8S0phXn1gurnyyk9PiPCHXx0t6y07r888+VZ2XOe/GjRsr8qPIyEYKCNm3L19ZhjRpGgU/QfBzuLAIMedRkvvUDN8fPUm1ypvgB/Xm6vtG/YbAtN7q9eM1nMRp1xedvxkIYfhcq/tbTdL09dxyQn0NLIRoSXJW22Yy59E7ikwGzWlLe78AdczLypT0vTslee1qydi5Q4JSj+F5DZVq9eurD0g+TMDzMWnIz4FVCK1j+A99kPKSwWQ3iDrE8xpUBW5/AFCqwPItGy5xx/bvgrVOuhQAyKsW30rizukpNZq2AggCDhJYjngS/VF0l466xv8K6DIDVlbX8J3jZJlAmrMwjzy4ADl/XM0DL+d33p/8eF/zR5m/+axlmyYu/ubLvMpKNOjA+zkPZnQZWE++oxbqVkl0X6jT6627+jONu8G0v/fU93beejuBMV9nALUGIbr5OPcJGKk+iQ/caSje6otgINvZFzEDIbzO+T0y5+Xq2WIa3jUE97fuB7wDU5mPv2ADr/UkfG9CCgFYq0G/1fXmAba/ZSuJdjGXzZ96mK8/XfYr8nvhb5sH0wW2EMD3tp3cvZfe5OHN8+Rvfbzpkt31Oa7K71xnf/sfq/zLszzme3McpoEQltPdN5DnOa5mv8brnMXcxs7nmDwX/BzO43Kmc1ce5/PO+Tq3kfN559/8dvE5o3CewTG9t2Lup729xtd0AEJ2KM2eVK+CRcAR8j/LvMqKI0TfXFmGHEmWDDCUU3wdDOgHJwJ+07Vr16mwliC6vhoIKcjBpA9ASN2YepJ9eLtkHv5HTiTvQaTOJEk9ngoT+lzJCa4qBZhUBWMAUKN+S2l45uVSu3FHrEzXk5AwzyvI+p7lueXkmv9ROOjV7eVPmfhsMCc+y4Hk48u9k8Dm/yf4bMi8bZYIkBLVqQNOlJBIBYAQCKFlSK3a1csFCDGXjXoyD2p91bvj+kJlu7veDIQsnj1WTcJ57yCCVmgod9fqMi9cstpBxjr5/n/JBXClcbZY0WlLfctnFB+krJRkSftnu6SCKyQt4U/JByFhZGR1Ca8OCw+GwEUd8wCG5KalYotoMkDsyRcSBMAkBFY9JEelSww/bhnHYGGSCksQ/AuKjoJLWwdEiekgtRApJgLvf5CaHBvWBKVeP4sbONq78BytW6w+rBaXWh7yNz9eZ4gB5jhn7m++zvmU929Hn1hYXfZlxj/3JWP9jX9I5+W7pXP09576er31dgKj05u3jvZj14Dy63qb05xu+4Hoy19dKD2z/6Wo54SEjcZPd3/5+gVhMqdfQ/Zn7L9tsTVQ0ho4ld6Lkq67nZ+1Bipa/1Ma5TF/A6kF/d3n1p2wN+eYWs2ASvj76e/3wl15fTlXJkDItsTEAkaKMQQDLrRuEJRe3mSpvijqdEq7K+F/8uPXsyUvI0XOPqcXwgWCGOf4HslLT8ZKdLqkHU2Rw3v3y7GjxyQdJtbBEVESVb+p1G15ljTu3FuiAYjYUnYaoKURLZdOnEhze1O6xhAIqQYLgB4XxCEsoTVHiNtMTsGTVkCIN9XYl5Qi90x6R0WwoSsOPwPkpfjoheHK8sSbPEozTV5GumQmJ8mJXTskZfM6yYI7TBCICEMBdETEwpUlDNw9WbAEgfVIfnqGYRVCIISWSySNCgf5MbhysjNOSOqhfZIJrpHc8BCJaNhEYjuBGyT+DORTX6oCXLHF1sCpooHymMCcKrqxKqetLyut2Mcquwbs96KyPwF2/W0NGBooEyBEW4RwpkFbEAnKV6hSRbEIqWwPQ8Lm3+TrhdMxydol53XpIi2aNJFIrDKHYNJE//jUlCSQKW6TY4cPqMlTtdh4aXpWH4mJ7yIRNTFxCrcnTmX5zHgLhJAslaSpdPFq0aK+sgwpy3KW1738BUJ2IVTvvx6e7Sg2yVZfHjdIOiDsL83yyluUqwv4QAiGpO1MVNYhaTsSJOdoslRBNxoaGo4w1zXgrlYN4EdVoPVw6wPAzIgyeTm4LjMNViApkpl1QnLgFlMVUWOiWrSRGvinQZAqAFMY5cMWWwOnigbsCYxvLWXryzd92akrhwbs96JytLNdS1sDnjRQRkAIOEKUFYiykjTKBFBk3dqK4RrjSUmn2/k/N/wqn85/RZL3/CkdmzeSeHBNxNRvJJFRNWj7JFmISJF6ZB+2GTBRDZUacW1sS5ByfAi8BULS4drF8IHVQIDUtm07RTZXjsUus1uv27ZLdu5LhgFEVUQY6eCVCTYLxwghH3z3q4oS1Lh+beneGZwZMTUVN4R7I8Eyq5q6US4sOrIIhiB07rGELZKxb7fkAuAIhg9keFh1WIZESHBomHJvUWaO4BjJzQaxMd7jdIAhefB4oZtMZIMmUqdNR4lu0sK2BCnbJrTvVoIasCcwvinT1pdv+rJTVw4N2O9F5Whnu5a2BjxpoIyAEIMjxCgMvb8LXWMqAFmqJwWdjucJhHzy3ivyz9Y1Uqt6pNStGSUN6taSWlGREla1ioSBe6Jq9ZpSrU4jqRnXTqJi4m1LkHJ8ELwFQnbv3i3//e9/lUVI/wHXqJB95VjsMru1mYjLmbzPXSGsyHTNUUjcXVuW5wpARJXHSDEIm5t5+JBkIIpMxsE9kpl0UPGI5KaDNDUXLjKwBKFPPY3uwIgpVWAZFIpwueFwf4ms11Ai6zaQyNg4CY2uKbYlSFm2oH2vktSAPYHxTZu2vnzTl526cmjAfi8qRzvbtbQ14EkDZQKEbFNkqRydAwKhewwJVxRHiG0R4qmBSuP8zh1b5MclH8uuxD8V4WIUeAPq1giXGpFVJRxACC1DqsU2VFwgtRueKRHRdUujGHaeXmrAFVmq8+UaCImJiZV/IyZ4F4QerAxCQIOkUnS98xSlxKwPEjSR1ZpCeJbknJ4Io8zXl/U+wQ4VWhchcNMJhiTtlxPg/sg+ngJuHxClKjAEfSyIjYNCQyUUoa8j6wH8qNsQEZ4agOC4ttfRYcq6bvb9bA14qwF7AuOtpox0tr5805edunJowH4vKkc727W0NeBJA2UChBgcITQ2N2YryiIEEw+bLNVT85TO+fQTxyUJK8rpiDTBFgkB4QABkKqYQKnwpeAbqAJze3KBhEbUkCpVw0qnIHauXmnAVfhc54szQKRJ15g2bc6oVECIsx5O198MOa54QxAqNy8rQ4XYzcvMlLzcbHXc8Akq7GcB8AQzekx4hLL+4Ja/yzs6zOnaNna9yk4D9gTGN13b+vJNX3bqyqEB+72oHO1s19LWgCcNlCEQYqy6MvQOjEGwgmsDIZ4axz5va4AaWLtmjbzxxhuydu0arxTSpUtXGwjxSlN2IlsDtgZONQ3YExjfWszWl2/6slNXDg3Y70XlaGe7lrYGPGmgTICQk+FzCYIQBUGx8G/dH7ZrjKcGss/bGrA1YGvA1oCtAVsDhgbsCYxvT4KtL9/0ZaeuHBqw34vK0c52LW0NeNJAmQAhjvC5dOJXKIhBmLpujQ2EeGog+7ytAVsDtgZsDdgasDVgaMCewPj2JNj68k1fdurKoQH7vagc7WzX0taAJw2UDRCSuMMwBAEOUgCXGBqEEBBZawMhntrHPm9rwNaArQFbA7YGbA0UasCewPj2KNj68k1fdurKoQH7vagc7WzX0taAJw2UDRDCqDFEPwiE0CjECNRgu8Z4ah37vK0BWwO2BmwN2BqwNeDQgD2BcajCqx1bX16pyU5UyTRgvxeVrMHt6toacKGBMgFCjPC5OlaMURKG0V271naNcdEu9mFbA7YGbA3YGrA1YGvASQP2BMZJIR5+2vryoCD7dKXUgP1eVMpmtytta6CYBsoICPm7ADSp6j9GjTHixwTLujWrixWIB66//nrL4zyYlZ3j8px9wtaArQFbA7YGbA3YGjh9NWBPYHxrW1tfvunLTl05NGC/F5Wjne1a2hrwpIGyAUISdhQEBQMKySczCAARmoNgzyZL9dQ89nlbA7YGbA3YGrA1YGtAa8CewGhNeLe19eWdnuxUlUsD9ntRudrbrq2tAVcaKBMgJCExEWSpsAUhAKJsQ2gXUmCTpbpqFfu4rQFbA7YGbA3YGrA1UEwD9gSmmErcHrD15VY99slKqgH7vaikDW9X29aAkwbKBgghWSpE/SksAB1k7KgxhcqwN7YGbA3YGrA1YGvA1oBHDdgTGI8qKpLA1lcRddg/bA0oDdjvhf0g2BqwNUANlBkQAkMQCYJrjMAqRNOmrl3zh2Ur2BwhlmqxD9oasDVga8DWgK2BSq0BewLjW/Pb+vJNX3bqyqEB+72oHO1s19LWgCcNlAUQ8v8AAAD//1sdaGgAAEAASURBVOxdBYBUxRv/rjvh6O4WxCJUREowQexCxEbsBgUTUVEsxAAbQSwEbMXmr3AHJlfE0XDduf/vN3tvebe38Xb3bu/Y/QZuX82bN/ObmfdmfvNFQGpGpinARMT/KYD/TPjlEykb/+Cj+mHq1Kn1T9aeKa+otHtNLggCgoAgIAgIAoKA7yIQHhaqCldWXuG7hWzAkgleDQimJOUzCEi/8JmqlIIIAh4hEBYa4tH9Rm4OSEvbxtxHDcc10yCKCGFWJCVZiBAjAEocQUAQEAQEAUFAECCSCYxrrUDwcg0vie0fCEi/8I96llIKAs4Q8AoRkppeKxECQRDOkVkyxETJmzbazJ9IhNiERU4KAoKAICAICAJ+jYBMYFyrfsHLNbwktn8gIP3CP+pZSikIOEPAK0RIGqvGmJj9CAALwoIh0JMJoEAmQn63mT9HREh2Tq7Ne+SkICAICAKCgCAgCPg2Ai1bJKoCQjWmqKjItwvrYemio6PrSNAIXh4CKrf7BAL6fnEoO8cnyiSFEAQEAfcQaJGY4N6NLtwVkJaeYdaGMQXANIgSC+Fdt2yECBHiAvISVRAQBAQBQUAQ8CEEhAgxXpn6CZ8QR8Zxk5i+jYC+XwgR4tt1LaUTBJwh4BUiJJ1VYxQTwuIg2AZAOYb/Jye7rhojRIizKpXrgoAgIAgIAoKAbyIgRIjxetVP+IQIMY6bxPRtBPT9QogQ365rKZ0g4AwBrxAhaYoIMWdF2QjhH0iGJG9y3ViqECHOqlSuCwKCgCAgCAgCvomAECHG61U/4RMixDhuEtO3EdD3CyFCfLuupXSCgDMEvEKEKGOpYD6gD6OCSUmGpAgR4qx+5LogIAgIAoKAICAI1CIgRIjxpqCf8AkRYhw3ienbCOj7hRAhvl3XUjpBwBkCXiFC0tLZfS5TH/xj9hpTuyNEiLPqkeuCgCAgCAgCgoAgoCEgRIiGhPOtfsInRIhzvCSGfyCg7xdChPhHnUspBQF7CHiJCIGNkNoAjzEsGYJjIUI0UGQrCAgCgoAgIAgIAs4QECLEGUKHr+snfEKEHMZF9vwbAX2/ECLEv9uClF4Q8BoRAubDFMiAs/tc5UaXTyRvEmOp0gQFAUFAEBAEBAFBwBgCQoQYwwmx9BM+IUKM4yYxfRsBfb8QIsS361pKJwg4Q8ArRIiyEVKrGHNYQUYkQpxVjlwXBAQBQUAQEAQEgcMICBFyGAtne/oJnxAhztCS6/6CgL5fCBHiL7Uu5RQEbCPgFSIkLYNVY1gdBgoxvMMSIaIaY7s65KwgIAgIAoKAICAI2ENAiBB7yNQ/r5/wCRFSHx85458I6PuFECH+2Qak1IKAhoB3iJD0DNAfZpUYZSyEiRBTDaUki2qMVhGyFQQEAUFAEBAEBAHHCAgR4hgf/VX9hE+IED0ysu/PCOj7hRAh/twSpOyCAJGXiJBMRX+oH4W6okXYRsgfNutg6tSpNs/jZHZOrt1rckEQEAQEAUFAEBAEfBcBIUKM161+widEiHHcJKZvI6DvF0KE+HZdS+kEAWcIeIUISc3IMMFTjDmwegyrxgSwjIgYS3VWPXJdEBAEBAFBQBAQBDQEhAjRkHC+1U/4hAhxjpfE8A8E9P1CiBD/qHMppSBgDwGvECFp6WaJEOU5hlVkKKAGijIiEWKvVuS8ICAICAKCgCAgCNRDQIiQepDYPaGf8AkRYhcmueBnCOj7hRAhflb5UlxBwAoBLxEhbCNESYGwC10tA7yTkiyqMRocshUEBAFBQBAQBAQBxwgIEeIYH/1V/YRPiBA9MrLvzwjo+4UQIf7cEqTsgoCXbYSYAYcD3VrVGDGWKm1QEBAEBAFBQBAQBAwiIESIQaA4mn7CJ0SIcdwkpm8joO8XQoT4dl1L6QQBZwh4RSIkVanGwEYIUyAsCWIK1GyEiESIswqS64KAICAICAKCgCBgRkCIEOMtQT/hEyLEOG4S07cR0PcLIUJ8u66ldIKAMwS8QoSYbYRAKcZMhph9xoixVGeVI9cFAUFAEBAEBAFB4DACQoQcxsLZnn7CJ0SIM7Tkur8goO8XQoT4S61LOQUB2wh4kQiBPEgtBcKcSACLhojXGNuVImcFAUFAEBAEBAFBoD4CQoTUx8TeGf2ET4gQeyjJeX9DQN8vhAjxt9qX8goCdRHwChFy2H1uAJnYba4SDGHhkJSNohpTtzrkSBAQBAQBQUAQEATsISBEiD1k6p/XT/iECKmPj5zxTwT0/UKIEP9sA1JqQUBDwCtEiMV9LkuE6NVjUjY1DyIkLy+X9u3dRyUlxQqXAPZw40pQ5A7fEBkZRW3atKH4hARXbj/C45qopqqMasrzqLqilGqqa6imhusZfFcgUSD+QsMpOCyBAoLD+VzwEV5e72e/qKiI9u/fT8XFRYYeHhUVTa1bt1aG8ozcUFZaTbl5lSpqQnwIhUcEGblN4ngbASaRTTU1RFVVVFNRQabKCvOWj7nTmUlm1fH4/QUvXcHB3PdCKSA0jAJDeMvHAUFcty6+37xdTHmeIOAIASFCHKFT95p+widESF1s5Mh/EdD3CyFC/LcdSMkFASDgHSIkI9MsCIL5MavEmGmGAFaNaXoiZPeuXVRYWEBxcXEUFRVFwTxZQDBKhmgkSBVPRoqLiyk/P59iYmKpfYcOKh3f/kGF1lBV8V4qPZBCZXl7qLykkqoqqvm0iYIYypAIovC4thTZegiFRLXliVl0s4FEETaqro3Xd1NkPiMjg7768kvC1kjo3r07jR03jrA1EvbuLaNNG/NV1KOHxlHbtuFGbnMYp6yikjJ3HaSd+3LUxLtDqwTq0Cqe4mMiHd4nF+0jYKrmflVRTjVMjFXl5qq/ytxsquZjRYxUVzENwn2S2ceA4CAKio6mkMQWFJzQQm2DomIoMCxMESL2nyJXBIHmjYAQIcbrRz/hEyLEOG4S07cR0PcLIUJ8u66ldIKAMwS8Q4TAawzYD8yb+Y9YSgChqVVj8vPyaN++vdSuXTsK4wlCEK+WBkKEgYOrREgNr8hW80SlvLyc9uzZQ23atmVyJV6l5as/NZUlVF12iCrytjMRsoUqC3lSVh3Ki9OB5no2lfE2n0KiW1BUm+MoNKY9EyL9nMJx6ZzXqaC41Gk8fYSw0GBa8dg1+lMO9/OLSmnq3S+rODdfeCpNHDFQ7eNcRWUVjRram265aIzDNLx1MS0tjdatXUPYOgqlpaWUnZ1NPXr0pEsvu5QGDTrKUXTSJEEyM0vqECHdukWSu5IhX234h5Z/+TvtPpBHNaqz181Cv25t6capp1CPjq3qXpAjuwgoAqSykmpKuL/ls+RVQT7VFBQwIVLIJEgh1ZSVkomJWFMtEaLIEAiFsDRIIEupBcbEUVBCIhMiiRTCpEgQSwwpCRFIh7gYlq3+hT76PtnuXRFhodS9QxL16tSaUNfH9utiN667F7747W96ceX36vYX7ryIOrT2Jwk8+6j9+eef9NFHH6pv15133qW+abZiV7A00datW+nvv/+iXbwQ0KZNWxowoD8NHjzEVvQ658rLy+inn36m7du2USi3r+OOP5569erl8HuJuCX8bnIUsACBdIwET4iQf7btpfSsA3Qor4i/9QGqnQ7o3o5io5ix98Ggn/C5SoRkHzpEm5KTafPmFAoJDqGevXpS3z59qWu3bg6RcqeNaAniG7c5JYUOHDzA7aE3Hc/tKyYmRrts2WKMlcfjN1dC9+7duE94RvJ/8sknlMck9KhTTqHOnTs7ffyOHTvo++++U1LCZ511ltP4RiK4Wy9YrPv3338phet0586d1Inz37NnTx4nDGJpZv9aoND3C1eJEHfx96RfuPtMb9W5q/3C3fIY6R+elNno+8dIPrQ4zS0/hYWFlJLC7/WUzRQYFEhdunShfv36q62WZ+ttQ3/D9el70i/06WD/heefp+ycbBo2bDiNHTvW+rLdY68QIWb3uZqvGHNe4EY3OblpJULSUlMpMTGBEliVJSQkREmDgAjRyBC7qFldAAmCPzT4Sp6w5PKHMicnlwcOxgZ2VskdMYeVhbupZO//qDx3OxMiZRQcEkWRLbpQaAQIoAAqK9xHuXs2U0VFGZMgnSkoLJ7aH3+p0/Kde9diJkLKnMbTRwjhFfA1z8zUn3K4rydCZjERMqmWCJk0axFVsnrP6GP70N2XT7Ck8d0fW+n7jVvV8V18PjI81HKtsXdycnJYGiSdcnnrKGRlZdGvv/7K7TnREBGiSYKACMnNrVBJJySEEogQVyVDQB5hcrr2l78cZVFdC2TVjEsmHk+XnHaC07gSgbVeuG/VsKRZ5YH9VJ61QxEgwdzeg8PDKJhJjSDeMouLLkfMRLKqWgVVl5cyMVlI5dxmKsv5mCeaQYktKaJLNwpv095MiIS7Pvl7+cMfaNW3mwxXy6ncj0AohoY0nErcZz/9SYuWf6Py8Mp9l1Lnti0M58dWRBB28175TKkWHT+gq4UUtRW3uZ6DNOKok0+mbdsyVRbTMzIpPr4+Eb9l82a68sorafv2bfWKcvTRR9Pil1/m/m9bkgyD3fvvu5f27t1b597ExES65dZb6brrrq9zXjsYOvRo2rF9u3Zoc4vv7959+21esz7pDhGyLzufnnrnK9qcuss6OQrjtnnTBafS2OP71rt2pJ/QT/iMEiEYv1xy8UW0YcMGm8W/7PLL6aGHHlYStNYR3G0jkKS95eZZtHr1atUPtXQxFhs6dCgtXfaGUjvWzl980UX0xRefa4eGtp9+upqGjxhhKK6tSJi89e/fT43zXn55CU0591xb0eqcu/eee2jJEnOf+t/vv9e55uqBJ/Xy3nvv0h23305l/C2xDh1YennRc8/RSSedbH3JZ4/1/cIoEeIJ/u72C0+e6a06d6VfeFIeI43R3TK7+v4xkhfEaU75wdz0umuvIbRFTZNBKwcW/s8+5xx68MG51L59e+20ZdvQ33AtYXf7hXa/frts6VK6/fbb1Kmrr76GHn3sMf1lh/teIkK2mdhMqvrHmuucIewHUsom2x+GqVOn2s10NhMMDRX+4RWxPn36UEREhCJC9BIhrj5DkwhBY8PK/H///Uf9+g9wNZkjIr6puoRF8Q9RZcEOKjvwD1UXs1pFQBSFRbWimFbdKSyaV2i5Y5Xm76PsnclUlLuPqqpZSqQmgHqePsdhGdEhQYSAqADZcMoxxganoSwRcsO5JytCyuEDai8WlVbQ5DteVEd3XDaBxh7XRxFg59+zhMpZrWPMCf3p+iknWZLCSvi7X/xPHS9/dAYlxkZZrjX2Thmv+Ofl5vEgxvGqqkaEhIeH02kTJ6nVHkd5aygipIqJo1uefp+27jBPZNDDzx49lE4Y2J16dW6jVot37s2m97/YQD9vPizVMueq02nk4B6OsujX1zRJkGqQIHv3UNUB7kfZBymwpprCWJUvJDaGQni1FERIQBDerPxeBREC2yEsmVbBkiNlBw9ROUuRlPFE2cTER3D7jhTerhOFd+hMofGJrKqGe41Lhry++ldazvWIMOb4ftSpTUtLHVUyEbxt90FK3bGPDuQWWs73ZOmfh649ixLjGqbPfLnhP3ryLfMkaOkD06h9UpzlWe7sVDOJfdpNi9Stk0YOpFk8KT7Swo033EDLl79nyfa2bdspJjbWcoydH3/8gc4/73wmpsst56EOChJFCy1atuQJ5pfUhVeJ9OGzz1bTdCZQIPWoBUhxgPzXwoIFT9I0jqMP+B52aN+uzn3669p+YxIhuQUldMvCFbTn4GEJgg6tEym3oJiKSw9j8fiNk+noPp20LPnEVj/hM0KEYFIzZcpk+uuvw4Q2pAUwvtFPokGafc7tRL9o5G4bQbqTzzmb/vc/8/cVwFu3rd69e9Onqz+jFi3MpOell1xC69atdamOPvtsDZ0wbJhL9+gjz5kzm1584QV16rXXXqOzzj5Hf7nePr7Hp44+hRfFclhKswf9tuFw+epFdnLCk3rBBOGOO26vM/nB4h8mpVrAuOvtt9+h8RMOL/5o13xxq+8XRogQT/B3t1948kxv1rnRfuFJeYy0QXfL7M7750jLD6RAr5w2jT7/fJ0l63jH4r2OPy0MZOmwzz//oo40aWN8w/E8d/uFllf9FhKueNdq36gbeDw0d95D+igO971DhKRlmgJYDJXNSZgH6xAH4b2mNpaalrqVRYIHKBFfjQQxqhJjjSoYNo0MQaPDQKIni3b6Yqgu3UmV2T/ySvVBCg7gyVRgHIva84QsNJZCwnkbEqbqt6qimMoLD1Jh9m7K2bONSotyqd/UJx1CoidCurVPopULbnQYX38xN49VBnSdWn/Net8eEZIQb55UVVVVUz6rH2jh3S9+p2Wrf1aHH8y/lkWpPROx1dI1sjVKhJSw6gRUY8KZ2OvevQdLOyU6TL6hVGNW/7CZnlvxnXoWbIDMu24yjRjc0+az3133Kz1VO4kF0fXuw1d5VbrGZqaa6UlNEqSCSZDyzHQysbHc0JhoCuOV/jCesAaHhbDNEFaLwR9LgLBxHkWEMB/C6odBZFJ/gVTBNkRKWAWiBBIifCmoRSuK7tWPIkCGJLSkoIhIwwjoiZDn7rqUhh9lm8j69vd/6YGXPqSSMrOk0djj+tIdl403/BxHERuaCAFc4298Rj3y7FOOrkOAOspHc7n24apVdPXVM+pkZ/uOnXWMJYPAOPmkExVBj4jXXXcdzZ07l5KSkpQq5913301vvfWWSmP8+An0zrvvWtLDe2XI4KPUuwUn7733XsJAA5Op71js/9JLL1WTPby7V334YZ2V5W2ZmXTssceotObPn09du3a1pKvfARFy8qhTDL2/XZUImf/G5/TN7/+pxx0/oBs9fOO5isiG5t5rH6+nl1Z+q66BsHvhrov02Tri9/UTPiNEyPQrp6kVQxQcaimLFy+mgQMHKhwgrXHNNdfQgQMH1LGe+PKkjTy3aBG3xQdVmmgfb7zxBos2D2Oppe30+OOPE0gHBJAYIDMQNvz2G2VmZqh9ez8gIB544AF1GQte33zzLYXxIoErYd++fQSVsw8+WEmrPvjAcuvSpcvojDPPtBxrOxiIw5bX999/T6++soRAhiBABeXX32xL2Gj3Otq6Wy9YkBs5YrhKGqTVcyz5cd5551FL/n7AAPutLMn1bm1f79SpE/3y62+EhRRfD/p+YYQIcRd/T/qFu8/0Rp272i/Qntwtj5G26EmZ3Xn/OMtTc8vP4sUvsTTnfSrbeMe++eabdMwxx1ABz3E++ugjevTRR5W6HCJAkgISFVpojG+4J/1Cy5e2hTmKcWPHsKrv39opuvHGG+nBufMsx852vEKEpGVkME/AK5YgQJRsCO/zaL2pjaVu4w9p//791eoDiBAM5DwhQkCGYMCJVTJUSlc7IsbOKqW5XtckQWpKt1F14Z+8Ml3BA4suFBicyANY9kgRGMrqMRG8DTEXgfEwmaqpKHsP7U3fREU5e6n/hc86LJ41EfL2w1c7jK+/WMwDdmuRL+06JmS4FhUBkobIJhHC9R9fS4RgdbuwsEi7naVBDhMhq564jmIizelYIjTijlEihPk3zrNJDWQ6dkyk2LgIQ7nSJEMQ2VWVmNLySrr8waWUV1iinvXsHRfTyCG9eNW5kv8qWBLIvIKM/hUBVQ5moW996l1aX6tmNOeqSSwVYps0yeEV26z9ucrAKgytBvFAzpWgrQC3S6qvIuBKOl6Pi37DhJ6SBNm9i6VBdlMV2zIKYjI5skN7CmvBtj4ieLBaU0VVhWwzpJgJu1KW+GBJkABmmwMCYCyVvcSwPnwAr+ZWcz2UHjhIxbzaW8iTg2o+H965O6vJdKco3obG8ypr7fvPWVn1RMgzt19Ex/TtbLkFfRf1HMRqO1B/ymBbDBfft5gqmVSEPYZX77+MDeaytJidAOPF+3MKFDEWF22/7RolQoymx4DRuBsWqlydw0TIdTpJMFtZNZyurZsb+BxsEJwy6mQ1oNEnbU2EfPrpp7widIWKcsEFF7DI7nv66Gp/9OjRitjAwQZenQeZivDiiy/QnNmz1f60adPo9ddfV/vaD9LW7B+cc85keuXVV7VL9O033/DEa6o6xsQU5Im9YJTIdoUI2XMon66ct4y/Tybq27UdvfbAdII9KRxztavv/bQHXqUtaeYJ64cLrqPo2m+EvXweSef1Ez5nRAjEw/v17aPsnGGwvHHjxnr1tW7dOpo4caKC4NjjjmOpDLNklrttBIPYowYNpEP8boJ0EqRC+vXrZ4EYq5EnnniiRU0HZAJIhXiWiAti/XZ7Ad/6SZMmcf7WKUP4mzZtYk9qbaiMn2c0XHPN1XXID/19toiQ9PR0GnbC8TbHIJ4QIZ7UyzwmOxctMo+5Fi5cSDfffLO+GIp4HDlypFKpxYWVH6yiU9j+ia8Hfb9wRoR4gr+7/cKTZzZ2nbvaL9CWPCmPkbbobpndff84y1Nzy8/oU0bRli1blOYDCGbYxdQHvHdBfCNceOGF9NzzZsk3HDfGN9zdfoH8WAdN/VB/vnkSITCWykH91OaWxyBNToTs3LFdfXT10iCeEiGaVMg///zDxqi61JbWNzaaJAhV51J4TDvuVLFMaAVRZWkZlfAgF6ovEdFJFBJau8LMrnIDgsKoOP8g7c9gFZmcfdT3/KcdgmFNhCy+52KH8R1dxATs9U9/pj/+3UFZ7L0Eg6Ou7VvSkN6dCBOeS2abB+yaagzSumH+u8pY6gkDu9H0s0bSL1sy6Ln3v6WiknIqZzsYCPE8ScMgbPb0SWwQsu4LRUVo4B+jREh2tolSU6uZCIlgI4YtWNevth6c5EeTDEE0V42kfvhdMi1etV49YVDPjvT6g9OpuKRUDaZtPTYqKpJStu6iO55Zri6fedJguvJM84oVTsBewzvrNtCan7ZQDou0awE2YFAnN0wdVU8t6bVPfqLf/sykVokxdCerOb255lf6/Z/ttC/bLNED0mrMcf3oqrNHstG/IJVkSmoWYaUYYfig7jTz/NFq3/rnxQ++px+Tzeo8s1mVp1/XttZRGvxY8w5TyauRpf/+Q6bcHAoJC6WwhDhWa2nLRAOrmeUeoKqifKriFchqqDpUVyoSBAREIIgQ8ywPMz0ysaFDU2gElReXUCGvUJbytpJJqdD2nSn+qGMpkrdBIE2YpHIW9ETIgpun0lE92tu8JZzTj2IS5sHFH9HqH1JUnNOGD7BpgBh1seyzXyiDvQyVV5j7WKc2iXRUzw50xRnDmXSsu0LpjAhxJb3bFq6k3awyAdINIZTbRwxLe/Xt0pbmzDhdndN+XElXu6cxtyDczzh9Ev3OtgfgIQoTmFdrSQhrIuSRRx6mhU+b373JbCyxHy8AFHM7wPcK37+oyAhln2HKlCkqy4899jjNuNpMQp/Dags//vCDOo+Vri5duir1T/TV0NAQiuYJLJ6fydIfUKPYmpqm1E1xw+u8mn/nnXcoyZOdO7OYFDPXr0qszo9Jkad1Ttk5cIUIgeFmfAMQHp15rnoPgOCGOhRCNL+Pkvl9tH6TWWJk6ugh5IiEUzcdQT/6CZ8zIgQ2QSZNPE2VDhJDz7PhucKiYov6U3hYGNdvhFJPgVoF0t62fYd617jbRn795Rc64wxzPwNBB+mEIn4m2gkkGNAuly9fTpdddpnK11133U133Hmnand6tRzrKnniiScIkxGE999/n6BunZfPBqYNSozivhlXXaWMD2PfOtgiQmBoEUSIreAJEeJJvUw9d4qF3IQECDwaggwy93vgG0UvvfQizZo1S2V7HouTX8/SXr4e9P3CGRHiCf7u9gtPntnYde5qv0Bb8qQ8Rtqiu2V29/3jLE9NlR8swM998AGVPUjQ3XrrbWq/Iy+gwWQDyA7YEdTesRgnhrHRc4zXIAkG4hl2lGBPSQuefMPt5cfdfqHlSdvCm+aFF16gDh9jSZZ72CYTQrMlQlgQhAIw9mCpEM1savKmjSrT1j/eshEiRIg18raPrSVBMF+KbDGAgkNj2BZBLqu/ZFPxwYNUVV7N5xJ4ohbJkzGecEI0PyCEKthYY1FBDm/LqNOo62w/pPZsQxEhRaz7/eDLn9KW9N02n9e2ZRzt5dVCBD0RMpGNpcLmxSnH9KZ7rjiNvv3jP3p8mXnCbJ3QEzdNocG9OlqfbvBje8ZSYdsGOtPBjDckQfbsqVFECCRBTj01SRk9bfDMWCW48N2vaV2tgdQFt1xAx/fvzHp6jlfd4uNi1eQLSSEuJHkQCkvKaN6rn9k0aKgi8A9IjTkzzlCTZO3cY0vX0XcsYRLM5BSkP5TLXu2ibtuDvZk8MetcteJbUVnNXoMWEyRaoiJCaSV7HIIBUn3AZOm8u5eofEEV6n2OA6mMxg6w71HNIouVu7Oo7N+/KYD7TRQTIOEt2fNLNJNbrApTtS+Lqgpy+cNVRTUsdRPAdkP4m6akZrBV2ocsHWLitkxsByQwNp7bNeN9KIdt9uRSId8bwMZT44cOp+iuvVhFhr3JMIHmLBglQpBOKKs77M0pogvveUkl25M9ybxw54V1HvHW2t8U8WXLwxAituf6fPj6s9VWu9EREeJqetPmLlNEiJa2th3YvT09dYtZkgHnXE1XS6cxt4/zh//JJxeovvTTTz/RihUrCKu+CNZEyPQrD6s8gAgoh/iYLuC9CwlJiMsiaJIdkOrq1rWL0r2FnYN/2OtEQUGhiqP9RPAA6qabZlpUGD5bs5ZOOOEEdXn2/ffxROsltaq/mtUaQN4gTUiGOZrIamnb2rpChMxZ/Cn99lemIjfWPX8blbA9FOu2lsCqZpBYQihg9TH0KV8J+gmfMyJkNUv2TKuVGgKhNmXKuRbCSMMDA+YeTHpBNB7fnx1MbqFO3W0jTz/9FD36yCMq+bfffpvVTc5Sg3HteWiXRYUFFg8to0aNog9WfahdtrlNTU1lw8EnqXY2efJkWsWqY2iz9kk4m8mwdG+Vai/aVUhRQS0MwRYRgu+HtUFzTDygSuQJEeJuvaB/jRg+THmI6tixI6UyUQPyUx+A74r3lytVOZyfN28eEyHG1ZH1aR1J+/p+4YwIcRd/T/qFu8/0Rp272i/QLjwpj5F25W47b4z3D/LbVPlZv349TZl8joJs4sRJ9Caru+J7CxtMID8xt57Bai9om/qQxV6khgwZrE6BkH7+hRctlz35htvLj7vfC0umeAfv1ZNOHKmkCSH9984771gMxDdLIiQ1g22EsDgIJEIw3FC+dPlEU7vPzdq5g/r27asGkniB4KOAP3cCpA3wh8YG9Ri4KevYqbM7STW7e6wlQUIjIZofyZOtMqos3kVVxXlUWVJBZUVVLP1RTdVVQSwtEs54EJUzCxkQkUBRbfuzYcdWFJnU3WH5gL9mLLVru5b08r2XOIxv7+LjvNr/ba1eOCbH0846kb1LtFTi+i+v+s6iyoH7NSIEbeC0m55Vovzj2Fjq7ZeMpYoqE+1kV7Aff7eRvvzVbEDuEdYxT2BjqV3bMOkTaC8HDXceK0223OdicANd6sjIDooAARECQqR9h0ivESF3LFrFxEWWKuyKJ9huQFSoTdFgPRrayiLOgYHGqiPC82xn5FO2N4IwsEcHuubcUwiT5x1saHXdz1voo2/NxGmbFrH0yn2XKRF3xF3w9lf0FbtU1UJ/ltI5Z/Qx1JtX9SHyvuLLDSoNXJ966lCacc6JigF/gtvIZz+anwdjnvAYog+QJLr3hY/UqXPHHKukRiBK2dihGpMxtgtSuWcXVe/ZqQia6G7dKJRdfNYwoVjDkiBQh6lm47kY3MN1bhCryUDdEG8v9QrDyxYB7yVcYVKSDfgwgxnHtnqKKDsjlSp5MhrVfzBF9ehLUR05/bgE8z0Ofl0hQpBMLBtzPXH6o6pPQS3towWHidAfWNLm4dfWqKfBtswN559KA7p3YEmefNXXUOcI8TER9Pa86RbPM/aIEHfS25NTTAVsmPmmJ95Wz4LNk0smjaBYlkJpFW8mhtxJVyXWiD9YyTrrrDPV9+bBBx+kOXPmKH3/Z555Rj3Vmgi58Ybr1co6Lu7evcemrYTffv2FTj/dvDp/0kkn0YcffawmURjUIVzEnjrgVQZqb/qAd/Y7b7/FZMhN6jRsjcBYM8LFF13Ixle/oJPZow1cyiezigJsKMAmSO/efZQUy6233eaS+05XiJApbHi7kD2QDendmebPmkJvr/mF/t22j6WPDig1yS7scWjC8IE0qtYodylLWLkiNaAK2Yx/9BM+Z0RIEb93UtluGsJRRw3mBQ1e8bAKf/zxB00YP06dPY5VY77gFbl//vlXDfxx0tU2cvWMq+hDtiuDgDFTUqvWal//E8mESwde0cSCAFSZ1//wo/5ynX2MwSAl9RvbEIF7Z0jmtmUx8FKWWnU1xLGxYT05DpWw6dOnq2RsESEgfmPYhpM+wO4G7IR4QoS4Wy/VTIKjPnE/VNJgs856AoS8XnD+efT111+rbH/CZNiIESP1RfDJfX2/cEaEuIu/J/3C3Wd6o85d7RdoQJ6Ux0gDdLedN/T7R8trU+Xnl19+pjPPOENlA+qqr72+lOe3gUqVECfxfsxhxwv6ALuC8BIGyVIEEArjJ5xmieLJN9xWfmDY1JMxBTKGcpw39Vwl7daqVStlxwmLK5ox7WZJhKSlbeOxuBIHQRHMw3UeqKc0sftcIUIsbd3mjj1JkFCeTJGJxUwrD1FVyW72IFPKxxFUWljN7nLzqLyokoJYEsQUEErVgeG82tyF4rsdT+EJHWw+R39ST4Tozzvbf/uh6dQqIUZF0+uFd2EyBeoacVhJrw17D+XRhXe/pFb6cco2ETKAiZAxhEFYBNtjeHHFN2xYzywe/uWLd1CL+Gi1uuKKzrH2fFe3mDhABAxbfUhKasdej47hiW9bRYRANQahK7u/dSQRUsQTYYjJFrPxTVshKiqa9alb1zG2aCsezl1w3yuUk28mMr564TZ+QbHYgRsB6gkzHn5TSeP0YQLjlTlX1jOi+tjrn9EHX5tf1pecdjxdNsk8QdMTIS3iogmEDCbWWgCRcgnbqoCdmBD+KCx7cBq1aRFHW7MO0fWPvamijR/Wn267eKx2i9o++943tObnP9X+6w9eRZ1axXplklTFftDL0lKpev9eCixjA6k8KY/s0IE/aEwc7WfiMY/JECYYYftD2WDhlcsgJmBhH8R2MJO0gZExFNyqHZWXVVJOeiqVMQkV2L4DRXTvRQn9j6bwpLa2b9eddZUIwWTk4vuWWKQuVj5+jVqdh9ra9IfeUOpLsMnw/vwbqA1LaenD40s/o5Vfmev73mmn0aihvdVlW0SIu+nBSBYGj8ddOlelPeXUY+je6WdwPZsoN48JXg/yqS9LQ+7ncb5g+HT37t2KCP3xxx/VRO8+lr5Y9Oyz6lHWRIheJ3fFipU0+tRT62VJvzoGOw0//PgT/fH7/2jChAkq7syZM5UBMgxCrMMa9ipzObtVRVi48Bl2332Z2j/h+OMIthMcBbjvfH3pMoInEiPBKBGCupt083MqSRhJzc4vonS2W2MrHNuvi1KFgitdXwr6CZ8zIgTfOXzvEEAIlbCKoz5gQo+VxW3btqnTTz75JF05/Sr634bf3G4jGMx+++23Kj17BF0I18lQbhtoRxj0/vPvf/ps1dlfseJ9up7VehBuY4INBnqhEuNOwFgEf1pYyWnDWCyCLSIE57GYogXcO2jgAI+JEHfrBYSe3gggJkDWffepp56kx9hQIgLsBqSkbGZBXv7Q+HjQ9wtnRIi7+HvSL9x9pjfq3J1+4Ul5jDRFd9t5Q79/tLw2VX5AOIF8QMBCad9+/ZW9No2greJvIiSw4db3c7bvlJGRTlho1bzB4f32HKtE6qU+PfmG28qPp2MKlO0F9t71wJzZ2GUD2p+p78/effsJKkAIzZIISWUbIUoihL8p+KxgGGU2ltq0qjFChKDJ2A92JUGIJ2HlvFpdfpDJkDyuSzaQGN6aKljqsmD3ISphlZOq4lIKjGhDEZ2HUVhSTwqJYtF7tlPgLOAlq0mEOIurv/7WvCupdWKsOvXKxz/Syq/NbeuxmVNpLEt3lPDEsYYnPDDkCFHuVz5cT5AMQXBEhEBkOigomN5kEf6ln/yo4n/y9EzlNQarK9YDCxWhgX/sERd5eYG0Y3swi4gFKEkQnher4IwIsUesaNmGvv/YceOU3r92zt4WbkehQgLVkU8Xzqy3WmzvPuvzevfEj980lU5lmx54YWOSisElRLLzCkvptBufUrdCJQmqSQh6IgQeayaMGKhE+XFvMA/qoPv4+ic/WLxDwLbLiUN6UgzruJ9x8zN0KK9I2aF4/7GrlXoN0kSZLrj3FeXGuT0b+FzF3osgNu+NUMGGUUtSNlFN7iGKYEInlLEN4fKbKsupkm2DVLJqS3Uue0hi9S/V/mAgFW9VvFhthAC2KRLIHmaC2JZDYGwily2QSnhQXMqeZoqZoA7t2IVaDRtNUR262ri77ilXiRDU3W3PrLRIDb0590omoWKV3ZWHaqVBbr5oHEthDFeTec02QDjbRMnh+p5YW9+Q1oHUDoItIgR2XNxJD6sI8Gh2ytULVNqT2e0z7MWYGFMMGtxNVyXWSD/TrriC7Xl8yqvPMTxxSWEJsA5K53fePDaMaIcI+Zu9mJ3M6gII/dmtO1bh4SpXCzCMedaZZ6h+g3NwV/rzL7/ySvFXvGJ8voo2e/YcmmVlbFG7/wcWyZ1cK5I7mw2rzrr5FrX6jIEJpL4Q+vTpowxYgmSBPZElS5bQQVapRAAZAuIl1srlr7po9WOUCMkvKlPqb/rb4akK34MWcTG0fc9Brl+WjOJ6RjjjxEF2bQXp0ziS9vUTPmdECL696A8IGBjrJWNWstrVfffdq6QycB2qTyDg8lnlxJM2MubU0aoN4z2Rk5NrJnbxAF1AvsaPG0uQRkG8A+wS3FbAu3DE8OFKCgJeUUCcBHD8hlJ1+mDlCrr22mvVo+0RIfp8Id+DjxrkMRHibr0gL+r9xvngF5qSHtTyB9Wmu9jWypo1n2mneH8Ne24apdRVLSd9dEffL5wRIe7i70m/cPeZqC5v17mRfuFJeYw0QXfL3JDvH30+myo/kLaGHT4EvMPtkcD3sYrfyy8v1mdZLXzCuPTRQ4daJOgwx/HkG24rP570C2R4y+bNTHyMVyo/119/vSJFUM6iokLOq3mxvVkSIWmsGoNFJLyPiRctwYqwST8WkzWv9tWpDT7wlo0QIUKskTcfO5MEMVWxPZCSLHZaUbvSEhjGlRtPlUXsIWYvGzwsqOBBVDgFx7NXim4nskRIJ9sPsnEWL0yNCIHRumlnnmgjVv1T407oRzzfU2EO2waB8Ux4Gfn1jdlMEhTW0XXGS2pPdiFLCbys4jsiQrQnNaXXGC0P2lYzbpqZWUKbNuYTvL7oQ9u24Ta9v0REBCpjqKlpf9Fbb75Fmel/UtsWwRQdeXgVC+l06zmQxpx2odrq07Xex6AUq/qQuIAR0rWLZilvJ9bxjBxrqkwwVrn+tXtZWoV1+ZmM0IdYFjuedNNCXtktppYskQPXuwh6ImTlEzdSYkyYheHGdawo/pmxz6L+cM3kk2kKG0XES3rJRz/S22t/QTR6lG1RHMMrwwib/ttJdz9vFtmecc7JdMnE49kAbF27CipiI/yU78qiog3M6rMdj5j2bRUREsCkRU1pEbvCZbUYtmsSYOIJPL9DjQRTBYv7F+fzi5dJpchoMrGKDFvzYQkZdrecu5+C27SjtqPPoBi2FeIsuEqEIL0bnniP0nbuV0mjjQQz8fAee2FaWuuOes7VZ1FH9gpUzZIt+gBjqzOfeEepsYHkBNmJYIsI8SQ9fJjseY3xKF19YRpoH2ont9w8S6W2dOlSZUQSgwB8YB0RITBoOm3aFRZvMS1bJtHESROpVVIr5VJ37do1dfrbcJ5Qfrr6M/r6qy8JOsMIDz/8MF173fVq3/rn66+YMLnATJjAaBn0kPfs2UPDh53AA5Qi5VUGNhZgV0ILUHUYP368muDi3HWc9kP8DGfBKBGy52A+XTF3qSU5qNnB5XNSreQgLiT/t4NufPwtKqtV93nlvktZhbKF5Z4jfUc/4XNGhNgqK4zdwSr/zz//ZLk8jklyiE9HMxEHmxOetJFTR59Cm3lgG8bv4v3s2cqW6gYePPoUs9cDeJbJytpVz84L4qANX8aunBEWLVpE1zBpoff8hvNw2zjtisuxWy+MHTuOrpoxo9557YSRCZ8WF1uMZZwRIe7mx0i96POi7cNewBJWb4NtIfRLBGD6yiuvqH6ez+8SzZCwdo8vbvX9whkRYqv8RvD3pF+4+0xb9xmt8zfZbbWeGNOnteSVV5X3Jf05bd/VfqHdZwRDd/uH0TI35PtHK5etrbfygzF5SC2ZjfGzPbtI37Aq3Oefr1P2NWA8fdeuXSrbuB8GqW+7/XZ17Ok33FZ+POkXaA/wkofFXCyswBsYbH7B1mBpaUkzJ0LSM5TyunKhi1VLENT8JzZCbHWZpj/nTBKkpvyAkgTh5RaWBGnBDiuCqSynhErZS0fpwVyeebagiI7DKDSpNwVHtaRAzYuMgaLpiZBu7ZNoJa/EGwkFbABQW3mc8chbanIOg6gr5l9nYTf16VRxA5w4c6E6daQRIZq7WxAhublsm6WsLmEQHs6ERwJbgmbiQx/a1RIkBw9uVURIae6/dNrwGOrZkYksXYhM7EOJ3c+hyIQ+urP1d/GSm/fqGvphk1mv/L1HZvBKa1T9iDbO7DqQqyZv4ex1AhOTmQuW09Yd+6hj60R699GrbdYZCI17X/iYft1iFrVf/fSNyk6IRoTAY8o3i+/gdlCfsCgqr6LJtz2vcnLWyUPY+8zJaqB6ML+ULrrXzIxPHDGAbr5wjIrz7HJWi/npT7W/6skbKTaCVb3A5nohlLPtooKf17NibR7Fde1M4Wwg1pTPbm/ZLkglv+wD4xIpsvdg7mZtDOWmfBent2E9Ve7bowyiBkbHMW+ZSMVshPXArnQKbNma2o+fTLHd+zpNz1UiRG9wFqvxa56dpfrpU+98RV/8etiui7MH496PnzRPwm0RIZ6k54gI8ShdZ4Vy8TpEWDEhhPX3c889l1auXFnHCKQjIiSMJWzK+D5438Cqj60AwuOTTz5R6Z955plKXQWrL6N5sopwJ68g38mDJFvhffbscQPbIUGAoc2z2Y0uvNHAMDIGZHivo//Avkg1G/YNYps1yBO80EBCBGEoG2r94osv1b6jH6NESC7bfjn/bjPZjfTefew66t25jTIUa2LVJ+hOw1bJHQuXsz2pf9Uj77p8Ap16rOP3nqO8Nbdr+gmfK0RIGavGPMB2Z5YtW2ohlRMTEwkk11XsTQVBI+A8aSMXscX/L1ntEwFECNqMrQAXu1AF69KlCyWz+oYmyq2PC9slkBrBxH7v3r3czkz14sHbTc8e3fW3WfahzgW1LnvB1QmfESLE1fy4Ui/W5fjppx+ZRL2FVZsyLZdgEwikUdeuXZUEJiYU/hD0/cIVIsQV/D3pF/o6cOWZ+vuw70qd33P33UyILbFOQh3/9fc/1KaN7fGGq/3ClfK42j9cLXNDvn9sAscnXakDb+QH+cSiIr59CHiXYoEF9o/wrcY7eMP/flfv2sb4hnvSL2bdNFOR8FC5hh2oAQMGsKS2mdBt9kRIOqvGKCaExUGw1cS4k5NFNUa1xGbyU11RzC42meQo3UaB5X+zsbEA5R1GswnSmJIgGgTWRMgbc6drlxxuYatDm6ied88StYqMSfWyB6/gjl6XKEBCFVU1dPrNi1Sat186gcYd30eJ3R42lmq2EaI9tDlIhDiTBNHyam+rqcwUFaUpIiSofCtdeUYiGxIMr3NLdXgvqow7g7B1Ft5a9zu9tcaskzifVVWGGPCik7n7IF372Dsq6SG9O9L8mVPosgeWKiOZsA8CzyK2VqXQNuYy8fITi7PDQ8xanlQzpWqRCElkA7Yf8mTZ2pgjHlTCRMjZtUQIXCdfN+Uk9XzoTl5878uEPEECafmjM9Qb6vx7lyi1GLhHfm3ONItBV3VTI/+U7dhG+T9+RwGFeRTfvSuFgYTJOUDVLA1SxSt6IezuNnbEOArraHtAb529kq1/U/anK6k0fSsTIeEUxEZRg9u0pxKWFNmT+TcFtkiijqdNpdge/a1vrXfsKhGy4a9tNHvxJyodGMB99rbzlfj7A0tWM6GVoc6D5ID0lq3AVa5CBMeBwVT0cVtEiCfpOSJCPErXVoE8OIdVXHiKQRg8eLAygKh/t6Wlp9FelsJAgOu80JBQGsSi+Q8+OFed04zcYTX/K5bg+IvVZWD8F7Y5Ro4cyXaFTrWow0HkdN5DD9N+FqHv399MVEznCfD8+U+otKx/FrMLzvvvv1+d/vCjj+ikk05WA62Y6ChFgkDNCJJ5eo8tIFLjYmMIBiUxyYW0SNau3dZJ1zs2SoRA8m/s9U+rdwlsBn310p1KvU0/iYbrwO82prKHsY/Vcy6ecDxdfvqwes88Uk/oJ3xGiRAYLb1q+pXKUC7KjQEz3OnCIC+M0cEuUREPPrV3tCdt5NZbbqY333xTwfvvf1uVm2VbWGvuH+HV6Muvvq4jvYT4P7PXJBgPRpg2bRq9+OJLFm9k6mTtDyQNhww+yjJW0F+74oor6L77Z+tP1dl3dcJnhAhxJT+u1ouWeUxuHn74IXr+uecsuIF8XLBgAU2cOFFFgz0Y2IXxl6DvF0aJEFfx96RfaPXg6jO1+9yp8wXscnrJksPEsZYWtr//sdHikUN/Hvuu9AtXy+NK/3CnzA31/rHGBMfNLT/6POK7F8qLkHhHaWo8eMcvXrxYRXvhhRfpfF4Ywbu/ob/hnvSLVkktFa7IMwywm80TmEtWWVVJMCKP0JYNs/fsaZ6/PMpjJkiPOAp6my6O4nlyLSBNESHmJDCuVa50eXE1edMfNtMV1RibsDT6yZLcbZSd+S0FVOdSUofOFJOYZPYOU2sTpDElQbTCWRMhi++5WLtkaIv7b35qBf2duVu5Sf1Q56VCn0DW/lyl1oFzR4pEiDNJEH35bO03BhHyQ0oGPfzqavW4YQO70dxrzINRW8/Xzr34wff08fcp6hAeXODJ5a7nPqLkrTuURAkkS+yF6+e/qwweguR6Y+6V6kWoSYTg3bL6mZsoVNOR0iWSsTubrnvsLXVm+tkn0fljzIYZ8UFY+c0mev79r9W1x2+cjHkx58esFnP7ZafR6SwpUlFr50CXZKPtKiJk/bdELAUSzxIhYeHBbC9kP5lYIqSG1UdC2JZHzIjxFNqph6E86ImQAHalGwwipC0TIZVltJeJkABFhJxHcY1AhDzy+lpavylV5RO2QE4fOUB9yJZ8/BMbvjW//z9eOEtJAjkrTG4e20XhQb0tIsST9BwRIR6l66xALl5/9pmF9NBDD7l014gRIwmeIBBANmECoPeEoU8MdkOmTJmiTr3//vt06pixqr3BQCUCCBNMQm2FO26/jQ1ILlWXYHCxAxtqMxIwGDuGdZLh8jQpKYkwGXYWjBIhkCC7kO38wAtRh9YJ9PZDM5ResXX6cPF8+ZxX1emLTzuBLp90gnWUI/ZYP+EzQoRAFBquZ6G2hADPMMuWLVPe9UBCYrJs7YEF7yR328j8xx9TE3I8azm3uTHc5qwD7FkMqCXjrF07anHh9eDzzz9Xh3Al3X/AwHrSILiIATTIN1sBYuR6I4HWcVyZ8OFeI0SI0fy4Uy9a/h94YA69wAYQEaCCNHfuXLqdRd+x2ouJBNSblNFt7QY/2Or7hREixB38PekXqAJ3nqlVnTt1rpcS0NLRto7cTxvtF+6Ux2j/QD7dKXNDvX80nPTb5pKf11hC89lnzZJucKc7ePAQfTbVewo2+Fbw+xckMsI8Hmdcf/0NdeLZO3D1G+5uv+jICyZJLVuoMaC9vNg6/+mnq2n4iBG2LlnOeYUIUcZSNWup6tFmzzEpQoRYKqIpd6ogCVK0n0pzMqhofzLxXIna9hjKREgis1asf96INkGsy90QRMhT77D+2y9mtYaX7r6YundIsn4Mrf35L3rmPfOgXogQ9yVCisurlWpJKdutQIA0B3Tx7QXo4l98/2sWjz3L5l5F7VvG0PMrv6dPvk9Wty194Apqzy6PrcOB3EK6dPZryiboCQO70yPXnaVWJTUiBPGf4+f3tvH8j5h4eYkJGHOcSzhOS7WP9lZWZaIzZz2j0j195CCluvfZj1vUxHHd87cytV+l4nrrB0RIHkuEUM5BimUbIWFhwawmk0MmthFiYrWfoMRWFNbvGApmr0FGQnnWdsr/+XuqYNWYwPBINpgaR4EJLZkIKaX9WakUxC4rO45niZDu/Zwm54pEyPY92Wwf5F1ljBJqSyA8mNNR4YsN/9FTb5knLvNnnaeM41o/nOddtPiDb6mYjcLCbsOYY3vblQjxJD1HRIhH6VoXyMPj39mDy5dffGE3lR9++IFg9BQB1t8jIyPZZWYvOu+885Xu93vvvqeuQbKkR8+eypAwTkBCAhIb57ONj89Wr1aScVAtCAoOUStCMFQJMVQMSv9imxGwL6IPUEns36+vmjz36NGDUlidBiL2sNcA2xIQY/1j4yalsqC/D/vwgNOndy81IcMKz8cff2KRNLCOqx0bJUKg+nL7M6sUwQqj1x8tuJ4i2GiwdfhpSybNW2Imix5gezUjBnW1jnLEHusnfEaIkLPZ5SJEuRFuvfVWeoJXiTFhLmdJNEgNgIi0Dlg1dLeNbPjtV2VAF2lec8219EitBxP9M1566SWazR6RECA9MnHS6frLSqqpR/duSqULRn4h6QQjrrYCymKPCAHZXVRk9oBm616jEz7tXiNEiNH8uFMvyAc88sAzBgK8wkASDNIgqEcYkPeW3SuVgWb0o+8XRogQd/D3pF8AKneeifvcrXPYkcKk1lZAf9JL0unjGO0X7pTHaP9wt8wN8f7RY6HtN6f8QIX2umuvUVlb+Ax7dLv0Mi2bdbYgTO666051bjmruo5hm0mN8Q13t19U8tzh0UcfUWOFOhmvPUD7hJofwsCBbOdwzBi1D1XO1m3aqn17P14hQtLSt/GQFuSHmmPwYNa80xyIEIjMoLPhDx8u/LkTsFqCP1QG/qD73LFTZ3eS8vo9xTmZdCDtG6opz6aE1h0plleIoxNieeBbrrzDeEMSRCs08NeMpcJGiKsSIUjn241p9PjSNSrJMcf1pTsvG68lr7ZVrCoDV61w2YrgKhHyAdsdiY1itsjLoTmqxkRGRtAn6zfTgjfWKjSgnjJnxunUr2v9F08BexKas/hT+mfbXhX3pKN70+Mzz6UiFlf+ISWTJUvMkxGQETddMLoeuq99+jO9/+Xv6jwMbI6snbDoiZBRQ3vRvdPM4r5aAuWVVTRt7jLlHQbGWL948XaqrCjXLhMGADfOf5sNpO5Q3m9woaC4jEYO6UXzbzpXrZhZInthpyxrBxMX66nm4D6Kio9lIoTfTzUVRGwwtbqY1Qt4LmIKjeYl/lBDuakuKabK7EOQ1aSg+AQKiIiiKvaEVFJWzD7l91IIS4e0H3MOxXZzLD6IhxklQv7bvo/mvrJaGbbFfeePO45uYvsrWH1E2HWogK588HW135/Vjxbeep7a1/9AkgQSJQgXjj+Wpp1hZvVtSYR4kp6eCDl71NF0/bknWbLhUbqWVBpmJ5rVTCDBZC9ANeWRRx5Rl7Gin5CQoCY8kKT5cNUquvrqGeraE08sYLen0+skg+/ViSNHqG/YaaedRh9wfKz847v4zttvKXd0uGHy5MkEw3n6sHz5e3TjDebVo1tuuYVXnOcpCSoMWp5+6ikV9ZlnF9Ell1yiv03tz2EPMy+++IJ5n1Uv4G0G31FHwSgRgm8JvgVwu42gb0Na+njWrKdY5p8+AABAAElEQVTeJ7RXkHXvPXYtJUR7/92u5aeht/oJnzMiJPvQIfYWZBYn1mzQQP2lmMkBe0b3kF9P2gjc9Xbr1pUg9YEB8rfffa+kTzQcYA9n3NgxBJF6PGcPCDp+d+kDiBtMshDuZjsH93E/aIwJvtEJn5Y3tD9nxlK1uI627tYL0sTEBhMcYAf7KVCpA0kJEsRZP3OUpyP9mr5fOCNC3MXfk37h7jObos6N9AtPymOkrbnbzhvi/WMrf02VHxCcBQUFKkuQ/oK6aXpaqvLyhZPw9vXxJ5+qRQ19vqGCBA86sEOG8M8//1Kr1q0V8eDJN9xWftztF5hXx8fH6bNdZx/SbfiGINx0000sBfOs2seYE6YTHAUvESGwEVIbWDIkgHVjcNzURMjOHdvVRxcVA31l/HlChKDS8YcKw4e7U+cuWqmb1RauIU1ssA6SIBUl2VR8KJ3ydrFrOqqklp36URzrYUVG8aQpMK/RvMPYA0RPhMAl66SRA+1FrXf+XFaxiIkM55XHaLrwnhdp5z6zeO9k9hByKYs8R0WEUW5BCc1/43PatHWn5X4jRMhnP/1Fi5Z/re7BhGz8sH6UwHrn7rYXy8Pd2HGmIuMtY6nIOlaJY9l7wFXzXqOUWkxhv+OcU4ZQX7b30a19S8pjo4X/MfkB46NZbCQVAfUEQ7gRIYFqtRGTvAvvWayM3OL6ReOPowsnHEdhLN4OImPdL3/Riyw1ggBpkVVPzrS4s9UTIbgOVZuzRg2mVmyEdQ+TXY8t+1wZYsW1s0YNodsuHlfnxQgR+m9+T7UQMYiHAEmFY/t2sstAm2M1/G/53t1UsHEDVe3ZSaEsjRIawoYlo1mSo7qCqpjQqOIPXVVZBRsprnXfbHm51s/L4Uts2Dg6hkJbtaFq/lgUF+SzjRD+QFAVhXfsSm1GjqfoTt3rJ2B1Rk+ETBg+QHl70aLAOOFBltpBv9uctks7rdRe3nn0WqpmHU7NoDFcvD3ERIkmuTWaDVTOPO8U1UdrOJ3vNv5Hz73/HZM1FQSDuu88cjXFsK0UBFtEiCfpBQYGKfsxRSx5Am9EC2adq/o2bJd4kq4FgAbawWqdZhHeVpJQm3m0dkV93/79vPINQ6VmdYb9+/fRIF4lwbcJBMn7K1YqVRekA+Nll19+mXLziWNMmCAxAikRhGoeYPTs2cMywLrzzrvooosvVq5uP2Z7IBj0oV7hpvrPP/+iRLYjgUnWv//8zbZCTlL7GKA88sijNJlVb+Lj4yk7O1uJ6774gpkEgVoM1GPQhpwFo0QI0omNiaXz7npetUkQHReMO5bOHTNUqU1m5xfRCyu+p582p6tHns22g26/ZLyaJDrLw5FyXT/hc0aErFu7llcLzWTV5ZdfrvSqIQmiBms2Coz61rysuNtGIJL9CHsKghFWBBi/mz3nATrxxBOVi+Xbb7tVSSPhGlb2Fi16rl79PMZt/qmnnkQUpR5z7HHHN8ok38iET2Wi9qehiBBP6uWUU0bRn1u2KLUzqMOgPmts2EzT8g2prIGDWCrSx4O+XzgjQjzB391+4ckzvV3nRvqFJ+Ux0hTdLXNDvH9s5a+p8rOe3dhPqXVjP4kl595gCTqQPXA3C4lRhNGjRyv7X5DexHd6I3/vZ8++n+A9BgGG0t97b7lSg/T0G24rP3iGO/0C90VEhLMNP9sBc28YykYAETJ//ny1j+8exj2OgteIEHxMTYGcFV7N5PEIBxPbCDGL8Vpn0Js2QnrygA+DtIYkQjAo3Lp1K3Xu0jxFbGuqeULCq8slOdsoZ+cvVFWaQxHRrSkoJIyN2ZVxY6siNg9CEeHsdrOSpSYawTuMdZ1rx3oiRDtndPva7MvUpAtuN5NTs+jWJ99lo6jmDoAmlxAbSTlMhCB0adeStu/hVXIORoiQfaxHflmtHrm6iX/mz5zMhkY7aYde2zqTDPGW+1ytwMD7ILu0nfXE2xYiQ7tmawvsH75hCvViFRbNzzkkS7ak7aabUWc8wUeAODskTPIKocPMLw4OmJzOn3U+495BiWrjnJ4IwT2Y/CFoJIo64B+oSL358DXKe4b1izGY2/6EG560tBcYTl373G0swVCk3e61bcWhg1SS+g+Vb0unaiZDQoICKIaly4K5EVeyB5iq/FwuYzVr7OAPpKbtySPOmlf9+Ebuw8HsbSaiUxfizwId3JHKKkEVylZINHuLSRx4HEW2bu+0jHoixGlkjjCADaQ+c/tFPPEMtVj3xn2QbCitrKFL739ZkSc4hz7aMiGa8gtLLfWA8w9cczZNGNbfYrDWFhHiSXogwuH9aD2TL1oY0L0dPX3LeR7lU0vLW9snFzxBjz/+uHrc9h07lT0Q7dkYQDw0b57lOs537tyZv8WBtH37Ni0a61k/wIOiOdwv2d1ybUD/hloOXN1ihd5eeIqlP2bOBEFp7jMwsob8IE19ABEClRgtYEINq/UYgBU6UE3Q4rtChETxe2XT1l3KM4zmIhfpQDJM+zbgGDZEls2dwX2MPdvw99tXgn7C54wIeZDr6fnnnzNc9BgmwLdt36Hiu9tGQE7BYDXGfB9//LHdZ3fp0kURdME8VtMIOi0y1HKgEoYx3P79B/hVh4FmwwcjEz79UxuKCHG3XvK5D8NDDiYIRgPcV8ONta8Hfb9wRoS4iz8wdLdfuPvMpqhzI/3C3fIYaYeelLkh3j/WeWzK/PzIZMc555ytsgSPUMveeFONYbZuZYlPJpf132+orOLdoHdZDltPW5g4jYiMUosbnn7DbeUHmXO3X1hjrT/GWBc2RBBuvPFGepAlU40GrxAhykaIWlaAJAiG5xjyNr1ECCzst2qVpFa29ESIq6v8qAD8oVHhD6JJB9gVXFvWyWyOoaw4j/IObKPi7HSqzNvKg8JgSmg7iGsmgLL3/M2zp4PUolUgRcUEsEiliQKDmIULTqTKEhaT3XeIKot4oGiKpJCE7hTV7UQKTWg4MgDYn3fPy0pyw1Xs3px7JbVpEaukNBJYhOqfzD1qALw/xywqpqXXu0sbev7uy2jyrYuUrYo7Lz9N2R9AG5jEnmTKK6rYrexAuuWiU7VblL79gjfX0Wc/sOu+2oHFE+wlZbABLymWRNzcKSoq4gHe/nqT8ry8QNqxPZjbWgB7ZIBrSvMDNKOo3bpF2nxiRkYGfcUuC7G1Fbp3705jx42zeJCwFUd/DnUGN5lYzX1n7S/06kfrSbMZoo8XypIXk0cPZRUJ9ngSGsx63CzZoBFVnAbqLD3rAN29aIWFpNLfDzsRT956IXVlIgXi/uZJ/mEiBFIms1ll5nEWhc8pKNbfqtRc7p42Sa342zKIByJmzksfW9xoXjjhBLp+KlyVltVJxxsHVSytUbY7i8oyU6nk3y0UyN5dYjt2Yds9oWTKPUQ1hQVUzWotNcx0KzKkGu9U/Gm/h3f4tcRiOyEUxB822AYJTmhBpSwJdmDHf1TFEgax/Y6m2J4DKKZzTwqLN39EkI698Maa3+iddb/Zu8zSK8GqD3Zpl0RnnzKUTjy6l3rbg/CyHpBDYgESHw+98okFd33CqOerJo+iCdwX9cbavv59Kz3xxjoVddnc6dSuRYzadzc99PvUrEN0O7tRRX4QBvZoT0/dPNWjdNXNXvxZ+PRTFtWYnVm71DtLezzI/ghefcfKO/7gwlAfYrkuoFpzxx13KDsJShKgNgKIIvTvL9g+yRVXXKHUGPT3gtiASg48zRSwZ5jKWiIT7nGhdgZL9A/zBAueYawDdHnfffddJQmQx31ae7dax9Mfu0KE4N2E9wpI7/ue/8AiGaZPD+3rvqvOYGmbINXO9NeO9H39hM8ZEXLWmWewTZefDRcZkkXpGZnqPexuG8HDMNjGu/xiljKC+2b9wBzXR40apVwmJvEg3frdXc4uwDuxYV4Q2/3792e3j/9Tqh+4r6HDhx+yetmMGSrZN3iCMYknGo4C2t7Qo4cw0bhdSdf89PMvjqLbveZuvWAScvbZZpUhu4lbXYAnmWlXTrc663uH+n7hjAhxF3+0aXf7hbvPbIo6N9Iv3C2PNsZz1AJ/+pFV4zxo5568f2zlqynzs4FteU2aZFYN16ux4huIxXm8YzXJD33e8a6azuqykCiFm3RtgdLTb7i9/LjbL/R5tt5HW2nN83mMM2fNmqUkC63j2Dv2ChGSlsGqMawOo2gQzixAx/i8qVVjSlgvqoT152FESpMKQd4QtK06cPCjdVRsUQGQBoF15EieeETWiuk4uL1JLmXvTaW05LU8mcqhzl17U8ukjhQelUjFuQdox9/rqaRgB9sICaTI+AiKYg8TgYGhivyoKGDjWnkFFBzRhuK7jaCI1n0pOKolBYbannC7UzjgnpgQ786tvJpYZHGdGh4WpsTaK3mi/d/2vbSV/yBNMKhnR179S6yTPnRmi0tK1IoSXhgImKBjoq4FsKd4YR5gUgXi/5AYiGfVnXKdrQktbkNv7REXSWwss0+fY7ittmWx8moWNzdPhp0RIfaIFS3fUC1qzfqBGCwYDVCRAT6YVGKldefeQ5S56yDb5SikVomx1KNja+rUpgVfh8QGE2qst2e98qrVGVyCYuKydcdexrtQSe/AAGu7JLZvwd3TWudPkwgBEfL9q/fwoJooY9d+paoTzepQvTq3oW4dWvFzTapOrSfkKCNezK9/+gtP8n9VRV75xA3KVoCtuEYxcTdeDQ/uK1nqo3R7BhWk/E7Vhw6weGMkhXN9hPGElLjNVe7ZxZIhTAYxlpAIwftH/YNLLrxdzU2Bz7N7NJ7khrXrSDVMfJRwukUF2VRQlM3GVltTy2NHsdvcfhSekMT92nk/xuptKE+qjQbgBwkBawkc3A/vJVCrQp/feyhPqU9BlSkqMow6c1sZ3BsSC6RENGGoUQtYTYBIKwIkCCpqGUB300M6mOhXMaG0a38OVXGe27aMV1JzuOZJurjfWwH9D+8pBBi3s55QxnD7gXoNDKFu2rRJqaLgewURWUw2MQACAWLLYCQkbqC+hoABFURe4Q63a9euNI5JU7wroIer2YBREflHs2sCN71YtYf6C/SRYdQSRhvx7UVA/Rp13+kKEYK0tfcK3gtZ+7MVQZ7LRCneCXivQOoM/ceRQUCkcyQG/YTPGRECI6J4j7sSclmyxyKB52YbQf/HewD9DN8mkDEYrENdCp6KhgwZYrd+rMcL+Uy4NpYHFJDlESy9hACCHHY2HAXrvGXnmNVCHd1j65q79QJbKvAE4kqw1Ydduf9IiavvF86IEHfx96RfuPvMpqhzI/3C3fJoGDpqV5i7edLOPXn/2MpXU+ZH+9YhXxhzaYSGNn/BOXyDYRMM8wr0g169eikTEXA5i28k5j368Zon33B7+UH+3B1T4F5bQSNXcA3jGk0y1VZc63PeIULSMxhfGCLlx6sBOhMhbKciJblpVWMARl5uLg8YK5XeNPSLACYCOoeRoBEhaDgY4OVyesG8AhvPqyXNNezbnkKb1y+jgJpSOnr4WSy50p1n/qVUuG8bZf37CxVk76CAkGoK5olleGwLFjUNZiKEVUqqWbw+JI6iW/WmhN6jKKJFlwYvovXgwZUH6FcjcR8G/ViRtK5LTM4wgcLLGUEb1GASrxEh1q70kAZeCPpJoPWEXCXWCD8wYLRu7RqLISPtER15JWzYsGFMunVQRMiePVwulgxp3yGSTj01iY3QOZ/Yamk1xBYYQR9Rm6TaShOT1iImQbR+Yx0HH5Foth+BurAO+ChioGxtuE9PhKx7/hY18bGuc0wKUV/2Bskgvi6Z87qSJBnatwu9cPclLr1IrfPqybGJ3VHW8MSxbG8W5f+ZTBWsDhNYVKjacxRbv4Yb1Bq2sVDDWNSwF5kafumb8MfvIIYIOkUUwIPgAJ7UBASx2h8TW0E8ya1glbi8vTt5wllM1dy3Izp3o6ShJ1JMx+4UFB5Bgfzechb0k217cdG/8D7EpNqZ0ULUM9K0NQFDOpgcg6jUB7QxqHog4GOHj54W3EkP98KwGNqdFmr4i5Wbm6cdqvboaj4tN3tpB+86rOAgYACkH8zgnOqfPJnD4MRW0AhhW9dwDvdh0GvdtzB4KmPyTk9W6dNAXWECaX0f4qCOYSxZkyLR32dv31UiBOnAtgre37beK3g28oC8+FrQT/icESH49tnCxxEmOdxH9O9yd9sI2gYmM7beA2jH+F5bt2fkSz/4RT6Qn8YKaMd49yAYJe6wqIOyeZI3d+tFG/+4ggfet/b6sSvpNPe4+n7hjAhxF39P+oW7z2yKOjfSL9wtjx5De21Kk1qwd93Weet27u77x1baTZkf/bOtF3MdfQNRDixMYoxs6zvo7jfcUX7wTHe/F7jXOuDbhXaGgHmGETVbLQ0vESGZiv5QP+rJihZhGyF/aPmos/WWjRDtoZAMweoWxCzRIfDnSkBnxV9YWDjru8Y0W0kQrUwaERJYU0ZDmQhp1bI1VbDB1LJD21ldZhd76jxIhbyiWMoqIpWBIWTiSVUgG8CMadWNWvfhFeT2/Sk0OomCwswrhFq6zXGLusRKk3mAF6BWSW0NqIzmHZNQ6CCjvj1Jx+jzEA8eIDIy0imXt/oAi9At2DBhcHCkIkBAhEAyJDYuokmIEC1vwByuK82kIvclxgoEhCt4oc6wuqEkSFhCxNH9eiLkwwXXqbrBgBppaPWEj4Kj8PH6FIsx1gW3XMBGUjtapIsc3dco1/A+YRsglXk5VLJzG5VsT6dSVpMhJkMiI6NZMoQlPOACl3GuZjKkis9X8x/IE0iHBISEUjC/h2AcFSoxwK40P4clQXKUJIiJVwFievSlGLYNEtutL4UnJjFhAq9Z9cmnRimfjUTRVoJBQnOZ8PaFioSe4LBxi8NT7qSHdov3hPZ8tB3r4E661mk09THKqPoXG4lFYWE8EeSirQGQrbyinoJZBQo1hXtQTyCOHAX1Hub71Duh9plol0afqU/bHSJEu1/VH74H3NbxPnI3D1p6zX2rn/A5I0IasizutBE8H+0ExqtRT3iXoY6sie+GzKek5Z8I6PuFMyKkIRFyt180ZB4kLfsINLf3T2PkRxvDBLB0NgIksPGedfYtbshvuHUNNHW/8AoRkpqRYYKnGHPgQT4GuzxwampjqdaV4S/HuzOTacNXrzFtVkDHHT+OxcBbUk3BLqpmDzLV5SVUlJdLh3bvpXzW2S7h1bKA8BiKbt2BErsOprb9T2WJkG7+AlWzKGdZWSlLLuXxyrhjUVyoxoAICefV/eOOb0Ht2x9e4W4WBWmkTNgiQow8au+hfLp14QrlQQKeTjCVg12K5fOvJ4hYN3WoLi0xkyFZ26lw659UuW8PBfGKXWgou0VLakXBTLwGlLMkCBO4NaxaoKRCQIQwCRTIK/dMt1MNS9hUlDLRu3+PkgSpZFe8oW07UIv+7GGJ7YKEt2jNkl/Nn9Bs6rqQ5zcfBDwhQppPKbyTE/2Ez5tEiHdKJ08RBNxDQN8vvEmEuJdbuUsQEAQaEwGvECFp6WaJEMw0IAvCOhlqNam5SIQ0JsDNMe3M//6grz55mSdZu2kY699279SJInmVWVlk5xW+wtyDbEwxlfIP7ePJdwmrwHSidoPGUUKngRQexxOnI0ASpDni7m6ejBIhLA2mJEPghaFjx0QlGeLuM4+k+9wlQnbtz6UrH3rDUlTYGHnmjoupV8ckw/YKLDc3wo5SdWF7IBW52VS6aztLh2RS6Y5MqmbpjiBm80NDWVQ7Ko6NqLL6F6u1BGCFnwlmeJSprmTVmrIiFiLJ5S2rHrBaTFBsPEV26UExXXqqv/BE9hTF6g5Qo5EgCBwpCAgRYrym9BM+IUKM4yYxfRsBfb8QIsS361pKJwg4Q8BLRAjbCFFSILUmQpArJkVSkpuHaowzkHzteurfv9OalS+xvYBUGtStA3VlWxMt23SgyBjWr2KR4XKeQBVk76VyXkk2BbDNhlY9RBKkCRuBUSKkhA2+ZrPtiHBWmenevYcyftiE2fbao1N3ZVMWS3SEh4XQyEFdlTqMkYdXsPvWj1glBl6COrZJpBGDe7LHk7g6HmmMpNPYcSAZUsHeYkr3ZFFh5lYq37ebVWHyKIhFGsPDoykkjO17sJQIgdAAEcI2j6rZPTYIkJIyNprJ3DPshIRzH4/v0Z+iO3QVSZDGrjRJv9EQECLEOLT6CZ8QIcZxk5i+jYC+XwgR4tt1LaUTBJwh4CUipFYiROUGvg1qVWOagbFUZwD54nUQIZ+teImy0jezZ4xIahUfQ+1aJVBCTCSFhbDoPKtWBEfFUnh8O7YL0puiEjuJJEgTNgSjREhWVhb9+uuvPDkOp9MmTqKePXs2Ya699+g49vgBHUMEa+N9jnIBw7fwgqIP8Jihdx2qv9ZU+5pkCGyBlLP9nvJD+6nswB6qyDmgVGdAlNSwxIeJiREWB1F2H0yMRyB7gQmOT6TQFkkU0aodhbdsy3+t2L5PvEiCNFVlynM9RkCIEOMQ6id8QoQYx01i+jYC+n4hRIhv17WUThBwhoBXiJBUpRoDGyFMgUA9hsW6zTZCRCLEWQU1xvWs7Vvpt+8+oV28hcHFmPBgahUXTnGRIRTOREgEq8lEtmxH0UldKa5tPwpjw6gSmg4Be8ZSrXOkESEJCYl06WWX0qBBR1lH8cljEBpmY7jwXlHXw4ijAuMeeLiB0cdqGCdleziuGHR1lHZjXDOxQctqthNTWcj2YkCGsOpa6cF96hiqMLiuiBAY/GRXlsFsUDWCXSxHJLWhCCZBQlk1JiicPfIY8A7TGPmXNAWBhkBAiBDjKOonfEKEGMdNYvo2Avp+IUSIb9e1lE4QcIaAV4gQs40QmCI0kyFKIoRJETGW6qx6Gud6SXEhZR9k44m8RY0EBwUoAiSEPX3AS0cQPG6wuD1sgQSHx/KxbXeLjZM7SdUaAXvuc63jlZaWKtWYHj16+hURYo2Drx7D5TgzNqz6UsGqL+XsJaaMqivYUCq70DVBEgTX1WsWujBMhjBBFMQGVdUf2xMJZG8yTe0dxlfrRsrlPQSECDGOtX7CJ0SIcdwkpm8joO8XQoT4dl1L6QQBZwh4kQjBGL2WAuHBegCLhggR4qx65LogQLRly2Z668231NYIHpAE8SeJECOYSBxBQBDwDQSECDFej/oJnxAhxnGTmL6NgL5fCBHi23UtpRMEnCHgFSLksPvcALMhQ4gh8F/KRlGNcVZBcl0QEAQEAUFAEBAEzAgIEWK8JegnfEKEGMdNYvo2Avp+IUSIb9e1lE4QcIaAV4gQi/tcs9w258ksG5KySYgQZxUk1wUBQUAQEAQEAUHAjIAQIcZbgn7CJ0SIcdwkpm8joO8XQoT4dl1L6QQBZwh4hwjJyDSxV0ezoVRWiYFACERCkoUIcVY/cl0QEAQEAUFAEBAEahEQIsR4U9BP+IQIMY6bxPRtBPT9QogQ365rKZ0g4AwB7xAh8BoD9oPJEBAiFGjOlqjGOKseuS4ICAKCgCAgCAgCGgJChGhION/qJ3xChDjHS2L4BwL6fiFEiH/UuZRSELCHgFeIELP7XM1XjDkrcKObnCyqMfYqRs4LAoKAICAICAKCQF0EhAipi4ejI/2ET4gQR0jJNX9CQN8vhAjxp5qXsgoC9RHwEhGyzcRmUmstg5hFQ0wsFpKy6ff6OeIzU6dOtXkeJ7Nzcu1ekwuCgCAgCAgCgoAg4LsICBFivG71Ez4hQozjJjF9GwF9vxAixLfrWkonCDhDwDtESFqmKSCQqZAaWAZhQgTiILwnxlKdVY9cFwQEAUFAEBAEBAENASFCNCScb/UTPiFCnOMlMfwDAX2/ECLEP+pcSikI2EPAK0RIWkYGG0sNoAAQIEo2hPeZEBFjqfaqRc4LAoKAICAICAKCgDUCQoRYI2L/WD/hEyLEPk5yxb8Q0PcLIUL8q+6ltIKANQLeIUJgLJWD+qnNARRkhAipBUM2goAgIAgIAoKAIOAUASFCnEJkiaCf8AkRYoFFdvwcAX2/ECLEzxuDFN/vEfAaEcKCIBTAqjHwoauZTU3etNFmBYiNEJuwyElBQBAQBAQBQcCvERAixHj16yd8QoQYx01i+jYC+n4hRIhv17WUThBwhoBXiJDUDLYRAq0Yzo3ZVCpYEROJ+1xn1SPXBQFBQBAQBAQBQUBDQIgQDQnnW/2ET4gQ53hJDP9AQN8vhAjxjzqXUgoC9hDwChGSlraNhUCUOAjnwywRAlYkRdzn2qsXOS8ICAKCgCAgCAgCVggIEWIFiIND/YRPiBAHQMklv0JA3y+ECPGrqpfCCgL1EPAKEZLKNkJq7aTWSoRAMgTGUkU1pl6NyAlBQBAQBAQBQUAQsImAECE2YbF5Uj/hEyLEJkRy0g8R0PcLIUL8sAFIkQUBHQJeIULSWDXGxBIgAdCLYcEQsCIBFMhEyO+6rBzedWQjpLyi8nBE2RMEBAFBQBAQBAQBv0EgPCxUlRUTewnOERC8nGMkMfwPAekX/lfnUmJBwBYCYaEhtk436LmAtPQMMB+kXOjWGgqB8VR3bIQIEdKgdSOJCQKCgCAgCAgCRwwCMoFxraoEL9fwktj+gYD0C/+oZymlIOAMAa8QIemsGqOYEBYHwRZqMfifnOy6aowQIc6qVK4LAoKAICAICAK+iYBMYFyrV8HLNbwktn8gIP3CP+pZSikIOEPAK0RImiJCzFmBdoxypQsiZNMfNvMnqjE2YZGTgoAgIAgIAoKAXyMgExjXql/wcg0vie0fCEi/8I96llIKAs4Q8AoRooylatZSVY7MnmNShAhxVj9yXRAQBAQBQUAQEARqEZAJjGtNQfByDS+J7R8ISL/wj3qWUgoCzhDwChGSls7uc1kXhn9gKoRthZh3hAhxVj1yXRAQBAQBQUAQEAQ0BGQCoyFhbCt4GcNJYvkXAtIv/Ku+pbSCgD0EvESEwEZIbYDHGNaNwbEQIRooshUEBAFBQBAQBAQBZwjIBMYZQnWvC1518ZAjQQAISL+QdiAICAJAwGtECJgPUyA/kd3nKje6fCJ5kxhLlWYoCAgCgoAgIAgIAsYQkAmMMZy0WIKXhoRsBYHDCEi/OIyF7AkC/oyAV4gQZSOkVjHmsIKMSIT4c8OTsgsCgoAgIAgIAq4iIBMY1xATvFzDS2L7BwLSL/yjnqWUgoAzBLxChKRlsGoMq8NAIYZ3WCJEVGOcVYxcFwQEAUFAEBAEBIG6CMgEpi4ezo4EL2cIyXV/RED6hT/WupRZEKiPgHeIkPQM0B9mlRhlLISJEFMNpSSLakz9KpEzgoAgIAgIAoKAIGALAZnA2ELF/jnByz42csV/EZB+4b91LyUXBPQIeIkIyVT0h/pRT1e0CNsI+UOfF8v+1KlTLfvWO+UVldan5FgQEAQEAUFAEBAE/AABmcC4VsmCl2t4SWz/QED6hX/Us5RSEHCGgFeIkNSMDBM8xZgDq8ewakwAy4iIsVRn1SPXBQFBQBAQBAQBQUBDQCYwGhLGtoKXMZwkln8hIP3Cv+pbSisI2EPAK0RIWrpZIkR5jmEVGQqogaKMSITYqxU5LwgIAoKAICAICAL1EJAJTD1IHJ4QvBzCIxf9FAHpF35a8VJsQcAKAS8RIWwjREmBsAtdLQO8k5IsqjEaHLIVBAQBQUAQEAQEAccIyATGMT7WVwUva0TkWBAgkn4hrUAQEASAgJeIkFqJEIU5HOjWqsaIsVRphYKAICAICAKCgCBgEAGZwBgEqjaa4OUaXhLbPxCQfuEf9SylFAScIeAVIiRVqcbARghTICwJYgrUbISIRIizCpLrgoAgIAgIAoKAIGBGQCYwrrUEwcs1vCS2fyAg/cI/6llKKQg4Q8ArRIjZRgiUYsxkiNlnjBhLdVY5cl0QEAQEAUFAEBAEDiMgE5jDWBjZE7yMoCRx/A0B6Rf+VuNSXkHANgJeJEIgD1JLgTAnEsCiIeI1xnalyFlBQBAQBAQBQUAQqI+ATGDqY+LojODlCB255q8ISL/w15qXcgsCdRHwChFy2H1uAJnYba4SDGHhkJSNohpTtzrkSBAQBAQBQUAQEATsISATGHvI2D4veNnGRc76NwLSL/y7/qX0goCGgFeIEIv7XJYI0avHpGxqHkTIoUOHKGvnTioqKlRETQB7uHElgNzBPdHRMdSxUydq2bKlK7cf4XFNVFNZSlVluVRVUUI1VTVUU8P1DL4rkCgwiCgoNIJCwhMpMCSCzwUf4eX1fvaLiopo7969VFRYaOjh0TEx1LZtW26P0Ybil5ZWU05OuYqbmBhGERFcaRKaHwL8njHVVJOpsopqKipq/8r5uJLP13Cfg8wdB359BcAOU3AIBYaGUWBYqHnLxwFBXLcuvt+aHxCSI39GQCYwrtW+4OUaXhLbPxCQfuEf9SylFAScIeAdIiQj0ywIgvkxq8SYaYYAVo1peiJkW2YmZWcfori4OIqKiqLgYPNE3SgZogrGKFdVVVFxcTHl5+dTixYtqWu3bs6w94HrqNAaKi/cTUV7/qCSnF1UVlzBhAhP1pgMCWIoQyMDKDKhPcW2O5bCYtvxhCym2ZRbETacG9R1c54bpqWl0dq1aygtNc0Qdj179aSJEydRz549DcXfvbuENvx2SMU9/oSW1L59pKH7HEUqK6+ktKz9tH3PIdXfO7ZpQZ3aJFJCbJSj2+SaAwRM1UyAlJdTNRNilTk5VJGdTeX87qoqLGBShAkRvq6IEJAgIcEUzMRsaMskCuX3UViLJAqOiaWgsHAmSISMdACzXGrmCMgExrUKErxcw0ti+wcC0i/8o56llIKAMwS8Q4TAawzYD8ybMVJnSQGEplaNyeaJxPZtmdSuXTsKCwujIF4tDQw0Z85VIqSGV2Srq6upnCcqe/bsoS5duzEh0sJcUB/9ra4spsrig1Sak85ESDKV5R9kDEKopjrIrAJlKuOSFzABkkRxHYdTeGxHimk30CkaU25/jvIKS5zG00cIDwuhNYtu1Z9yuI/0J858WsW564qJdNaoo9U+zpVXVNLYE/rT3dNOd5iGty7+999/9MnHHxG2jkJpaSmTetnUu3cfmj59Og052lwme/dokiBpaYV1iJCePWPIXcmQtT9tobfW/ExZ+3KoRnX2uk8f2KMD3XbpBOrVuU3dC3JkFwETv1cg9VFdXESVuTlUlZdHVfn8V5BPlQUFVM31bqpiCRHEY2JSBUhj4Z3GZEhwXAKFJLZkQqQFhfI2hM9BUkRJh9h9qu0LS1Z9T+9/ucH2RT4bFRFGPTu1pj5d2tGAHu1p2KAeduO6e2HNj5vp6bc/V7cvffAq6tTWt9+zRnHavHkzrVyxQhG798+erb5ptu6tYGmif//9l/7csoV2Zu2kdm3b0cBBg2jo0KG2ots9t2rVKsplQm7M2LHUpUsXu/G0C4cOHqQ/Nm6kTZs2UkhIiHpP9e/fn7p3765FMbT1ZALzV/ou2rpjHx3IKeDvfSD15XY6qFdHiouOMPTsIzGSu3i5W19lZWX0ww/rKTMjk0JDQ2nY8OHUp08f1S6d4bd161ZuH5vowIH96p5hw4ZTbGxsvdt2795Nubm59c47OtGjRw8KDw93FMXpNVfb/Pbt2+nrr76ihMREmjJlitP0jURwt14K+FuBvgd8MdbtymPUgQMH8rarkcf6XJwjqV+4W+dYoP37779p4x9/0I4dO9R7unfv3nTU4MFq4behKtXVfuFueYzk15MyG33/GMmHFqe55ced90AmCwyUlDiek0GIAO95V4Mn3wvrZy1c+DRlH8qmkSeeSBMmTLC+bPfYK0SI2X1uraHU2qzAjW5yctNKhGzhgWNcXCwlJPBEgQdmqEgQIRoZYhc1qwsgQfCHBl/JExZ8oPPzC2jQUUdZxfStw/L8LMrf+TOVHPp/e9cBGEXRhV9CekgIJfRepYioWLGh/iBYQBRQsQDibwGxIFZU8FcUAZEiInaKitg7ggj2SlGKEALSSwgB0vv/fXPZY3PZu9u7SyOZp2TvdmfnZt7szM588973EiUPi7EaIdESXbeFhEbGoaJBkpW2T1L2rJW83ByJiGsN95ja0urcm70q4ZKRU+VoeqbXdOYEYSE1ZMUrD5lPefyccjRdLh09TaW5/6a+0r+nAzQ4f8TTkpuXL70AhIy/7UpnHkt/WS/Lfl2vvj/2335qwee8WMYfkrCA2Lhxg/Dl4Ul27twpP//8M1yz4m0BIYYlCIEQs2sMgRBfLUNy4K7x3IIl8snK1Z6KqK4FBwXJ8P7nyfB+53pNqxOIFGBhQQAke99eyfx3mwJAuIirAaAjBFZsdH0JwvNPIWhSQFAkG/fA1S/nUIrk0o0G41tovfpSs007iWzcTCIAiNSI9N3yZ8bbS+WdJe6BENf2uuTsEwEoXiphsFApLfnw2z9l8ptfquwWPPlfad20fkBZ06rvoZnvKfD27JPaOkHRgDIt55vpPnfG6adJYmKi+uV9+/ZLHN5rrrJ69WoZct21womNq5x22mny+htvCheM3oRjUcuWLdQ7740358k111zj9haCJQOuGiA///STZZqbR4yQSZOete3K588CZk/SYXn6tU/lz43bS5QhHM/m/QDD+/ToWuJaVTjhq74CaS8uiMbeN0ZtBpl1x02hBx58UEaPvst82vn5CMDd22+/TT788EPHJkrRFc7FTjv9dHnnnXfg7tnYmf6qAVfK559/7vxu58PSZcvk3HPPs5PUMo0vz7yRwZh775UXXpil+tS69RuM034d/W0XzkmHDb1J2DaGBbNRAG74DRw4UCY+/Yw0bdrUOF0tjsdDv/C3zdmA8+fNQ3+7U7hB5irNmjWTuS+/LD17Xuh6yefvvvSLQOpjp2D+1tnX8cdOWZimMpUnkHGg4wkdZNu2bR6rzTV0alq6xzSuF/19X7jmw+8vvzxX7hw1Sl0aOXKUTH3OsdFtldb1XDkBIdsKQZOq/oPRNsrAz8GyZtXvruVR3zkwuxPu1peW/P7br9iV6gBOBHBYoBHNFiG+/oZhEcKHjQMPkcXTTj/D12yOi/QFeemSn50kWSlbJW33WslJTQHuES3h0fUlpn4bCa+JCThesJlH9knyjtWSfng/gKIQvISDpOvApz3WkU/HJaOmypG0TImKCJOe3Tt6TG9cDAvDZBaAhuuL3rjuejwCi5A+RRYhXKhdcf7JasfqMoAjfMZ6ndVF7ruxj/M27oS/8ekP6vun0++WurVqOq+V9Qe6XB3Yvx+uV2kef8oAQuji1a//lV7R2dICQvLyC+TWJ9+Qjdv2qPKxDftfeKqceWIbZfnBydaOvcmyCAvoH9cec++ZeOfVcsGpviPIHpVQhS4aliC5AFazd++U7L17JBs7pUAWJRwAbmhsjISCD6ZGBK07OLJiXCUQAuCRLjQ5sBjJSjoo2bAeySaaD+AjvFlLiWreUqKbt5JwgiHKMsQ+SDFr0Tfy1pc/Ky1ffEYnuDsd40PKBRC8bXeSbOaOe0qqsyU6wPpnyj3XSN240ukzH69YJZPe+ELlv3DibdKq8bEyOH/Uhw/5ALHPHT5R3UFAlOPI8SYjRtwsC+bPdxZ73/4DEhdHQPqYrFjxrfS74gpltWic5VjB8cWQevHx8v33P3jdJX7wgQfk+ecdQPK8efNl0ODBRhbFjpwk9+3bR/6C9YkhUVFRauOAO0GGEIRZ+d33tjYhfF3AHALofRvGp10H8J4qkmYN6gjPp2c6uJF4+vmx18npnVsbSarM0Rd9BdJeH330kQLZaBlrCDeXuEFkyIwZM+W/t95qfFVHzpf69LlEfgGIb4jrfR07dpSly75x8q9dDWDts88+M5LbOi7D/dwp9FfsPvNG/jvAO3fWmWcoK026qf69br1xyeejv+1C66/rrr2mmK6oW2PzzihIN1gIsP/RMrq6SGXvF/62OduPi8LRd95ZbD7MDV+zFRXnZe+9/4FceumlATW53X4RSH3sFNDfOvsz/hxv5QlkHOCaNg7zTfO4blV/X4EQf98XVr9NC9ezzzrTCfrdiWd/8pSpVkktz5UPEJKwtZDkfbTaVpN1moPgU0WTpTJ8b5cuXZT5pgGCcHDwR7gAN8AQPnTr1q2Da4Jvpsb+/G5F3JOb/q9k7P9W8tL2SnBhbRAzxoIIFQuyMCzOInAM5cs0CFwh6eAPSZLUZJix7t0mmWmH5bShL3osMrVvACGtm8TL4skOhM/jTUUXaZUQKBBi7FwzH+ZnyCsfrpTXPv5eff1sxj1Spxy5LuwCITRdo2tMNEhSO3bsJPFY1HiS0nKN+eCbP2TKfIerQlxMlDxx+wDp0c2an4SL6KlFaaMjw+Sj5+4qV+saT/qobNecliC7d0n65k3gBjkKt5ZoCYurJeEgZA4JC5XCHLjF8F82dn1gCUIgBHiIYikuBFNxIXZUc2AtkLFrt2SCWyQH43Bo/YZSq2NXqUkwhNwhkdG2q24GQmY+cIPQgsJKlv++UR5/8QPJyMpRl7nb/ugtV1gl9flcaQMhdOE6Z9hTqhwDLuwOANS+SaXPhS+DGxYtWiQ33XhDsZz3AwipZQJCOIk5rfupsmGDY1f69ttvlwkTJqgxgq6cD2K3fn4RkMKJ8fsffFgsP37ZCyBu7dq/5J2331I79EaC+fMXyMBBg4yvxY60PuGuD+WMM86QOXPmKHN8fv/000/lViyKDxw4wK9itUhWF1z++LKA4a1PzP1Yvvrpb5XLGV1ay5OjrlbjN5pdXv1opby4eLm6RsDu9Qkj1Oeq9McXffnbXnxHdQA3FYnnKQ8//LCMHDlSWdt+++23csMNN8Dq8JDabPjiyy+L7URPnTpFHkF6SqtWreTNN9+Us846S+hW8swzz8irr76qrvU45xz55htHWy3/ZpnT+kldtPjD33v88cfVFZpsE+CLsXCzsbjVecrXZ56Lqi1btqCcy2T2Cy8IwRBKoECIv+0yc+YMWOjcp8pA3c6DlUD37t2F5vG0vpk4caKzjNxB5U5qdZHK3i/8bXOO8aec3E01Iy2qZs6cKYMwPjOIw35sqN0LK6W33npLXW/RooWswZjOzWBfxNd+wbz9rY+dcgVSZ3/GH29lqmzlCWQcSMR41rlzJ1XlSZMmud0kIRDS99LLbK3BAnlfuOqedBTn9Dhb/v7b8Y7n9TvvHA0gZIprUrffywUISUhMxLoSO5YEQHA0nGQqmiz177/WooE7K5cYAiEEQQIBQrh45oTT8Ak7setJbhV/PF4wLEFyU7dI9uFV4C3IkvCIlhIcUkdZfAQFh0mIigwT6qge9FFYmC9pyXtk75ZVknZor5xxi2NS467+rkDIokl3uEta7DzXfnlwaXEnXJBxwVMTHAYUa4sQkLuiM1NIpModbkPMQMjnM++R2jH2F49GHv4e7QIhwN8kNbVQ+X62adMQfsk1bf2kYRnCxL66xGRm58jVY18QuhpRpo8dIuec3L5oxwngIFcbEParELhz8Hjv1Ldk5Z+b1PmJWJRc0N3aKiT5SJpshyUJCVZJtFoDL3VfZNf+Qyp5U+z+HlfCfkNXu8MpkoWJdNauHZK9axd0VyhRMF8OrwtXvsgIPKR5IEo9DO6QoyKZ6eiPORIEtDkI4ZqCQuAuQ2JU7L7n48HIPJAk6VikpGJxUAjLkOjW7aRm6/YSg3/hdeIR3QmuNTZAYDMQMuP+65XVj1m3agwlWStOJu48IEMemaNczYJx7m1Yb5A0152wz+1LPgxLsHAhoOZO7AIhdvMrBoRcBCAEHDaexG6+nvIorWtcLNIlhiTdZnEFQj744AO1M8w0dGN5++23zcnV5wsvvFC4aKVw99pMtjz0phuLgR8qUdEfd0AIzY2bN2+mLFC4CPsT/CDclTTLl1gU9+3bV50688wzZcXK78yXLT/7soDZDSuQwQ/OVuN5x1aN5dXHb5ZwWA9yVDK2PIY9/or8lbBT/dbXs++TmlHoW1VI7OorkPaaPv15eeD++5XWhg0bJq+99loxDX7yySfSr18/dY4Wv/MXLFSfOYlt26a10P2T1km//fabdOrkmHQzAXcjz4UVx6+//qrSr/3rb2XFyw0LT3M1zsUI6PH5IhE+eTGaN28htP6yK74+85s3b5aTup5ouRAIBAgJpF3OPON0WbNmjbJ45lhBPjyzUN8EKCnXX3+DvFIEOpnTVNXPlblfBNLmBBW5uKdMmzZN7r777mJNyA3bcwAq0o2a8hlczC6++D/F0nj64mu/YF6B1MdTWYxr/tbZ3/HH+F13x8pWnkDGgSVLvlKWpKwrwWXXd7hZB3Y3o/19X5h/y/hsuB8a33msnEAIyVIhjiURPzkmIRUNhGxYv069dM3WIJ5ero6SW//li5f/DKsQIoKdOnexTnycnjUsQQpykhANpiFAj1hMJmtIbmYWIsZggVUQJJE14yU0rGgRg1C5QTXCJR0kqvsT4SKTsk+6D5/rsfauQMiCp271mN7TRXJ9zMFu3y/rtsp2RC9h+7Rt1kC6d2opV198mlw1dpa63XCN4RdOitmZe2Axf8fAC+X7VZtl8rwvJDUjCy4zDmCkNhZp5Gh4Cot4kn+WtdgFQpKTC2Xz5nxMKGvCBLgRJn72IvQYliGsh68kqSTOnP7WUqWCru2aqR1VAlLuJpwh4LL4fd02Gfv8O+qeAXChuWPQReoz/7CNaHnzEXggko8cM9knBwzb5N7re5dwS5qNNv5x9WZpULeWkL+FoNUvfycKeQEoMdERyv9/JH4nFPlQ/tz4r0x46SP1+bxTOhRzg1Ini/5MW7hEvoV1A4WgTZdyaG/l3oIFQvae3ZL691+Sl5yEvhaiLEEiGjcCF0+wFKYcgEXWEYStzgLQAfP+/FwFgpB/JZhACEGNon+FCJtbiBDW2ekZkrpzp2RmZEo+gJRIWITUO/VsqdmsFdxrIgFoeneRMQMhnlwJ2D9CAK6Mn/OhfPrdGqW/K87vZklAzLag61nCjn2SVdTHWsLd5ZQTWsh/r7pAYqOL71Z5A0J8ye/2iW8KATPjWeNzFgvizC5tmgpdt8ziS77m+8rqMwH3iy66EETHvyjC0Z49e8orr7yifs4VCHnssUflWezmUMgT0hUgfR5Ae/Y3Pitsq49AyGwQOj6H3eE7TLvD1w8ZIu+9t1jd7/rHHRBCTpCePS9QyWmB8gJ2yDk2GOAogU2OB3VAJEmTbYb7TgLRmbd3sN0FDH943mc/ypz3HOAO27PXmV0UMMd6U4zxaOWqf9T3oZf1kLhytPZTP1rGf+zqK5D2uqR3L1mxYoWqCUm9ufCnyyRnfRyPqGeS4pKbhq5Ru3bvUccffvheLr7IMf4bAB3f25xHGc/lwoUL5MYbb1R5P/roY/LIuHHKhYrDmzt5GpYOjz32mLpMiynuiNudpBt5+vrMb0K9TzrJmmcmECAkkHapDetBWqkQ7PgF44RZtwSn2QfpDkPAiYvjZUUWN4YOqvKxMveLQNr8UrgifvPNN6rpaAHCKJacjznHevTFWbASueuuu1Sap8EPcw+sROyKr/2C+QZSHzvl8rfO/o4/3spUUeWhVcTDDzm4Enuc0wOWno7PgYwDs2e/IPfec4+yHt27d5/z/W2lA47bZnFXHn/fF+a8+ZlA95X9HQD7008/LQ8V1b3SAiEwBJEg6gi7mscsQv50rZf6Xl4cIRoIsVR/iZOuliBBaMioul1gmh8DLgLwF6QmSzp2dPKy83GuNhZqUZj8YMFJ0/ygUEXWmIFFWy4IHNv38TzglhYQkgbg4oHp78rqTQ7TVNdKNY6Pcy6UzUCIK1nq1z+vk/FFC2bXPGbcPwSgSivX06X+3R1ZKs0ZSUIXAn3TEmTPngIFhNASpG+fJtIWpKdlLRNBQPjZd2vVz0wGD8R5p7SHVVTxwdC1DObdPKblgoxCgtxHZr1nSWho5EFQ4+k7B6pFsnHu8Rc/lKUgsiXI0aR+bRWy17hmPjJSzawHrlc7vuSBYYSgTIT5pZXQ5zPvdYIkxj2cPFx65zRVLkaV+HT6PcqqxbheVke6xORhhz9zx7+S9vdaKYS1RxQAkIi6dRASFyAjXGHy9u0EaSqIUAHaMVpMUAH+ofNwYqvwD67zYB1SyLYAD0hwbBz0LJJ18BA4e1JgGn1YQurVl/gzzpPYdh0lvDZcbWyQp9oFQqgbmuWSM+TahxzucFauB69+9J28DuDLWBy76pRcDlPuvUZ4NMQTEOJrfoMeeAFASIqRtfN4EiKJvPjwTc7vvubrvLEMPzwB15aJE59S3FY//PCDvIuIMdwBpLgCIdcMHgSgwwH80YUumLHNXWT9ur+dkWOuvvpqWbDQYT7NZGlwy0qFa5UhtCih+wPFHRDyPoCTIQBQKHRvuP6GG9VkXJ0o+kPArBmsnPbt26fMs5NB7uuNrNzuAoY/cd9z78hPf21RUWG+emEsznBBUPTjRYcwuJjxvUOhFSAtfqqS2NWXv+1FQK5+fD0h5wuJdjfBMoLjklnYzrfBDcpwc1m+/Fs5u0cPIWAxYcJ4lXTBggWKa8asf45l+/FsNG/eXKWh1dIXXzrcMM35mz8TiDn9tO5CF+UBAwYo1yw1Tro2vPkmi8/+PPN7AV6bhQAEXb8CAUL8bReCG717/UeBSpxT33XX3SXG2a2JidgM7KiKfO211yqyZHP5q/Lnytwv/G1zjp3dAMaxD5AQdRusgKwspV9/7VWQE9+umvepp56SMfdxbLQn/vSLQOpjp1T+1rksxh+Wt6LKs3z5N5j791Equ+KKfvLu4sXKIjOQcWDMGBA+z5qlLPPomsi5GsdWI7iIp/axKg/v9fd9Yf6t/fuxsY5Id1wf0fpv4cKFTl60SgmEbE4ERwjmFpxecMJBIISASEWHz924YT24FDo6SVK5A+FtN8rcEObPRFv5z7AIIXlLx06dzUmO28+uliChUXVgmh+FJkRkivRdkpd+WHIzchAlJg/WH7AGyKsBU8wINeHMxm5ESHRdqdW8GwgeG0pMw/Ye9cDnw+AIIQkiyRD9Ee72LwGIQSHoMQwRSlo0qqfM9V96/9ti4XkNIIRtf97NE9WuSW+QpT5+a39lCZK4K0lZKBAUodAShO4aXNhFImxvWQtfalbhc/mioy91VFRTBYAQCCEg0rxFTLkBIXdMnCdrNjvApsXPjgIQEedVHYa1ABOyv3CXikLukPfBN0Khpc2tV/dUoVjpHvPlj3/Jh8sdwCnbk5ZCEVjAUAhUGW3D751bN5ErYWnSoWUjZfL+LqxWmAfluj5nyqjBFyuLnv+BO+AzhGKlkMzTle/iV1iV3DP1bXWdFkRjQZ7rztJFJSqlP3nw386CK0z2ru2SvWMrFoZBcGNpI2EAgQqOIiwxQEW6w+RnZaqFWyEWIjXgJuNwOsTQ6hhkHaXhuMQrACVB4CMShR1CcIYkJ26WgrAwie3aXWI6dJbYlu0kPO4Y2OCuKr4AIcyDL8seQ/+n2pihdZe+eGzCRR6RcS+8r36KrjAjB1+kLDH2JR9R7ck2p9SOjZIPp452Rp5xB4T4k9/mHfvlKIiZRz+7QP0Wn4HrL+2hFs4GCas/+arMyvAPd7J6IWwt+8/48eMVFwJ9v90BIcOGDoU7jAPYOAiri5og2XUVkqle0ru3On3++efLkq8dll48YQYv+Z2uDwzRTXEHhBwCX9E6gCuUU8CXZfWbtGY5//zzVJrTER3k+x9+LAGWqIumP3YXMLzlkpFTAGRmyckdWsjz910n87/4SdYn7lKEvnSBIQ9V33NOkvOL3PMIzBrWIqafPK4/2tWXv+1F69eTu52kdHTdddcJowi57gzy4tyX5iCKxWiVjlYaJPS+fsh1sDR6T50jwXyLlq3UZ/MfWivVrx+vzLLJ6fbHn6vMl4t9ZtvRSuqnH39U3G8sW4uWLb2C88UyKfri6zPPRahhcWjkRwBn586dAQEhgw4ynwAAORlJREFU/rYLy8A6GOIaaIB8Loy+Y7gdkTdiwFXFreCMe6visTL3C3/bnM//6tWrJBVzCLownHRStxLgF9vy8ssulaUI60xh9KWLfHCN8bVf8DcCqQ/v9yb+1rm0xx+jnBVVnhVwbb3kEsc7vH///vLOonfVmjaQcaB/vyvkq6++wnv6fAWu/YFQzAkJCWp85fqZblWMCEbXRlexKg/Xxv6+L4z8+ZxfftllsmzZUrwb6it+kDBYttUu4kWrlEBIQsI2zMW5S+yYoSsgBKjImtWORY9ROeNYXhYhGggxNG59dGcJEobFlBQeRXSKg5KXsVsKsEMN4gGQMeYjXC4iVKTlSg1YgiCupxTUiJTI+DYS3/4cWJE4dnWsf81xlk+IAYR4Sud67cOpdyrXCJ43+4XTxP618TdjYVPkroPrew8elmsffFGBHEzvCQjhJIwL99nvfgNiPYf/+tezx6oIGETay2NhzEHniy8+l4TNCSyuU+rVawR/6VPxvaECQugaQ6EliCeLEIba3Lt3L3Z5j+3wqhuL/nDB0qhRI1vhLC+/a5rTrYDhi+la4I/shHvCkIfnKHPqEwBgvPzYcBU1yJzX0699Ju8t+12dYujdEVeerz6bgRBG83n32ZHFOCYIglz/yBxF3MmJKq83hBvN6n+2yx1Pz1N5XHpOV3lkxBXmn5NnXv/cGQ74tfEjpGOrRuWySMo5mCRp/2yUnD27BMgiQMdwxQ2CR1Fy9wN4PAwwBAAjuT+UNU0+gRCYksMCxFocIG1wVIyE1G8s2Vm5cmjLZsnBfSHNmkvNdp2k3kmnSVSDJta3m876CoRwcXDVmBmyu8hN6QtY3hD0IPhFSxG6L9EiZ9EktEk9jCsmeeb1z2TxUkd7P3H7lXLxGQ5g2QoI8Tc/kmRx8Xv6DRPUL18FjpCHb75cgfY5sBryN19TNUr942G4kXQH8ekugGUEQr///nsFOo8dO9YZycXVImTys5Pk0UcfVWX5GHwNvXtfUqJcE7Ez+MQTDj2QO+vPVaudaRS4pt7fjlPz5r0ptyDsLcUdEEKXU/ICUcyWX+oE/pBIkiayRijfKSA3u3P0XV77mN0FDNuOFn4UkqSmpGYoAESdcPlzVtc2cH0bqPhDXC4d91/t6svf9voRoMOFPS9QevLE1r/43UWKNJUJZ2GHccQt/1W7l9w1pBwAj1Es+DxchUBwJ0y4SULKSe+OnRgX3chb2BUcPnyYujpmzBiZPHlyMdJzN7dZnvbnmXfdSCP/SaBAiL/twi3HUADRFFrZ8F0xH2SpjLaTkLBZRTY0IkGQtHj27NlqvLNURhU8WZn7hb9tzgWimfjRFfxiMz79NKywxo9XLUrOmHXr12MzreQiViWw+ONPvwikPhZFKHHK3zrTeqI0xx+jYBVVnkOHkoXgA4UgbPfTTlcbY4GMAyd26ayAD6NuVkduyr719jvC6G9msSrPT3CZ9fd9YeTNiHWMVkTheEaesUOwJq1Xr646VymBkM3gCFEWIVjl4n81yeTuJaO2WIkGQqy0Uv7n3FqCCBZh2btUCN2C3MNoU4AFEQ0kJwPuDbsPSsZBcBfAzSEkurHEtj1XohrC9D6GoTqPgRHuasPnwx8g5L3Jo5TlB/OdtWgZQnz+on6CbhQMhctJAN4RalAguEFOAlqGUDwBIRz0ObmZ+z6jxjiAkC9mjUHUgSg1YWeeZS3ugAv0e9mSAILJfYXKEgTrYiXegBB3wIpRj3Zg/+/b99JiZInGNdcjw44SDIqFtcLXL95vuRPoeo/Vd3N44mdGD1SLXvqY88XONqgBi4aDh1Olz6ip6nbyR8x68Ab12QyEMGJNX4AaLJPjXjydaO9XwRtiRId4auRV0vO0jooXoe+dU5Fvmir/ZzPuPbZww/0MpcwwznS3YXQbM3muVR1K61zWnt1y5PdfJe/gfoSkRmjv6HAYc4SDDDVbcsENwnC6+SlHAIZkqzrSBYbjqRpYLQoRBE6RYFgu1QBiHxxbB7oJloyUw3ALypIsgCuRLdtI4/N6SUzzNhZ3Fz/lKxDCvnPbU2/I2s07VUZGPyXvyiNF1iB3X9dLbgA3g+qjdEvAPXTxSUJ79y1qb1pq0GqHYgWE+JsfOVXwpMjZNz2p8h4AIOT+m/pAr1An/vibr8qsjP5ce81gFfEhBoAliRBbtmypFjDmMIauQAhDxZN0knLiiSfCt/YrYahcQ0ia2Os/Fyv3Bp5jWHkSU7oTLqhuuWWEuuwOCIFq1djJRIY+jfzexu7zffeNUVGueI5EqXTvcfBKGKmsj3YXMClHM+TS0c8Vy4Qh2f9zZmfwDMXAhS5Jvge3EAETCvmKzCHTi914HH+xqy9/2+sL7CgPgGUBhVFaHnr4EUttff31Erni8svVtfHjJ8iD8OdmeFly1hAwzQDXmJXgMZIeiArAnUhP6dhfudNIC0pGyCBwEoUxz+xqY5W/3XN2nnnXvNq1bRMwEOJvu7iWhd/vAzg0a9bMYpfIzUNf+7POOluNwcUuVuEvlblfBNLmfKcZmLX52d+LqF93wz3q448dLpJsWlqD9IIVIIFqf8VOvwikPnbK5W+dS3P8MZezospjtrbmeEheJCuxOw7Q7ZH8InSzozD6Ft1QSGjNDYy5c+cq1xReIxhCaz2SUxtiVZ5A3hfMl++L8887V7nn3HHHHYp7jPVkJKz4ygyEJMA1hhMhdgbMOsEbQZuQYAAhjt0+Q2nGUQMhhiYq5ujNEqQwD3wgGTsRtOKoo4Cw/JCgOMlNQ4SYvUmSk4ownoVRiG7RXuI69AS3QSvbFeEjYgAh5GUYdoVj8u4tg34XnOxEwu+bBr/wtVvUYuqXeY8VgSB4AIuEg9SWXQdgJfCSOuMJCDHuqcioMUYZjKNBbpqQkAqixIPCqC9madIkSkV/aYqjWSKjSEwYLv9sXKt8tRM2rZFGdUPAmeHYtTXStuvQTfr2v0nandDNOGV55CL3GkRkoMUFLS1WwiLEX3kMoVaX/bpBWZR899o4PD8lTdSJal8ycrKyQKkXV1M+ef5u9XNmIIQLbQIXasApKgx3FH8DQavh/kDS1CF9z1KWPjPfXiYLYC5PeW7Mtc4oKL+t3yp3T3a4EtwCyxNan5SH9Q/LQW6QQ9+vBNhxUGo2bqBcYoIQHrcgMw2hcOEWA16ToEIQEWMMtSOFOVlSAMsSAibBUTWlEC4yYPOBhUyGHDp8QMKbNpMWvQdIrTYOX3FPefoKhDCvmx57GUSo+1W23859QPXTNz75QeZ+sEKdI8Ftu2YNSpjw8pmixc5h7OQ3qBMrHz7nMKu3AkICyY8+r87wuS5RYwLJV1WulP+8/tpr8O2+TeX6+uuvy0033aT4GDi6eQJCqMvrr7/eGS0mHjvrV1xxhTSo3wAhddcLo3qY3RnOPvtsWf7tCreltzP5tbqZ5Gn0Of5u5Urn5V69ein/3togTaWVnTexu4DZsS8Z45ODn4Z5tmveQBjyOb72MbcgWoWNemY+SHodE72FcLlrBXeZqiR29WVVZzvt9RnCIF999VXqdoZjvXfMfVZZiTndpGefVZwVjHi0du1aRdiZmppWYgwwMiLnx19//aXMrw8BCOZ80lX4DA8a6HDtmDFjhgoF6wpek3j8WkRNspI+2B2+HRNrd+LPM+8NCPG3PHbaxaoen332qXyOHVS6xXBBQasyCgGmcbAYe9gNiGWV1/F+rjL3Cyvd+tvm5GQg+EU+DIPniW4ML7/8spAXxiARfhVE2x9//LHVT6vQ6uZw7OZE/vQL3m+nPv72D7t1Ls3xx6wT18/lVR7OyRUIgwLQKdoMhJnLZHcc4PhAvhNuxjLqF7nBzKGWDyFIRm8AaQSpKaNh0fksrPAMsSqP+T3g6/uCzwMj4HAzl6AMo4GFwsWbQB6f7coNhGxJdHjDgDGVliFEK0meqjlCjMelch29WYIUZB+AW8xhtGMwLEHqImBFiGQdypDM5KOSmQSyu/B4iW19nkTCEiQ0pj4sQXwwu4MqDCCE/tuLsbC1I2aSO5rcc3HeCKb2H027G52k5OSaZKq97piisj7egBAj3C2BkEOHssEKX7x+kZEOwIPAh1kIjDA87oH9/yggJO3gOulzdgwWoQCyTBIT31kadRwsNet1Np0t+ZGDHAlpv1u1SV38aNpdUt+0yCh5x7EzO7FI4eZ/BCwVuMgdPv5V+effvYoU870poyx3KAho3DPlbfkZ5IeU5VhUkyfEAEL4Avj+tUccgOuxn1KfaPVxxd3Pq8/Gzi9Bt22IJnQdXHIol5/XTR4afpn6POmNz2F54HAN+ABuV3SlKS/J+HerHPx2mRQcTpZarZpLeBSsQY4cUrwguZkguqxVR6IAVoXWbWirSOQaOfrrSsndt8cRHaZmLeCWdSQdAMmBnVskrGETaXXZYIlr38Vrfr4CIQSP+o56TrmhcTd++dwH1YL7fy9/onhfvP5gUQLeu2yOIzynFRASSH6egJBA8rVbN7vpyKHAHSySnZLMdDGI0MzjnicghBY2h0GSy+gb3P21Ekbt4ESYUSYIkry7+D2rZOqcr5Nf5vkQ/IhffnmuczxmtBgyvY+Aiw3HEhJaWqxvS5TB7gKGFkX97p7uvP+tp28X8joR8HFszGDSiDFlLIBz8sBQCMpdcvaJznuqwge7+jLX1Zf2+v333+RcRByhPIg2Hj/hCXNWzs9vvvG60AWDQhDv2uuGwELkMvn666/VudS0dBXmVX1x+dOmdSsA/rulZcuWIGNNKAZ0G0nPO/ccFX6Xizy6foZHRJZIl4KJe6NG1uPmcHDezJ59DDgz8jWOvj7zvM8bEOJreXxpF6Pc5iM3E/jMUzgvmj9/vuL6YZ+g5eS69RukVatW5luq7OfK3C/MSg+kzVeuXCF3gBQ1MTHRmeVl4FYgUMh2phWmYQ3CyCCzESHESki62qhRY6tLyt3Km3Wg+UZf6uNr/+Dv+FLn0hx/zHU0f65s5WHZ7I4DfC+TX4TjAz9z8V5QtEmJ1bzaTCTnhxHynK4x5PnyJIG8L2699b/y5htvKH4SRsEiB44Bdld6IGQLXGMUEqKMkKk+THfw/+rVf1rqS1uEWKqlzE/m5aRJVup+WHZskfy0NSA6LFTRYQxOkLK0BDEqx65mBkLefsbBbG1cd3c0Jre83hfRQLiLzEgT5IMwWwcY92dk5sjFtz+rvj4wtK/0u+AU1dFdyVKN9JXBIsSbJYhRVndHw2UmNTXBwd6fsUGGX14HRIIRxW+J7ihB8djhw9GbvLj4W5n/uWPge37sEDm9s/dJFK0DaCVAYSjjGfdfLwPGzBSSZJIf5PUJIyzbjOPw2OfflR9gzk7ugZWvPKxADwMIqQMCW7ot8VlwlcNpGWpBzvPkgRhzwyUqCV8IgxE5ZCuim9AC6bMZ92B8CpLLwH3CZ6hT68by5hO3OM3nXfMti+8ZW7dI0jdLJB9ASFybVhIeifC3hw6gT8LlDLs7oU1aSGyPXhLezLsrC8uXsWm9JH+yWDK3bAIQEiE1atWWEIAfGblZsjdxPXhDGkmbfkOkdgfvC0BfgRBaZtFCi0IC3LmPDlNta1ht8TxBDoNLgt+tJBJpPoJFCBewVkBIIPl5AkICydeqHoGcY4QYRoqhdOvWTYWdNe+Mb9r0DyJH7VHXeyAiRxiiBZ188skyEWADxSC5I7s6ifLWrVunGOVPOeUUFTrzIoQxZYhTCk1On5vmAA7VCZc/viwK18MHnaR0nDBRQkNDVcQChjdl1CuOz3RPsRqnXX5WfbW/gAmSc4c/pSy5yEuz7KUHHGCLSWkEiEjKyzGEciNctG4DSXNVEvv6ctTa1/bauWO7043ylltukZmzrBdT0xCS+aGHHlQ/8gmsSHr16i3/hXvVPLhZUbZv3yENGlqDFEb4x+7du8uPP/1c4ln57ruVijyY+QwbNkxexu62lXURzadP6NC+xP2O+4Y7+wq/u4ovz7xxrzcgxJfy+NouRhnMR1p+1FBAiAME5DVGD5kzZ45K9sorjO50g/mWKvu5MvcLQ+n+tjnnQI/Bwue556Y650NcrJIzh3wKFDMIwu8Txj/ufA743Szr1q2XunA3sxJf+oWv9fGlf/hT59Iaf6z0UtnKYy6j3XGAoCnnyBTHexqbFabdCoIjvN6sWVMFVNNaJOUwrI89SCDvi6hIBAzAs00SfpK3cu5m7J7k5uYo91r+NDkOTzjBsX6ZiveOAdS4K5aZ08VdmkDPByUoIMSRDdYyyhqEliGrV/1hmbcGQizVUuYn05ITZd+mJSA/PSj1moBEsXY9R3SYIk6QsrQEMSrH58MMhDA6iK9yyxOvy/qtuxUJ49emKBXmfLbSNWbcXHXqeLEI8WYJYq6f1eeyAEK4iOCuOaXHSe1k8j2DrX662LlpC5bI4iLS09ux6CA/xMin5yPU8Xb47kerMLXFbjB9ufHRubJl5wEFci0GyMWB0ABC+Ox8g8UOrUxchdYmtDqh0M2FZKsULoTmf/6T4pXh9+fHXqdMC0c/u5BfFWcAI8Zw8C0vSScQsvQryT+UJHGtWmBnE4h8yn4pRKSYAhCchjZtJTE9ektY87a2imQGQoKwOA4hENKoCAjZirDDDRpKmyuuBxDS1Wt+vgIh42a/L8t/cyyAyQUyuPcZ6oVqfgZoSWQOj+uuEIYJrxUQEkh+noCQQPJ1Vw9/zz8Dkrvx48f7dPt5mCx8XRT9xTFpqVG0s1Mymw8++FCuumqAusBQvFf0618yUdEZu5Nf7uLTrSEZEWQojAzzBnZ0yDZPISeIlcWeuujmj90FDCdx/e+ZoQDWpg1qy3uT77TsxxxPOK5QbkTEoNsGVl8gxJ/2ys7Kgl94rNLfqQhnSKDCSkbecbsDgMdFRnNp3aYtFmvj5Fm4yVA+RHjnPn0cizR1ougPQ9IaVgq0WmJUGle5asAA8B18pk6Ta+a00x3jjGs6Wg2GYofTSjgOuIb9Naez+8yb7/EGhNgtjz/tMufFF7HwdeiW1l1sG1chX9r8+fMUeMRrtNC6594xrsmq5He74wgr74/+A+kX/v6m0VC0vps2zcGPFB4ejhDVE8DJdJ+y+nEHPJutBIx8jKPZ8tA4Zxzt9gt/dGi3f7As/tS5tMYfQxfmY2UpT1mPAwRVunTuhIANmyUevGM7d+02q6HE50D6hQGElMjUw4mly5aBH+08DynESavgMVGAF4MUWSqRD/rDKHGEdFyjgZAAVVs6t+dlp0nm0X2SenCTHN79O9C2AmnU9lSJgekyo8OUhyWIUZNAgRBaDUx46WP56qe/VZbczadvuKt8+O2fMvnNL9VpDYT4bxFClxNaVGSCt4LCCD206nAnWUjX/97pKqQl0xjtY3ZFWTTpDsuF8X5YjNByhID0mSe2kWkIh8mXugGEML9XEG2GVhyu8s6SX2QG+EAoLzx0I6xgmjuTHDqaLpeDGJX59odlEAxCEC55lQJJvnxhjALUnInL4UP61kRYhHylyFJjGzeE/zwm7mmHpBAcIYVAvWvUqS/hnbpLSHzJeloVL3vnv3LkxxWSA9eY4IgoEKbWkmCAnBm5mXJgV4KENmwsbS6/Tmq3L12LEIKNBJ9ysNvPCc3H4HQh0EX5AKGQp8xz9L9Jdw1yRoQxl59g/5z3lgvd2Fo2jpd+53dTbWQFhASSnycgJJB8zXUpjc/fY9f7iy++cJvVd999J3/+6bCypAtCVFSUtG/fXoYNv1m5vMxHpBfKc9ghoeWHw9QVQzwUTR1cfdVVKh0nNozgYRXu1vhxu5Pf3uD/oGkwheF9ueilCT6BRYMMWV304Y/dBQzrx/DeBFgJijB0c2R4WIlfIjcROYooE267UpGplkh0HJ+wqy9W0Z/2om7PAxEvTZW5U7dt279CDhqzkGyvRfNmKgRu27ZtZSMITWmS/+3ybwB+9FFJR44cJdy9c5UZ06fL/fePVafpyjFw0OBiSbKzs6Vhg/rKpYskvxtgeeQO0OAzYQ4lac6Iz6RBnGs+b3y2+8wb6Xn0BoTYLY8/7UJC4mHDhqri0OWHrj9WMnPGdGHEKcpiACaXwy2uOkhl7hfUvz9tzvuWLv1ahRblZ0aFofUfd8T5PiXo7I7rLAQ8UtwYshJjE8Lqmt1+4U997PYPf+tcGuOPlU4qU3kCGQcGDRwotLajdSnHVRIruwrdl2gRQmJVWml8vXSZmlO4pjO++/u+IN/JuEceVr9j5GU+8tmmyxeFhPAXX3yx+jxy5EhpiuiInqScLEK2oQsS/FBrDNUhudioDEAICVc4MeM/djr+80c4meQ/NdCgQchc3rGTZ44Ff36nLO5JTdoiezYuQdSX/VIrvonE1o2HNUgsJjXZKjpMeViCGPWi9gO1CPn0uzXCUKsU+nvT79ssnIBfBx6RXQdS1GlfgRC6T9ANo7ylMrrGcEeJ1h2T33Qs0EhiOnHU1dIFbhCuwggsY59fJOu27FKXzjulg0y59xplwvwlgKv/zXUQdfXveQoid5TcGZy9eLksgPUGxezLbwZCLjq9o/zvDrj1mCQ7J08G3f+CikLC8L7kqeBgbAgnALc9+YasAnFiLKK0UI6mZ8o5J7dXBKpWJtbGvWVxJEdI0opl4PTYLVFxMUCrMT4V5IiAMDU/PRWLSIymYXgh1Si5qLMqT35GuuQmH2QMRakRV1uCIqMlrwbIUrMzJCVlr0Q0bS6t+gySuHbexyu7FiHrE3fLQzMXq4g8LNPgXqfLmBv7OM3Vze5RdJl5adzQEkX/5rcN8uhsxwL1JlgN3VrksmAFhASSnxkIuRKRQ8ainIYEkq+RR2kdSXhKkMKdjBs3Tp566il1mSRmtWuTNFhAhpcrixYtkptudJi8T58+Q2697bZi2XCH/tRTTlbvMC5M6bpg+I4XS1j0xc7k92BSkjRt2kTdYXCa8B3J/kSd+yu+LGDM7wIrtxcWY8QTr8nGbQAJ8e5fPHkkuKXi/C1apbzPrr78bS/OmV6e+5KMGjVK1X/QoEEyb/6CYrpYAABjxAjHQvwecBFMenayAsM4DDPM4759+5TL1C+//iYM3WwI+XDOQcQYPp+co+3fvx8AXaxxWR0JtHGRRSFHyf/+96TbxZ5K5OcfO8+8a9begBDX9Fbf/W2XdX//hTDb3VWWDLO9dNk3Cqgy/wZJEM8+60y1m8vzm7Cr26JFS3OSKvu5MvcLf9ucjXX3XXfBxeVF1V9IYkk3So7ldIUpC7HTLwKpj50y+1vn0hh/rMpXUeUhmHv0iMM1JQyWQNwMCWQcePzxx2TSM8+oKs6Z85IMHTasRHUfuP9+mT7d4UZLd9dHMA8xXu9W5fH3fcG5gzsQm4UiEEO3W8ro0aNRJgc/GOcb7sA/lRh/ygkI2WroBUgI2EJgGcJpUEUDIRvWr1MmunzBcoLJf4EAIWx0/iMYoghkOncx9FypjioiR0G+5MISJDvtoBw9sEmStsGctSBb6jXvBDCkHsLOYdEUfLjMosO4UwiXpwYQwpCsV/Ysac7p7t5r+5ypFrJsx0H3z5Id+w6ppNfAHH94//PUzj53/yfM+Uh+37DNmY0dIOTdpb/J8wu/Vvf8d8AFcjl2p+vE1sTz4sym3D54c5EpL7JUVpiLB+4CjnjiVVmzaYfSARdsg/5zunRu20TaNq2vuDbWYWFMKwtGcqDEREUoItza8N3nIMU2o2UJSW4pQy8/R27Cv/CwECGQ8cnK1TJt4RJ1rUl8nHwwdbRzcDMDIUxwHZ6DgXBnaQCC0137DymLkQ1b96h7GV3o4eGXO+/lSYIin323Vp585ROVxvhDS4XzAdYEsmgz8vLlmLlrhyT/+qNk79wmIfm5iKQTLOE1YcmRnyN5ADTy4Oeel5UDkmL6a2Ik5WDqRo5dgm94zRgJq99Q8vGySD96RDJzMiU7OF+iW7WVZhdcKrEt27vJ5dhpMxBy6bknSctGx/yG2Y4HDh1FWNKDClQy7qLby8KJt+ElRksAR4kIPj0GkMOw3OqNENcESmpGhqs0S39ZJ1Pmfynp4PIhIe47z9wh9evEqCytgJBA8iM83wt8QWkIR8yIIgzLXLdWTQd3SQDlNOpfWkf1jvIw4HDSYgAhBw+CXyYuTm0/cBK8Y/t2vOtOUO8mkpR+/MmnQmIzCqNHDB40UHbscPRfTp5P7HqS49lyU3g7k99PP/1EBoLUlcLoNtyV9DQhiQS5paeoHUZR7C5gmJ7v9oFjZ6p3AccqgiEcH2pi/GE47ufmL5EVf/6jsiYAy7GhrBYMRvnL+2hXX4G011GMJ21hZUSffsq4cY/KTUOHSmxsrLwHUt+770b4cQByEeAoIjeNsUPH8IrkMqBLBqVr167yJMC8Cy7oqcLfjho1Un768Ud1jaS6nIy7ts94PPfPFE3WlyxZIufj3rIQO8+86++WBhDib7twk+LCC3tiR/c7Vaz//KcXAKhnlZUY3xu//fqrPPDA/c6IDyRIfv+DDzwCoK71O56/V+Z+4W+bsz2MSCh0U6ClD8dcNU9w01gXXniRAkvcXPZ62k6/CKQ+XguABP7WuTTGH6vyVVR5lsPCrm+RhV0/uLYugotrIOPAH7+DCBvWfnx+CDJMmTJVBg8GsT42WRh5ago4Z55/fppSAZ+3hIQtEgGeEEOsysNr/r4vWBd3kg+3cbqBUQiEPPeco1zenn+mLzcghJP1Qm5mYTfTMZcrBEeIw4yXBTFLeXGE/LNxg9BMkw2sJpmlBITwhU9/qU6VFAgpwOIqF7vLtAQ5sPU7gCFJiEwRLzVCsQgpzEJ4pDypEy8SGYGwm2UUHcbc3ubPZiDEfN7O57cRFaBFo7qq4zP86b1T3lJm+byX+daBWX7ykXSVVcvG9dSCjV/sACHbQKY5pCjcrsoAf2bcPwRkn62Mr+V29GYZUl7hc40KcxG6J+mw3PXsAieQYVyzOlL3T468SrnQ0OSSwgHuD4BTd7PNis4RoKiHBSnBK1rxUEisOemuwXJGl9bOCbEZCOE9xmI7HL7g2UV58d42TeNl3pO3KvDGdWKQBbDlkjsmO58XEqd++cJ9GLSOQQnMozwkO2m/HFn/t2QmbpKcXQBD8PDGNG+hjrmIAJN3JAV1xK46d9bzMMkpAhdcy8aSO+qJDBDhKQTRZiKbtxRAKJK0fbNkF+DF0biZxCJaTIOTz5LoRs1csyjx3QyElLhocYKWQc/DhakWgByD3ZvJaIKbAjLaG8a9JEkpqepO9tH6iCDE88YzwAuP39pfLgPoYpitWwEhgeRH8PvBGYtlZdGCmL95Uvtm8uLDNwVUTuZTnvLEhPHCcHSU/fsPiDncIfvXuHGPOBeMTNOyZUv13tu6dSu/Knn88ceF/8z6N66Zj3Ymv+YoNuZ73X3movlAEiyXvIjdBQyzYb1/XbdVRYYxQuTyPHeWzHUkh8gbE25RAAk3M6qS2NVXIO1FPf/0048qlCKjQriTqVOnAhS5xzkWcC5IgIpzvo/AEeJO+KwSoIuBW5/r2E2LEV7jHI5cNJFRZWOtaeeZdy1/aQAh/rYL9fHX2jVqIWNukzCEm+Qzzh1UQ+rDlYnhievUraeuGeer8rEy9wt/2/zI4cMqKpIvYxjDnTLsqb9ip1/4Wx87ZQqkzqUx/riWsSLL8+3y5XA1vEQVieFuF727WI2L/o4D3NR88skn1ZzAXE9am6YgjLkhBLjptjgAXE3GPI3XrMrD8/6+L3ivO6EBQnSUA4S5887RMnnKFHdJS5wvFyBEcYSobUtagnB6zilvxVuEbIUvfl3sjnECZgZCfLUK4YuZ/zj48B93RZJhmty6dRtVz8r2JzMtRQ7tS1SWIJkHETUCL8zajbqiZYIkec96rJ6SpG79YImOYXikQgmuESFBIXUkN6NA0vcdRFSZPExeoiWiXnuJ69BTIuq2KrUq8snoO/o5STma4XOeBrcEB7cwgFs0z2doxP3YpTYLOSxmYtd3wL0zVFhPhkxl6FS2+wW3PK0sEPr26CrjbjnmK8udxYmvfqIsB4xdzZkPDJFTO5Ze3c1lNH+m+SrDAaYhTrZZDmEc2pJQCLPiQsTQLhQEFFFikKLyaCWMwf3FF59LwuYEq8vSrn07MItf6owEYJnI5SQXFgQrFn7xkzDCjsEZYk7GNAxdO/paRDyBpQcXIsaklu0ehp1/uiI8OONdJ0hlvp8g15R7rxWGVaa5v4FRGEAIrUwehRvUM3CLInhiFrq5EPCilYiV/zgHZv6uEUbz2kvOlLuH9KqQ3bHcI4clA7weaQn/SOrfqyQoK0NimrWUMPAbFKYclILUo5KflQ4DrhwHGJKvIA9VXX4yf1A6CgmVGlgckBskpHZdWIKky4Htm6QAoFKdE0+XuBO6SlzrEyQCvCHeZPa7cE9CG7sTtnHDurGK06M/rLnOPaW9WuiY29q4l2lT07NAtvuxU+/GNR5bATAbAesrureZydrM7g4G+Mn0/ubHfr8ablGMEJMBSxuKAYTws7/58t7ylKee/B/cAv6nfjIJgEIM3muGECBkh+HOO/9lgeDSLHwH0rWGO4icyHibSL+FyDPDhw9TWSxc+JZcVWT5Yc7zYkSh+eGH782nPH7m5Grvvv0e0/Ci3QUM0xrjCoHsR2a9J5u27+PpYsLn65ERl6t8rcaGYomPwy929RVIe7EPsZ/QImPo0KHK1cWsKlon0VqJ0YjMfZlpONnm5tGQIUMUR415gc7rF1xwgTDSUUNEAnBtHz7HdevUVpZOdKlZs3ZtmY3Zdp55ltcsjFDz77//IoLBCSjbX+ZLtj8H0i5sE7ppU7e0/HIVttvN4A4hgFoPUUHM4KBr2qr2vTL3C3/bfMWKb+WS3r19aqpp06bBEm+kT/eYE9vpF/7Wx/w77j4HWudAxh+rMlVkeczRs64C59fCt95WRfR3HOAGEzc6GVWKgAgJb12FfBxvgY+oS5cuxeb0TOeuPIG8L1x/3/hOICSmZrSauxBsf2bSJOOS12O5ACEJiXCNgTuMgkEwGaMSOGGvaNcYAhaHkg8qQiHDKoRloxhH9cXDH2MhZwAhfKEzhCGRdU4uK6Mk7f5HNvz2keSkH5TmLdpL3fimEhFdR9JTDsj29Ssl4+h2cIQEg58gUqIRYSI4OAzgR67kHIUp/eGjEhbdWOp1uEBiGneW0Jj6oCoovR0YY+Lqj97ME3iavHFxy3OMGLIJ/2hN0LVdM2kKU32zGP6TRufkNbaneVJAoIwDJk3/uYNNi4EGdWrBgqbsdw/dARf16jWSDh3oOtQQFkj52A1zLIO9ASHugBVDJyRJZPgpK2IkI43r0XCRYfchOeaOvQdl664kZX7OXf62zRpI84Z18Syh76OYNG92XWwZgy7bg+4Vm7bvhb5TsaiupwhvG8eD3wL5u/r8mYGQFa88pPJP3LVfuerQ1aJ9i4bSGi461A4n0kafNdeBbT/rnWWy8Muf1WlGpOFzYpXWfF9ZfM7PypScw4ckLTFBDv3xk+Qe2AsrrSj00ZoSzugMOdmSu2cXLEOOwBrEYRHCcqr/MM7i6VX/s2wcd0MwDtHyowBAUwasSdKPHpKjackgSW0kjc++WJGkRtatLyHgDvEmnpjlre5ludgHrfRo7m97Dx6Wf7btVZZF0VHh0gLPSrcOLVR7G/3TyJ/9mv2bYu7z/ubHfDhRyMnNV65UedBpY7hfkU+GEki+KoNy+sPxieMUhc+5q0uXcZ2g6qpVq5TVIt9XtIq8AItNusywT1Kn3sTcBq7tY9zL6BwcF3wRM8Dp7j67CxjjfmNc4bizc3+y0E0uBUApxwQSaRt8T1ZgnZHH8Xy0q69A28vQM3W1adMmkOSuBECfqiK+9AKHB98n3ETg+G0WPiH8bfYzvpt+hCsMF+00tWZoZ4aAprhrH/Mk1l0alUGAf+w8864/YS5bdo6DUNw1jbfvgbSLMW/hIoFWygRFEhMTVVu0B5EyozfxXU8pS915q2NFXK/M/cLfNmcfMsKd2tWpVZ+0ey/T2ekX/taHY7Y34ZwykDoHOv64lq8iy2Ose1gmzrnYpymBjAPGvIGk1CRj5ziSnp6OtUcH5e5KQl4K5/ScC5jFXXmYxt/3hTl/82fzPI1W4WYLZHM6q8/mcdrqemmcC0rYkogmIREpslMPNhdDBbJmdcW6xrByB0C+lQEyQe5GRUdHK59inqdS7YgxweeLhg8HzYWisPtav0EDO7dXSJrdW/+U37+eC7eXNDnl7H7SqHEbPMVwldm3TXZu/EmOJm+XoNB8CcEOe0RsXVjVhwAIyZCg/BrYlY6T2EadpX7niyW6futSLz+1TssAf8R1p8no/K55sc04GePgTDEm8sU6EtKYd59YLnJhqJ1VdVfJBXnR6VI/cPLy8UcfqkmMOfNmzZoJSdCiopoqIGTPngJlGdK8RQz8BMHP4cYixJxHaX6mjmg5YyxSrfLmQou6d/d+o35DQORp1f14D3cLDdcXI38zEMLwuVa/zzZ3tyBnPrx2JSyEaElyaseWMueRoT4NpEZZSuNYiDrmZ2dJxu7tkrz6d8ncvlWCUo/geQ2T6IYN1QukACbgBVg0FOTCKoTWMfyHMUh5yWAxHEQd4nkNqgG3PwAoNbDIzYFL3JG9O2CtkyGFAPKiW7WTRmf0lFot2gEEAQcJLEe8ifFS9JSOusb/alFtWE+5S88+xx0HqwUz88iHC5Dry9U88XLt8/7kx7KZX8r8zmctx7Rw8Tdf5lVeQj2yHhSrRY3qn6Y0ruUyxkHX81bf2c9DisAoqwkQ7yG4RL35ImUBhPD3HUCtdehgAkZqTOIDVwXF7oKvNNrLtR+Z1enp+VLvVzfAmaexm88Xy22Iv2CDcb+no51n3vV+8wTb37IF2i6enn2Wl+9T9mHquTpJZe4X/rZ5MF1gMcb7Ip76pZ187PQLf+tj55H0NOa4K79rnf0df6zyr8jymH+b/dkAQljOQMYBcxu71pltlAd+Dtd5OdN5Ko/rddd8XdvI9brrd/O7wO6GjpGHeZw2zpX2EUDIVjXCHhtmFSwCjpA/LH+rvDhCjB9XliGHkiUTDOUUXydvxgskEgy9derUrbSWIEZ9DSCkMBeLPgAh9es1kJyDWyTr4L+SnrwLkTqTJPVoKkzo8yQ3OFQKsagKxqS3VsO20uTE/0idZl2xM91AQsK97yAbv1mRRy6u+R+Fk16jvfwpE58N5sRnOZB8fPntJERf2Ag+GzJvmyUSpER164ITJSRKASAEQmgZUrtOzQoBQsxlo57Mi1tf9e68v0jZnu43AyFfv3ifWoTzt4PQ7mwoT/caZV689HcnGevke66Rc+FK42qxYqQt8yOfUUxMs1OSJe3fLZIKrpC0hI1SAELCqKiaElETFh4MgYs65gMMyUtLxRHRZIDYky8kCIBJCKx6SI5KlxhOcjOPwMIkFZYg+BcUGwOXti6IEtNFaiNSTCT6fxAWtkGYRFWUONu7qAC0brF6sdotn7/58T6HOMAc19/zN1/XfCryO+vg+FdUU/QRjmXlNZ4FWne7Cxir33G2H4eG46zeVvWxcy4QfdnJ3yqN0jPHX4oag0nY6Pjq6S+7H8choxtyPOP4rSVwDZiffebm6POOY+C5H385HE/94vjT7vFZ4so2/pRFefwdBziac06tVkCl/P70931RWk9ZuQAhmxMTCxkpxiGYcKF1g/Byq2iy1NJS4vGWz46EP+T7z1+U/MwUOf2MXggXCIKso7skPyMZO9EZknY4RQ7u3itHDh+RDJhWBUfGSEzDFlK/7anSrFtviQUgoqX8NEBLI1oupaenefxRusYQCImGBcA55zZCWEJrjhCPmRyHF62AEDvV2JOUIrc99aaKYENXHE63yUux6NlRyvLETh5lmSY/M0OykpMkfcdWSVm/RrLhDhMEIsIwAB2R8XBlCQd3TzYsQWA9UpCR6bAKIRBCyyWSRkWA/BhcOTmZ6ZJ6YA94ITIkLyJEIps0l/iTwA3S6gTk01BCAa5o0Ro4XjRQEQuY40U3VuXU+rLSij5X3TWg+0V1fwJ0/bUGHBooFyDEsAjhSoO2IBJUoFClymIRUt0ehoT1v8rni2dikbVDzoL/bZvmzSUKu8whWDTRPz41JQlkipvlyMF9avEUHd9KWpzaR+q1Olki47BwitALp/J8ZuwCISRLJWkqXbzatGmoLEPKs5wV9Vv+AiE7EKr3modedBabZKvPjx0iXRD2l2Z5FS3K1QV8IARD0rYnKuuQtK0Jkns4WWpgGA0Li0CY61pwV4sG+BEKtB4msQCYGVEmPxf3ZaXBCiRFsrLTJRduMaGIGhPTpoPUwj8DBKkBMCUYFl9atAaOFw3oBYxvLaX15Zu+dOrqoQHdL6pHO+taag1400A5ASHgCFFWIARCigQf1qyuHK4xRpGqy3HjX7/IhwunS/KujdK1dVNpBa6Jeg2bSlRMLdo+STYiUqQe2oNjJkxUw6RWow7aEqQCHw67QEgGXLsYPjAapHQdO3ZSZHMVWOxy++k1m3fI9j3JMIAIRYSRLrZMsFk4Rgh5+6tfVJSgZg3rSI9u4MyoF6e4IZzjVLnVwv0P5cGiI5tgCELnHknYIJl7dkoeAI5g8JpEhNeEZUikBIeFK/cWZe4MjpG8HBAbox9nAAzJh8cL3WSiGjeXuh26SmzzNtoSxL269ZVKrgG9gPGtgbS+fNOXTl09NKD7RfVoZ11LrQFvGignIMTBEeIoDL2/i1xjKgFZqjcFVcXrBEI+WDBd/t20SmrXjJL6cTHSuH5tqR0TJeGhNSQc3BOhNeMkum5TiWvUSWLqtdKWIBX4INgFQnbu3Ck///yzsgjp1/9KFbKvAotdbj9tJuKyQ7ZoFMyKTJekqRXGDWIUzOVYCCKqfEaKQdjcrIMHJBNRZDL375KspP2KRyQvA6SpeXCRgSUIfeppdAfGWKkBy6AwhMuNgPtLVIMmElW/sUTFN5Kw2DjRliAuStZfjxsN6AWMb02l9eWbvnTq6qEB3S+qRzvrWmoNeNNAuQAhmxVZKmfngEAwTy8k4YriCNEWId4aqCyub9+6Qb5f+r7sSNyoCBdjwBtQv1aE1IoKlQgAIbQMiY5vorhA6jQ5USJj65dFMXSeNjXgjizV9XYDCKlXL15uvvlmORmhB6uDENAgqRTNzbxFKTHrgwRNZLWmEJ4lOWdlJowk2KFC6yIEbgbBkKS9kg7uj5yjKeD2AVGqAkMwxoLYOCgsTMIQ+jqqAcCP+k0Q4akxCI7r2I4OY9aT/qw1UJk0oBcwvrWG1pdv+tKpq4cGdL+oHu2sa6k14E0D5QKEODhCaGzuWK0oixAsPDRZqrfmKZvrGelHJQk7yhmINMEWCQHhAAGQUCygVPhS8A3UgLk9uUDCImtJjdDwsimIztWWBtyFz3W9ORNEmnSN6dDhhGoFhLjqoap+Z8hxxRuCULn52ZkqxG5+Vpbk5+Wo8w6foKJxFgBPMKPHREQq6w8e+b2io8NU1bbR9So/DegFjG+61vryTV86dfXQgO4X1aOddS21BrxpoByBEMeuK0PvwBgEO7gaCPHWOPq61gA1sHrVKnn11Vdl9epVthRy8smnaCDElqZ0Iq0BrYHjTQN6AeNbi2l9+aYvnbp6aED3i+rRzrqWWgPeNFAuQMix8LkEQYiCoFj4t+ZP7RrjrYH0da0BrQGtAa0BrQGtAYcG9ALGtydB68s3fenU1UMDul9Uj3bWtdQa8KaBcgFCnOFz6cSvUBAHYeqaVRoI8dZA+rrWgNaA1oDWgNaA1oBDA3oB49uToPXlm7506uqhAd0vqkc761pqDXjTQPkAIYlbHYYgwEEK4RJDgxACIqs1EOKtffR1rQGtAa0BrQGtAa2BIg3oBYxvj4LWl2/60qmrhwZ0v6ge7axrqTXgTQPlA4QwagzRDwIhNApxBGrQrjHeWkdf1xrQGtAa0BrQGtAacGpAL2CcqrD1QevLlpp0omqmAd0vqlmD6+pqDbjRQLkAIY7wuUasGEdJGEZ39WrtGuOmXfRprQGtAa0BrQGtAa0BFw3oBYyLQrx81fryoiB9uVpqQPeLatnsutJaAyU0UE5AyLZC0KSq/xg1xhE/JljWrPq9RIF4YuDAgZbneTI7J9ftNX1Ba0BrQGtAa0BrQGug6mpAL2B8a1utL9/0pVNXDw3oflE92lnXUmvAmwbKBwhJ2FoYFAwopIDMIABEaA6CT5os1Vvz6OtaA1oDWgNaA1oDWgOGBvQCxtCEvaPWlz096VTVSwO6X1Sv9ta11Rpwp4FyAUISEhNBlgpbEAIgyjaEdiGFmizVXavo81oDWgNaA1oDWgNaAyU0oBcwJVTi8YTWl0f16IvVVAO6X1TThtfV1hpw0UD5ACEkS4WoP0UFoIOMjhpTpAx90BrQGtAa0BrQGtAa8KoBvYDxqqJiCbS+iqlDf9EaUBrQ/UI/CFoDWgPUQLkBITAEkSC4xgisQgza1NWr/rRsBc0RYqkWfVJrQGtAa0BrQGugWmtAL2B8a36tL9/0pVNXDw3oflE92lnXUmvAmwbKBQjZnAiOEHrFoDQOqlSiIoU6fK631tHXtQa0BrQGtAa0BrQGnBrQCxinKmx90PqypSadqJppQPeLatbgurpaA240UC5ASELCNhiBKHMQFMNhEUJUZI0On+umWfRprQGtAa0BrQGtAa0BVw3oBYyrRjx/1/ryrB99tXpqQPeL6tnuutZaA64aKBcgZDM4Qop4UossQmgZQrJU7Rrj2iD6u9aA1oDWgNaA1oDWgLUGjAWM9VV9VmtAa0BrwL4GsrJz7CfWKbUGtAaqnAbKBQhJgGtMISxAgugXA8MQoiJBEgwg5HdLhXriCLG8QZ/UGtAa0BrQGtAa0Bqo8hoIUhOJKl9NXUGtAa2BctCAWpyUw+/on9Aa0BqovhoIStiSSORDVAjdIqIQkqeu+fMPS61oIMRSLfqk1oDWgNaA1oDWgNaA1oDWgNaA1oDWgNaA1oDWwHGggaAtcI1RSAjMQXikWwz/X73ad9eY46C+uohaA1oDWgNaA1oDWgNaA1oDWgNaA1oDWgNaA1oD1VgDsAghEOIQeseoULoEQlZpi5Bq/FzoqmsNaA1oDWgNaA1oDWgNaA1oDWgNaA1oDWgNVEkNBCmyVIMtVVXRETlmjQZCqmSD60ppDWgNaA1oDWgNaA1oDWgNaA1oDWgNaA1oDVRnDcAiBOFz4QtDqxBlEVL0QQMh1fmx0HXXGtAa0BrQGtAa0BrQGtAa0BrQGtAa0BrQGqiaGijmGiOMGAPfGGIhGgipmg2ua6U1oDWgNaA1oDWgNaA1oDWgNaA1oDWgNaA1UJ01oIAQIh+FwVADwuc6ot8VgiNEk6VW5wdD111rQGtAa0BrQGtAa0BrQGtAa0BrQGtAa0BroCpqwMERUuQYc8xBRluEVMXG1nXSGtAa0BrQGtAa0BrQGtAa0BrQGtAa0BrQGqjuGghKSETUGLjD0CEGH2ARol1jqvtDoeuvNaA1oDWgNaA1oDWgNaA1oDWgNaA1oDWgNVBVNfB/vwwZ2tvI0hkAAAAASUVORK5CYII=;imageBorder=default;" vertex="1" parent="1">
          <mxGeometry x="60" y="274" width="537.64" height="139.1" as="geometry" />
        </mxCell>
      </root>
    </mxGraphModel>
  </diagram>
</mxfile>
